# This file uses centimeters as units for non-parametric coordinates.

mtllib wall V2.mtl
g default
v -1.000000 -0.005017 0.079818
v 1.000000 -0.005017 0.079818
v -1.000000 1.207812 0.079818
v 1.000000 1.207812 0.079818
v -1.000000 3.250970 0.079818
v 1.000000 3.250970 0.079818
v -1.000000 1.188744 0.143384
v -1.000000 1.202228 0.137800
v -1.000000 1.207812 0.124316
v 1.000000 1.188744 0.143384
v 1.000000 1.207812 0.124316
v 1.000000 1.202228 0.137800
v -1.000000 0.995305 0.137800
v -1.000000 1.008788 0.143384
v 1.000000 1.008788 0.143384
v 1.000000 0.995305 0.137800
v 0.000000 -0.005017 0.079818
v 0.000000 0.995305 0.137800
v 0.000000 1.008788 0.143384
v 0.000000 1.188744 0.143384
v 0.000000 1.202228 0.137800
v 0.000000 1.207812 0.124316
v 0.000000 1.207812 0.079818
v 0.000000 3.250970 0.079818
v 0.500000 -0.005017 0.079818
v 0.500000 3.250970 0.079818
v 0.500000 1.207812 0.079818
v 0.500000 1.207812 0.124316
v 0.500000 1.202228 0.137800
v 0.500000 1.188744 0.143384
v 0.500000 1.008788 0.143384
v 0.500000 0.995305 0.137800
v -0.500000 -0.005017 0.079818
v -0.500000 0.995305 0.137800
v -0.500000 1.008788 0.143384
v -0.500000 1.188744 0.143384
v -0.500000 1.202228 0.137800
v -0.500000 1.207812 0.124316
v -0.500000 1.207812 0.079818
v -0.500000 3.250970 0.079818
v -0.973163 -0.005017 0.103905
v -0.526837 -0.005017 0.103905
v -0.479727 -0.005017 0.103489
v -0.020273 -0.005017 0.103489
v 0.019055 -0.005017 0.103763
v 0.480945 -0.005017 0.103763
v 0.523753 -0.005017 0.103490
v 0.976247 -0.005017 0.103490
v -1.000000 0.989720 0.079818
v 1.000000 0.989720 0.079818
v 0.000000 0.989720 0.079818
v 0.000000 0.989720 0.079818
v 0.500000 0.989720 0.079818
v 0.500000 0.989720 0.079818
v -0.500000 0.989720 0.079818
v -0.500000 0.989720 0.079818
v -0.526837 0.989720 0.103905
v -0.526837 0.989720 0.103905
v -0.973163 0.989720 0.103905
v -0.973163 0.989720 0.103905
v -0.479727 0.989720 0.103489
v -0.479727 0.989720 0.103489
v -0.020273 0.989720 0.103489
v -0.020273 0.989720 0.103489
v 0.019055 0.989720 0.103763
v 0.019055 0.989720 0.103763
v 0.480945 0.989720 0.103763
v 0.480945 0.989720 0.103763
v 0.523753 0.989720 0.103490
v 0.523753 0.989720 0.103490
v 0.976247 0.989720 0.103490
v 0.976247 0.989720 0.103490
v 1.000000 -0.005017 0.079818
v 1.000000 0.989720 0.079818
v -1.000000 -0.005017 0.079818
v -1.000000 0.989720 0.079818
v -1.000000 0.989720 0.079818
v -1.000000 1.207812 0.079818
v 1.000000 0.989720 0.079818
v 1.000000 1.207812 0.079818
v -1.000000 0.995305 0.137800
v -1.000000 0.989720 0.124316
v -0.500000 0.989720 0.124316
v -0.500000 0.995305 0.137800
v 1.000000 0.989720 0.079818
v 1.000000 1.207812 0.079818
v 1.000000 1.207812 0.124316
v 1.000000 0.989720 0.124316
v 1.000000 0.989720 0.124316
v 1.000000 1.207812 0.124316
v 1.000000 1.202228 0.137800
v 1.000000 0.995305 0.137800
v -1.000000 0.995305 0.137800
v -1.000000 1.202228 0.137800
v -1.000000 1.207812 0.124316
v -1.000000 0.989720 0.124316
v -1.000000 0.989720 0.124316
v -1.000000 1.207812 0.124316
v -1.000000 1.207812 0.079818
v -1.000000 0.989720 0.079818
v 0.500000 0.995305 0.137800
v 0.500000 0.989720 0.124316
v 1.000000 0.989720 0.124316
v 1.000000 0.995305 0.137800
v 0.000000 0.995305 0.137800
v 0.000000 0.989720 0.124316
v 0.500000 0.989720 0.124316
v 0.500000 0.995305 0.137800
v -0.500000 0.995305 0.137800
v -0.500000 0.989720 0.124316
v 0.000000 0.989720 0.124316
v 0.000000 0.995305 0.137800
v -0.526837 0.989720 0.103905
v -0.500000 0.989720 0.124316
v -1.000000 0.989720 0.124316
v -0.973163 0.989720 0.103905
v -0.020273 0.989720 0.103489
v 0.000000 0.989720 0.124316
v -0.500000 0.989720 0.124316
v -0.479727 0.989720 0.103489
v 0.480945 0.989720 0.103763
v 0.500000 0.989720 0.124316
v 0.000000 0.989720 0.124316
v 0.019055 0.989720 0.103763
v 0.976247 0.989720 0.103490
v 1.000000 0.989720 0.124316
v 0.500000 0.989720 0.124316
v 0.523753 0.989720 0.103490
v -0.973163 0.989720 0.103905
v -1.000000 0.989720 0.124316
v -1.000000 0.989720 0.079818
v -0.479727 0.989720 0.103489
v -0.500000 0.989720 0.124316
v -0.526837 0.989720 0.103905
v -0.500000 0.989720 0.079818
v 0.019055 0.989720 0.103763
v 0.000000 0.989720 0.124316
v -0.020273 0.989720 0.103489
v 0.000000 0.989720 0.079818
v 0.523753 0.989720 0.103490
v 0.500000 0.989720 0.124316
v 0.480945 0.989720 0.103763
v 0.500000 0.989720 0.079818
v 1.000000 0.989720 0.124316
v 0.976247 0.989720 0.103490
v 1.000000 0.989720 0.079818
v -1.000000 -0.005017 -0.079818
v 1.000000 -0.005017 -0.079818
v -1.000000 1.207812 -0.079818
v 1.000000 1.207812 -0.079818
v -1.000000 3.250970 -0.079818
v 1.000000 3.250970 -0.079818
v -1.000000 1.188744 -0.143384
v -1.000000 1.202228 -0.137800
v -1.000000 1.207812 -0.124316
v 1.000000 1.188744 -0.143384
v 1.000000 1.207812 -0.124316
v 1.000000 1.202228 -0.137800
v -1.000000 0.995305 -0.137800
v -1.000000 1.008788 -0.143384
v 1.000000 1.008788 -0.143384
v 1.000000 0.995305 -0.137800
v 0.000000 -0.005017 -0.079818
v 0.000000 0.995305 -0.137800
v 0.000000 1.008788 -0.143384
v 0.000000 1.188744 -0.143384
v 0.000000 1.202228 -0.137800
v 0.000000 1.207812 -0.124316
v 0.000000 1.207812 -0.079818
v 0.000000 3.250970 -0.079818
v 0.500000 -0.005017 -0.079818
v 0.500000 3.250970 -0.079818
v 0.500000 1.207812 -0.079818
v 0.500000 1.207812 -0.124316
v 0.500000 1.202228 -0.137800
v 0.500000 1.188744 -0.143384
v 0.500000 1.008788 -0.143384
v 0.500000 0.995305 -0.137800
v -0.500000 -0.005017 -0.079818
v -0.500000 0.995305 -0.137800
v -0.500000 1.008788 -0.143384
v -0.500000 1.188744 -0.143384
v -0.500000 1.202228 -0.137800
v -0.500000 1.207812 -0.124316
v -0.500000 1.207812 -0.079818
v -0.500000 3.250970 -0.079818
v -0.973163 -0.005017 -0.103905
v -0.526837 -0.005017 -0.103905
v -0.479727 -0.005017 -0.103489
v -0.020273 -0.005017 -0.103489
v 0.019055 -0.005017 -0.103763
v 0.480945 -0.005017 -0.103763
v 0.523753 -0.005017 -0.103490
v 0.976247 -0.005017 -0.103490
v -1.000000 0.989720 -0.079818
v 1.000000 0.989720 -0.079818
v 0.000000 0.989720 -0.079818
v 0.000000 0.989720 -0.079818
v 0.500000 0.989720 -0.079818
v 0.500000 0.989720 -0.079818
v -0.500000 0.989720 -0.079818
v -0.500000 0.989720 -0.079818
v -0.526837 0.989720 -0.103905
v -0.526837 0.989720 -0.103905
v -0.973163 0.989720 -0.103905
v -0.973163 0.989720 -0.103905
v -0.479727 0.989720 -0.103489
v -0.479727 0.989720 -0.103489
v -0.020273 0.989720 -0.103489
v -0.020273 0.989720 -0.103489
v 0.019055 0.989720 -0.103763
v 0.019055 0.989720 -0.103763
v 0.480945 0.989720 -0.103763
v 0.480945 0.989720 -0.103763
v 0.523753 0.989720 -0.103490
v 0.523753 0.989720 -0.103490
v 0.976247 0.989720 -0.103490
v 0.976247 0.989720 -0.103490
v 1.000000 -0.005017 -0.079818
v 1.000000 0.989720 -0.079818
v -1.000000 -0.005017 -0.079818
v -1.000000 0.989720 -0.079818
v -1.000000 0.989720 -0.079818
v -1.000000 1.207812 -0.079818
v 1.000000 0.989720 -0.079818
v 1.000000 1.207812 -0.079818
v -1.000000 0.995305 -0.137800
v -1.000000 0.989720 -0.124316
v -0.500000 0.989720 -0.124316
v -0.500000 0.995305 -0.137800
v 1.000000 0.989720 -0.079818
v 1.000000 1.207812 -0.079818
v 1.000000 1.207812 -0.124316
v 1.000000 0.989720 -0.124316
v 1.000000 0.989720 -0.124316
v 1.000000 1.207812 -0.124316
v 1.000000 1.202228 -0.137800
v 1.000000 0.995305 -0.137800
v -1.000000 0.995305 -0.137800
v -1.000000 1.202228 -0.137800
v -1.000000 1.207812 -0.124316
v -1.000000 0.989720 -0.124316
v -1.000000 0.989720 -0.124316
v -1.000000 1.207812 -0.124316
v -1.000000 1.207812 -0.079818
v -1.000000 0.989720 -0.079818
v 0.500000 0.995305 -0.137800
v 0.500000 0.989720 -0.124316
v 1.000000 0.989720 -0.124316
v 1.000000 0.995305 -0.137800
v 0.000000 0.995305 -0.137800
v 0.000000 0.989720 -0.124316
v 0.500000 0.989720 -0.124316
v 0.500000 0.995305 -0.137800
v -0.500000 0.995305 -0.137800
v -0.500000 0.989720 -0.124316
v 0.000000 0.989720 -0.124316
v 0.000000 0.995305 -0.137800
v -0.526837 0.989720 -0.103905
v -0.500000 0.989720 -0.124316
v -1.000000 0.989720 -0.124316
v -0.973163 0.989720 -0.103905
v -0.020273 0.989720 -0.103489
v 0.000000 0.989720 -0.124316
v -0.500000 0.989720 -0.124316
v -0.479727 0.989720 -0.103489
v 0.480945 0.989720 -0.103763
v 0.500000 0.989720 -0.124316
v 0.000000 0.989720 -0.124316
v 0.019055 0.989720 -0.103763
v 0.976247 0.989720 -0.103490
v 1.000000 0.989720 -0.124316
v 0.500000 0.989720 -0.124316
v 0.523753 0.989720 -0.103490
v -0.973163 0.989720 -0.103905
v -1.000000 0.989720 -0.124316
v -1.000000 0.989720 -0.079818
v -0.479727 0.989720 -0.103489
v -0.500000 0.989720 -0.124316
v -0.526837 0.989720 -0.103905
v -0.500000 0.989720 -0.079818
v 0.019055 0.989720 -0.103763
v 0.000000 0.989720 -0.124316
v -0.020273 0.989720 -0.103489
v 0.000000 0.989720 -0.079818
v 0.523753 0.989720 -0.103490
v 0.500000 0.989720 -0.124316
v 0.480945 0.989720 -0.103763
v 0.500000 0.989720 -0.079818
v 1.000000 0.989720 -0.124316
v 0.976247 0.989720 -0.103490
v 1.000000 0.989720 -0.079818
vt 0.023164 0.109800
vt 0.226766 0.109956
vt 0.226077 0.340921
vt 0.022475 0.340764
vt 0.015705 0.916250
vt 0.243071 0.916250
vt 0.243071 0.982131
vt 0.015705 0.982131
vt 0.697246 0.083347
vt 0.925494 0.083347
vt 0.925494 0.020586
vt 0.697246 0.020586
vt 0.878083 0.341575
vt 0.921056 0.341575
vt 0.921056 0.110955
vt 0.878083 0.110955
vt 0.943958 0.110955
vt 0.986932 0.110955
vt 0.986932 0.341575
vt 0.943958 0.341575
vt 0.944894 0.363519
vt 0.994905 0.363472
vt 0.994905 0.422288
vt 0.944894 0.422335
vt 0.944884 0.422335
vt 0.994895 0.422288
vt 0.994895 0.363472
vt 0.944884 0.363519
vt 0.014370 0.448592
vt 0.241796 0.448592
vt 0.241796 0.907080
vt 0.014370 0.907080
vt 0.978839 0.907080
vt 0.978839 0.448592
vt 0.938345 0.448592
vt 0.938345 0.907080
vt 0.938345 0.448592
vt 0.978839 0.448592
vt 0.978839 0.907080
vt 0.938345 0.907080
vt 0.237801 0.364282
vt 0.237801 0.406866
vt 0.010374 0.406866
vt 0.010374 0.364282
vt 0.237801 0.411378
vt 0.237801 0.421908
vt 0.010374 0.421908
vt 0.010374 0.411378
vt 0.010374 0.408188
vt 0.237801 0.408188
vt 0.010374 0.362960
vt 0.237801 0.362960
vt 0.012300 0.362960
vt 0.012300 0.359770
vt 0.239727 0.359770
vt 0.239727 0.362960
vt 0.926738 0.365026
vt 0.924990 0.368662
vt 0.924990 0.417193
vt 0.926738 0.420829
vt 0.944884 0.363519
vt 0.944884 0.422335
vt 0.930950 0.422335
vt 0.930950 0.363519
vt 0.926728 0.365026
vt 0.926728 0.420829
vt 0.924979 0.417193
vt 0.924979 0.368662
vt 0.930950 0.363519
vt 0.930950 0.422335
vt 0.926728 0.420829
vt 0.926728 0.365026
vt 0.926738 0.365026
vt 0.926738 0.420829
vt 0.930960 0.422335
vt 0.930960 0.363519
vt 0.930960 0.363519
vt 0.930960 0.422335
vt 0.944894 0.422335
vt 0.944894 0.363519
vt 0.705328 0.341291
vt 0.706016 0.110326
vt 0.912431 0.110486
vt 0.911744 0.341450
vt 0.694496 0.362960
vt 0.694496 0.359770
vt 0.921840 0.359770
vt 0.921840 0.362960
vt 0.692570 0.364282
vt 0.692570 0.362960
vt 0.919914 0.362960
vt 0.919914 0.364282
vt 0.919914 0.406866
vt 0.692570 0.406866
vt 0.692570 0.408188
vt 0.919914 0.408188
vt 0.692570 0.411378
vt 0.919914 0.411378
vt 0.919914 0.421908
vt 0.692570 0.421908
vt 0.696566 0.907080
vt 0.696566 0.448592
vt 0.923910 0.448592
vt 0.923910 0.907080
vt 0.697801 0.916250
vt 0.925165 0.916250
vt 0.925165 0.982131
vt 0.697801 0.982131
vt 0.012501 0.020586
vt 0.012501 0.083347
vt 0.240749 0.083347
vt 0.240749 0.020586
vt 0.475098 0.341113
vt 0.475787 0.110149
vt 0.686488 0.110311
vt 0.685800 0.341276
vt 0.468998 0.083347
vt 0.468998 0.020586
vt 0.470436 0.916250
vt 0.470436 0.982131
vt 0.469181 0.907080
vt 0.469181 0.448592
vt 0.465185 0.421908
vt 0.465185 0.411378
vt 0.465185 0.408188
vt 0.465185 0.406866
vt 0.465185 0.364282
vt 0.465185 0.362960
vt 0.467111 0.362960
vt 0.467111 0.359770
vt 0.694496 0.359770
vt 0.694496 0.362960
vt 0.247567 0.340937
vt 0.248256 0.109973
vt 0.457847 0.110135
vt 0.457158 0.341099
vt 0.239727 0.362960
vt 0.239727 0.359770
vt 0.467111 0.359770
vt 0.467111 0.362960
vt 0.709497 0.092816
vt 0.913243 0.092816
vt 0.239008 0.109966
vt 0.238320 0.340930
vt 0.226077 0.340921
vt 0.226766 0.109956
vt 0.010233 0.340754
vt 0.010921 0.109790
vt 0.023164 0.109800
vt 0.022475 0.340764
vt 0.238320 0.340930
vt 0.239008 0.109966
vt 0.248256 0.109973
vt 0.247567 0.340937
vt 0.478252 0.092653
vt 0.687991 0.092653
vt 0.467094 0.110142
vt 0.466406 0.341106
vt 0.457158 0.341099
vt 0.457847 0.110135
vt 0.466406 0.341106
vt 0.467094 0.110142
vt 0.475787 0.110149
vt 0.475098 0.341113
vt 0.249447 0.092761
vt 0.460299 0.092761
vt 0.695181 0.110318
vt 0.694492 0.341282
vt 0.685800 0.341276
vt 0.686488 0.110311
vt 0.694492 0.341282
vt 0.695181 0.110318
vt 0.706016 0.110326
vt 0.705328 0.341291
vt 0.023344 0.092653
vt 0.229906 0.092653
vt 0.923267 0.110494
vt 0.922579 0.341458
vt 0.911744 0.341450
vt 0.912431 0.110486
vt 0.225388 0.355631
vt 0.239727 0.359770
vt 0.012300 0.359770
vt 0.022413 0.355631
vt 0.455758 0.355072
vt 0.467111 0.359770
vt 0.239727 0.359770
vt 0.246812 0.355072
vt 0.683697 0.354676
vt 0.694496 0.359770
vt 0.467111 0.359770
vt 0.473643 0.354676
vt 0.908945 0.354150
vt 0.921840 0.359770
vt 0.694496 0.359770
vt 0.703164 0.354150
vt 0.022413 0.355631
vt 0.012300 0.359770
vt 0.012300 0.350163
vt 0.246812 0.355072
vt 0.239727 0.359770
vt 0.225388 0.355631
vt 0.237549 0.349701
vt 0.473643 0.354676
vt 0.467111 0.359770
vt 0.455758 0.355072
vt 0.464934 0.349241
vt 0.703164 0.354150
vt 0.694496 0.359770
vt 0.683697 0.354676
vt 0.692318 0.348779
vt 0.921840 0.359770
vt 0.908945 0.354150
vt 0.921840 0.348318
vt 0.023164 0.109800
vt 0.022475 0.340764
vt 0.226077 0.340921
vt 0.226766 0.109956
vt 0.014370 0.448592
vt 0.014370 0.907080
vt 0.241796 0.907080
vt 0.241796 0.448592
vt 0.237801 0.364282
vt 0.010374 0.364282
vt 0.010374 0.406866
vt 0.237801 0.406866
vt 0.237801 0.411378
vt 0.010374 0.411378
vt 0.010374 0.421908
vt 0.237801 0.421908
vt 0.237801 0.408188
vt 0.010374 0.408188
vt 0.237801 0.362960
vt 0.010374 0.362960
vt 0.012300 0.362960
vt 0.239727 0.362960
vt 0.239727 0.359770
vt 0.012300 0.359770
vt 0.926738 0.365026
vt 0.926738 0.420829
vt 0.924990 0.417193
vt 0.924990 0.368662
vt 0.944884 0.363519
vt 0.930950 0.363519
vt 0.930950 0.422335
vt 0.944884 0.422335
vt 0.926728 0.365026
vt 0.924979 0.368662
vt 0.924979 0.417193
vt 0.926728 0.420829
vt 0.930950 0.363519
vt 0.926728 0.365026
vt 0.926728 0.420829
vt 0.930950 0.422335
vt 0.926738 0.365026
vt 0.930960 0.363519
vt 0.930960 0.422335
vt 0.926738 0.420829
vt 0.930960 0.363519
vt 0.944894 0.363519
vt 0.944894 0.422335
vt 0.930960 0.422335
vt 0.705328 0.341291
vt 0.911744 0.341450
vt 0.912431 0.110486
vt 0.706016 0.110326
vt 0.694496 0.362960
vt 0.921840 0.362960
vt 0.921840 0.359770
vt 0.694496 0.359770
vt 0.692570 0.364282
vt 0.919914 0.364282
vt 0.919914 0.362960
vt 0.692570 0.362960
vt 0.919914 0.406866
vt 0.692570 0.406866
vt 0.692570 0.408188
vt 0.919914 0.408188
vt 0.692570 0.411378
vt 0.919914 0.411378
vt 0.919914 0.421908
vt 0.692570 0.421908
vt 0.696566 0.907080
vt 0.923910 0.907080
vt 0.923910 0.448592
vt 0.696566 0.448592
vt 0.475098 0.341113
vt 0.685800 0.341276
vt 0.686488 0.110311
vt 0.475787 0.110149
vt 0.469181 0.907080
vt 0.469181 0.448592
vt 0.465185 0.411378
vt 0.465185 0.421908
vt 0.465185 0.408188
vt 0.465185 0.406866
vt 0.465185 0.364282
vt 0.465185 0.362960
vt 0.467111 0.362960
vt 0.694496 0.362960
vt 0.694496 0.359770
vt 0.467111 0.359770
vt 0.247567 0.340937
vt 0.457158 0.341099
vt 0.457847 0.110135
vt 0.248256 0.109973
vt 0.239727 0.362960
vt 0.467111 0.362960
vt 0.467111 0.359770
vt 0.239727 0.359770
vt 0.913243 0.011116
vt 0.709497 0.011116
vt 0.239008 0.109966
vt 0.226766 0.109956
vt 0.226077 0.340921
vt 0.238320 0.340930
vt 0.010233 0.340754
vt 0.022475 0.340764
vt 0.023164 0.109800
vt 0.010921 0.109790
vt 0.238320 0.340930
vt 0.247567 0.340937
vt 0.248256 0.109973
vt 0.239008 0.109966
vt 0.687991 0.011280
vt 0.478252 0.011280
vt 0.467094 0.110142
vt 0.457847 0.110135
vt 0.457158 0.341099
vt 0.466406 0.341106
vt 0.466406 0.341106
vt 0.475098 0.341113
vt 0.475787 0.110149
vt 0.467094 0.110142
vt 0.460299 0.011172
vt 0.249447 0.011172
vt 0.695181 0.110318
vt 0.686488 0.110311
vt 0.685800 0.341276
vt 0.694492 0.341282
vt 0.694492 0.341282
vt 0.705328 0.341291
vt 0.706016 0.110326
vt 0.695181 0.110318
vt 0.229906 0.011280
vt 0.023344 0.011280
vt 0.923267 0.110494
vt 0.912431 0.110486
vt 0.911744 0.341450
vt 0.922579 0.341458
vt 0.225388 0.355631
vt 0.022413 0.355631
vt 0.012300 0.359770
vt 0.239727 0.359770
vt 0.455758 0.355072
vt 0.246812 0.355072
vt 0.239727 0.359770
vt 0.467111 0.359770
vt 0.683697 0.354676
vt 0.473643 0.354676
vt 0.467111 0.359770
vt 0.694496 0.359770
vt 0.908945 0.354150
vt 0.703164 0.354150
vt 0.694496 0.359770
vt 0.921840 0.359770
vt 0.022413 0.355631
vt 0.012300 0.350163
vt 0.012300 0.359770
vt 0.246812 0.355072
vt 0.237549 0.349701
vt 0.225388 0.355631
vt 0.239727 0.359770
vt 0.473643 0.354676
vt 0.464934 0.349241
vt 0.455758 0.355072
vt 0.467111 0.359770
vt 0.703164 0.354150
vt 0.692318 0.348779
vt 0.683697 0.354676
vt 0.694496 0.359770
vt 0.921840 0.359770
vt 0.921840 0.348318
vt 0.908945 0.354150
vn 0.000000 0.000000 1.000000
vn 0.000000 0.000000 1.000000
vn 0.000000 0.000000 1.000000
vn 0.000000 0.000000 1.000000
vn 0.000000 1.000000 0.000000
vn 0.000000 1.000000 0.000000
vn 0.000000 1.000000 0.000000
vn 0.000000 1.000000 0.000000
vn 0.000000 -1.000000 0.000000
vn 0.000000 -1.000000 0.000000
vn 0.000000 -1.000000 0.000000
vn 0.000000 -1.000000 0.000000
vn 1.000000 0.000000 0.000000
vn 1.000000 0.000000 0.000000
vn 1.000000 0.000000 0.000000
vn 1.000000 0.000000 0.000000
vn -1.000000 0.000000 0.000000
vn -1.000000 0.000000 0.000000
vn -1.000000 0.000000 0.000000
vn -1.000000 0.000000 0.000000
vn -1.000000 0.000000 0.000000
vn -1.000000 0.000000 0.000000
vn -1.000000 0.000000 0.000000
vn -1.000000 0.000000 0.000000
vn 1.000000 0.000000 0.000000
vn 1.000000 0.000000 0.000000
vn 1.000000 0.000000 0.000000
vn 1.000000 0.000000 0.000000
vn 0.000000 0.000000 1.000000
vn 0.000000 0.000000 1.000000
vn 0.000000 0.000000 1.000000
vn 0.000000 0.000000 1.000000
vn 1.000000 0.000000 0.000000
vn 1.000000 0.000000 0.000000
vn 1.000000 0.000000 0.000000
vn 1.000000 0.000000 0.000000
vn -1.000000 0.000000 0.000000
vn -1.000000 0.000000 0.000000
vn -1.000000 0.000000 0.000000
vn -1.000000 0.000000 0.000000
vn 0.000000 -0.028859 0.999583
vn 0.000000 0.028859 0.999583
vn 0.000000 0.028859 0.999583
vn 0.000000 -0.028859 0.999583
vn 0.000000 0.995393 0.095878
vn 0.000000 1.000000 0.000000
vn 0.000000 1.000000 0.000000
vn 0.000000 0.995393 0.095878
vn 0.000000 0.995393 0.095878
vn 0.000000 0.923881 0.382681
vn 0.000000 0.923881 0.382681
vn 0.000000 0.995393 0.095878
vn 0.000000 0.382681 0.923881
vn 0.000000 0.028859 0.999583
vn 0.000000 0.028859 0.999583
vn 0.000000 0.382681 0.923881
vn 0.000000 -0.028859 0.999583
vn 0.000000 -0.382681 0.923881
vn 0.000000 -0.382681 0.923881
vn 0.000000 -0.028859 0.999583
vn 0.000000 -0.923881 0.382681
vn 0.000000 -0.923881 0.382681
vn 0.000000 -0.923881 0.382681
vn 0.000000 -0.923881 0.382681
vn -1.000000 0.000000 0.000000
vn -1.000000 0.000000 0.000000
vn -1.000000 0.000000 0.000000
vn -1.000000 0.000000 0.000000
vn 1.000000 0.000000 0.000000
vn 1.000000 0.000000 0.000000
vn 1.000000 0.000000 0.000000
vn 1.000000 0.000000 0.000000
vn 1.000000 0.000000 0.000000
vn 1.000000 0.000000 0.000000
vn 1.000000 0.000000 0.000000
vn 1.000000 0.000000 0.000000
vn 1.000000 0.000000 0.000000
vn 1.000000 0.000000 0.000000
vn 1.000000 0.000000 0.000000
vn 1.000000 0.000000 0.000000
vn -1.000000 0.000000 0.000000
vn -1.000000 0.000000 0.000000
vn -1.000000 0.000000 0.000000
vn -1.000000 0.000000 0.000000
vn -1.000000 0.000000 0.000000
vn -1.000000 0.000000 0.000000
vn -1.000000 0.000000 0.000000
vn -1.000000 0.000000 0.000000
vn 0.000000 0.000000 1.000000
vn 0.000000 0.000000 1.000000
vn 0.000000 0.000000 1.000000
vn 0.000000 0.000000 1.000000
vn 0.000000 -0.923881 0.382681
vn 0.000000 -0.923881 0.382681
vn 0.000000 -0.923881 0.382681
vn 0.000000 -0.923881 0.382681
vn 0.000000 -0.028859 0.999583
vn 0.000000 -0.382681 0.923881
vn 0.000000 -0.382681 0.923881
vn 0.000000 -0.028859 0.999583
vn 0.000000 0.028859 0.999583
vn 0.000000 0.028859 0.999583
vn 0.000000 -0.028859 0.999583
vn 0.000000 -0.028859 0.999583
vn 0.000000 0.382681 0.923881
vn 0.000000 0.028859 0.999583
vn 0.000000 0.028859 0.999583
vn 0.000000 0.382681 0.923881
vn 0.000000 0.995393 0.095878
vn 0.000000 0.923881 0.382681
vn 0.000000 0.923881 0.382681
vn 0.000000 0.995393 0.095878
vn 0.000000 1.000000 0.000000
vn 0.000000 1.000000 0.000000
vn 0.000000 0.995393 0.095878
vn 0.000000 0.995393 0.095878
vn 0.000000 0.000000 1.000000
vn 0.000000 0.000000 1.000000
vn 0.000000 0.000000 1.000000
vn 0.000000 0.000000 1.000000
vn 0.000000 1.000000 0.000000
vn 0.000000 1.000000 0.000000
vn 0.000000 1.000000 0.000000
vn 0.000000 1.000000 0.000000
vn 0.000000 -1.000000 0.000000
vn 0.000000 -1.000000 0.000000
vn 0.000000 -1.000000 0.000000
vn 0.000000 -1.000000 0.000000
vn 0.000000 0.000000 1.000000
vn 0.000000 0.000000 1.000000
vn 0.000000 0.000000 1.000000
vn 0.000000 0.000000 1.000000
vn 0.000000 -1.000000 0.000000
vn 0.000000 -1.000000 0.000000
vn 0.000000 -1.000000 0.000000
vn 0.000000 -1.000000 0.000000
vn 0.000000 1.000000 0.000000
vn 0.000000 1.000000 0.000000
vn 0.000000 1.000000 0.000000
vn 0.000000 1.000000 0.000000
vn 0.000000 0.000000 1.000000
vn 0.000000 0.000000 1.000000
vn 0.000000 0.000000 1.000000
vn 0.000000 0.000000 1.000000
vn 0.000000 0.995393 0.095878
vn 0.000000 1.000000 0.000000
vn 0.000000 1.000000 0.000000
vn 0.000000 0.995393 0.095878
vn 0.000000 0.995393 0.095878
vn 0.000000 0.923881 0.382681
vn 0.000000 0.923881 0.382681
vn 0.000000 0.995393 0.095878
vn 0.000000 0.382681 0.923881
vn 0.000000 0.028859 0.999583
vn 0.000000 0.028859 0.999583
vn 0.000000 0.382681 0.923881
vn 0.000000 -0.028859 0.999583
vn 0.000000 0.028859 0.999583
vn 0.000000 0.028859 0.999583
vn 0.000000 -0.028859 0.999583
vn 0.000000 -0.028859 0.999583
vn 0.000000 -0.382681 0.923881
vn 0.000000 -0.382681 0.923881
vn 0.000000 -0.028859 0.999583
vn 0.000000 -0.923881 0.382681
vn 0.000000 -0.923881 0.382681
vn 0.000000 -0.923881 0.382681
vn 0.000000 -0.923881 0.382681
vn 0.000000 0.000000 1.000000
vn 0.000000 0.000000 1.000000
vn 0.000000 0.000000 1.000000
vn 0.000000 0.000000 1.000000
vn 0.000000 -0.923881 0.382681
vn 0.000000 -0.923881 0.382681
vn 0.000000 -0.923881 0.382681
vn 0.000000 -0.923881 0.382681
vn 0.000000 -0.028859 0.999583
vn 0.000000 -0.382681 0.923881
vn 0.000000 -0.382681 0.923881
vn 0.000000 -0.028859 0.999583
vn 0.000000 -0.028859 0.999583
vn 0.000000 0.028859 0.999583
vn 0.000000 0.028859 0.999583
vn 0.000000 -0.028859 0.999583
vn 0.000000 0.382681 0.923881
vn 0.000000 0.028859 0.999583
vn 0.000000 0.028859 0.999583
vn 0.000000 0.382681 0.923881
vn 0.000000 0.995393 0.095878
vn 0.000000 0.923881 0.382681
vn 0.000000 0.923881 0.382681
vn 0.000000 0.995393 0.095878
vn 0.000000 0.995393 0.095878
vn 0.000000 1.000000 0.000000
vn 0.000000 1.000000 0.000000
vn 0.000000 0.995393 0.095878
vn 0.000000 0.000000 1.000000
vn 0.000000 0.000000 1.000000
vn 0.000000 0.000000 1.000000
vn 0.000000 0.000000 1.000000
vn 0.000000 1.000000 0.000000
vn 0.000000 1.000000 0.000000
vn 0.000000 1.000000 0.000000
vn 0.000000 1.000000 0.000000
vn 0.000000 -1.000000 0.000000
vn 0.000000 -1.000000 0.000000
vn 0.000000 -1.000000 0.000000
vn 0.000000 -1.000000 0.000000
vn 0.000000 -1.000000 0.000001
vn 0.000000 -1.000000 0.000001
vn 0.000000 -1.000000 0.000001
vn 0.000000 -1.000000 0.000001
vn 0.667935 0.000000 0.744219
vn 0.667935 0.000000 0.744219
vn 0.667935 0.000000 0.744219
vn 0.667935 0.000000 0.744219
vn -0.667935 0.000000 0.744219
vn -0.667935 0.000000 0.744219
vn -0.667935 0.000000 0.744219
vn -0.667935 0.000000 0.744219
vn -0.759526 0.000000 0.650477
vn -0.759526 0.000000 0.650477
vn -0.759526 0.000000 0.650477
vn -0.759526 0.000000 0.650477
vn 0.000000 -1.000000 0.000000
vn 0.000000 -1.000000 0.000000
vn 0.000000 -1.000000 0.000000
vn 0.000000 -1.000000 0.000000
vn 0.759526 0.000000 0.650477
vn 0.759526 0.000000 0.650477
vn 0.759526 0.000000 0.650477
vn 0.759526 0.000000 0.650477
vn -0.782483 0.000000 0.622672
vn -0.782483 0.000000 0.622672
vn -0.782483 0.000000 0.622672
vn -0.782483 0.000000 0.622672
vn 0.000000 -1.000000 -0.000001
vn 0.000000 -1.000000 -0.000001
vn 0.000000 -1.000000 -0.000001
vn 0.000000 -1.000000 -0.000001
vn 0.782483 0.000000 0.622672
vn 0.782483 0.000000 0.622672
vn 0.782483 0.000000 0.622672
vn 0.782483 0.000000 0.622672
vn -0.705904 0.000000 0.708307
vn -0.705904 0.000000 0.708307
vn -0.705904 0.000000 0.708307
vn -0.705904 0.000000 0.708307
vn 0.000000 -1.000000 0.000000
vn 0.000000 -1.000000 0.000000
vn 0.000000 -1.000000 0.000000
vn 0.000000 -1.000000 0.000000
vn 0.705904 0.000000 0.708307
vn 0.705904 0.000000 0.708307
vn 0.705904 0.000000 0.708307
vn 0.705904 0.000000 0.708307
vn 0.000000 -1.000000 0.000000
vn 0.000000 -1.000000 0.000000
vn 0.000000 -1.000000 0.000000
vn 0.000000 -1.000000 0.000000
vn 0.000000 -1.000000 0.000000
vn 0.000000 -1.000000 0.000000
vn 0.000000 -1.000000 0.000000
vn 0.000000 -1.000000 0.000000
vn 0.000000 -1.000000 0.000000
vn 0.000000 -1.000000 0.000000
vn 0.000000 -1.000000 0.000000
vn 0.000000 -1.000000 0.000000
vn 0.000000 -1.000000 0.000000
vn 0.000000 -1.000000 0.000000
vn 0.000000 -1.000000 0.000000
vn 0.000000 -1.000000 0.000000
vn 0.000000 -1.000000 0.000000
vn 0.000000 -1.000000 0.000000
vn 0.000000 -1.000000 0.000000
vn 0.000000 -1.000000 0.000000
vn 0.000000 -1.000000 0.000000
vn 0.000000 -1.000000 0.000000
vn 0.000000 -1.000000 0.000000
vn 0.000000 -1.000000 0.000000
vn 0.000000 -1.000000 0.000000
vn 0.000000 -1.000000 0.000000
vn 0.000000 -1.000000 0.000000
vn 0.000000 -1.000000 0.000000
vn 0.000000 -1.000000 0.000000
vn 0.000000 -1.000000 0.000000
vn 0.000000 -1.000000 0.000000
vn 0.000000 -1.000000 0.000000
vn 0.000000 -1.000000 0.000000
vn 0.000000 -1.000000 0.000000
vn 0.000000 0.000000 -1.000000
vn 0.000000 0.000000 -1.000000
vn 0.000000 0.000000 -1.000000
vn 0.000000 0.000000 -1.000000
vn 0.000000 0.000000 -1.000000
vn 0.000000 0.000000 -1.000000
vn 0.000000 0.000000 -1.000000
vn 0.000000 0.000000 -1.000000
vn 0.000000 -0.028859 -0.999583
vn 0.000000 -0.028859 -0.999583
vn 0.000000 0.028859 -0.999583
vn 0.000000 0.028859 -0.999583
vn 0.000000 0.995393 -0.095878
vn 0.000000 0.995393 -0.095878
vn 0.000000 1.000000 0.000000
vn 0.000000 1.000000 0.000000
vn 0.000000 0.995393 -0.095878
vn 0.000000 0.995393 -0.095878
vn 0.000000 0.923881 -0.382681
vn 0.000000 0.923881 -0.382681
vn 0.000000 0.382681 -0.923881
vn 0.000000 0.382681 -0.923881
vn 0.000000 0.028859 -0.999583
vn 0.000000 0.028859 -0.999583
vn 0.000000 -0.028859 -0.999583
vn 0.000000 -0.028859 -0.999583
vn 0.000000 -0.382681 -0.923881
vn 0.000000 -0.382681 -0.923881
vn 0.000000 -0.923881 -0.382681
vn 0.000000 -0.923881 -0.382681
vn 0.000000 -0.923881 -0.382681
vn 0.000000 -0.923881 -0.382681
vn -1.000000 0.000000 0.000000
vn -1.000000 0.000000 0.000000
vn -1.000000 0.000000 0.000000
vn -1.000000 0.000000 0.000000
vn 1.000000 0.000000 0.000000
vn 1.000000 0.000000 0.000000
vn 1.000000 0.000000 0.000000
vn 1.000000 0.000000 0.000000
vn 1.000000 0.000000 0.000000
vn 1.000000 0.000000 0.000000
vn 1.000000 0.000000 0.000000
vn 1.000000 0.000000 0.000000
vn 1.000000 0.000000 0.000000
vn 1.000000 0.000000 0.000000
vn 1.000000 0.000000 0.000000
vn 1.000000 0.000000 0.000000
vn -1.000000 0.000000 0.000000
vn -1.000000 0.000000 0.000000
vn -1.000000 0.000000 0.000000
vn -1.000000 0.000000 0.000000
vn -1.000000 0.000000 0.000000
vn -1.000000 0.000000 0.000000
vn -1.000000 0.000000 0.000000
vn -1.000000 0.000000 0.000000
vn 0.000000 0.000000 -1.000000
vn 0.000000 0.000000 -1.000000
vn 0.000000 0.000000 -1.000000
vn 0.000000 0.000000 -1.000000
vn 0.000000 -0.923881 -0.382681
vn 0.000000 -0.923881 -0.382681
vn 0.000000 -0.923881 -0.382681
vn 0.000000 -0.923881 -0.382681
vn 0.000000 -0.028859 -0.999583
vn 0.000000 -0.028859 -0.999583
vn 0.000000 -0.382681 -0.923881
vn 0.000000 -0.382681 -0.923881
vn 0.000000 0.028859 -0.999583
vn 0.000000 -0.028859 -0.999583
vn 0.000000 -0.028859 -0.999583
vn 0.000000 0.028859 -0.999583
vn 0.000000 0.382681 -0.923881
vn 0.000000 0.382681 -0.923881
vn 0.000000 0.028859 -0.999583
vn 0.000000 0.028859 -0.999583
vn 0.000000 0.995393 -0.095878
vn 0.000000 0.995393 -0.095878
vn 0.000000 0.923881 -0.382681
vn 0.000000 0.923881 -0.382681
vn 0.000000 1.000000 0.000000
vn 0.000000 0.995393 -0.095878
vn 0.000000 0.995393 -0.095878
vn 0.000000 1.000000 0.000000
vn 0.000000 0.000000 -1.000000
vn 0.000000 0.000000 -1.000000
vn 0.000000 0.000000 -1.000000
vn 0.000000 0.000000 -1.000000
vn 0.000000 0.000000 -1.000000
vn 0.000000 0.000000 -1.000000
vn 0.000000 0.000000 -1.000000
vn 0.000000 0.000000 -1.000000
vn 0.000000 0.000000 -1.000000
vn 0.000000 0.000000 -1.000000
vn 0.000000 0.000000 -1.000000
vn 0.000000 0.000000 -1.000000
vn 0.000000 0.995393 -0.095878
vn 0.000000 0.995393 -0.095878
vn 0.000000 1.000000 0.000000
vn 0.000000 1.000000 0.000000
vn 0.000000 0.995393 -0.095878
vn 0.000000 0.995393 -0.095878
vn 0.000000 0.923881 -0.382681
vn 0.000000 0.923881 -0.382681
vn 0.000000 0.382681 -0.923881
vn 0.000000 0.382681 -0.923881
vn 0.000000 0.028859 -0.999583
vn 0.000000 0.028859 -0.999583
vn 0.000000 -0.028859 -0.999583
vn 0.000000 -0.028859 -0.999583
vn 0.000000 0.028859 -0.999583
vn 0.000000 0.028859 -0.999583
vn 0.000000 -0.028859 -0.999583
vn 0.000000 -0.028859 -0.999583
vn 0.000000 -0.382681 -0.923881
vn 0.000000 -0.382681 -0.923881
vn 0.000000 -0.923881 -0.382681
vn 0.000000 -0.923881 -0.382681
vn 0.000000 -0.923881 -0.382681
vn 0.000000 -0.923881 -0.382681
vn 0.000000 0.000000 -1.000000
vn 0.000000 0.000000 -1.000000
vn 0.000000 0.000000 -1.000000
vn 0.000000 0.000000 -1.000000
vn 0.000000 -0.923881 -0.382681
vn 0.000000 -0.923881 -0.382681
vn 0.000000 -0.923881 -0.382681
vn 0.000000 -0.923881 -0.382681
vn 0.000000 -0.028859 -0.999583
vn 0.000000 -0.028859 -0.999583
vn 0.000000 -0.382681 -0.923881
vn 0.000000 -0.382681 -0.923881
vn 0.000000 -0.028859 -0.999583
vn 0.000000 -0.028859 -0.999583
vn 0.000000 0.028859 -0.999583
vn 0.000000 0.028859 -0.999583
vn 0.000000 0.382681 -0.923881
vn 0.000000 0.382681 -0.923881
vn 0.000000 0.028859 -0.999583
vn 0.000000 0.028859 -0.999583
vn 0.000000 0.995393 -0.095878
vn 0.000000 0.995393 -0.095878
vn 0.000000 0.923881 -0.382681
vn 0.000000 0.923881 -0.382681
vn 0.000000 0.995393 -0.095878
vn 0.000000 0.995393 -0.095878
vn 0.000000 1.000000 0.000000
vn 0.000000 1.000000 0.000000
vn 0.000000 0.000000 -1.000000
vn 0.000000 0.000000 -1.000000
vn 0.000000 0.000000 -1.000000
vn 0.000000 0.000000 -1.000000
vn 0.000000 -1.000000 0.000000
vn 0.000000 -1.000000 0.000000
vn 0.000000 -1.000000 0.000000
vn 0.000000 -1.000000 0.000000
vn 0.667935 0.000000 -0.744219
vn 0.667935 0.000000 -0.744219
vn 0.667935 0.000000 -0.744219
vn 0.667935 0.000000 -0.744219
vn -0.667935 0.000000 -0.744219
vn -0.667935 0.000000 -0.744219
vn -0.667935 0.000000 -0.744219
vn -0.667935 0.000000 -0.744219
vn -0.759526 0.000000 -0.650477
vn -0.759526 0.000000 -0.650477
vn -0.759526 0.000000 -0.650477
vn -0.759526 0.000000 -0.650477
vn 0.000000 -1.000000 0.000000
vn 0.000000 -1.000000 0.000000
vn 0.000000 -1.000000 0.000000
vn 0.000000 -1.000000 0.000000
vn 0.759526 0.000000 -0.650477
vn 0.759526 0.000000 -0.650477
vn 0.759526 0.000000 -0.650477
vn 0.759526 0.000000 -0.650477
vn -0.782483 0.000000 -0.622672
vn -0.782483 0.000000 -0.622672
vn -0.782483 0.000000 -0.622672
vn -0.782483 0.000000 -0.622672
vn 0.000000 -1.000000 0.000000
vn 0.000000 -1.000000 0.000000
vn 0.000000 -1.000000 0.000000
vn 0.000000 -1.000000 0.000000
vn 0.782483 0.000000 -0.622672
vn 0.782483 0.000000 -0.622672
vn 0.782483 0.000000 -0.622672
vn 0.782483 0.000000 -0.622672
vn -0.705904 0.000000 -0.708307
vn -0.705904 0.000000 -0.708307
vn -0.705904 0.000000 -0.708307
vn -0.705904 0.000000 -0.708307
vn 0.000000 -1.000000 0.000000
vn 0.000000 -1.000000 0.000000
vn 0.000000 -1.000000 0.000000
vn 0.000000 -1.000000 0.000000
vn 0.705904 0.000000 -0.708307
vn 0.705904 0.000000 -0.708307
vn 0.705904 0.000000 -0.708307
vn 0.705904 0.000000 -0.708307
vn 0.000000 -1.000000 0.000000
vn 0.000000 -1.000000 0.000000
vn 0.000000 -1.000000 0.000000
vn 0.000000 -1.000000 0.000000
vn 0.000000 -1.000000 0.000000
vn 0.000000 -1.000000 0.000000
vn 0.000000 -1.000000 0.000000
vn 0.000000 -1.000000 0.000000
vn 0.000000 -1.000000 0.000000
vn 0.000000 -1.000000 0.000000
vn 0.000000 -1.000000 0.000000
vn 0.000000 -1.000000 0.000000
vn 0.000000 -1.000000 0.000000
vn 0.000000 -1.000000 0.000000
vn 0.000000 -1.000000 0.000000
vn 0.000000 -1.000000 0.000000
vn 0.000000 -1.000000 0.000000
vn 0.000000 -1.000000 0.000000
vn 0.000000 -1.000000 0.000000
vn 0.000000 -1.000000 0.000000
vn 0.000000 -1.000000 0.000000
vn 0.000000 -1.000000 0.000000
vn 0.000000 -1.000000 0.000000
vn 0.000000 -1.000000 0.000000
vn 0.000000 -1.000000 0.000000
vn 0.000000 -1.000000 0.000000
vn 0.000000 -1.000000 0.000000
vn 0.000000 -1.000000 0.000000
vn 0.000000 -1.000000 0.000000
vn 0.000000 -1.000000 0.000000
vn 0.000000 -1.000000 0.000000
vn 0.000000 -1.000000 0.000000
vn 0.000000 -1.000000 0.000000
vn 0.000000 -1.000000 0.000000
s off
g wall_test_1:Wall_1
usemtl wall_test_1:initialShadingGroup
f 41/1/1 42/2/2 57/3/3 60/4/4
f 5/5/5 40/6/6 186/7/7 151/8/8
f 33/9/9 1/10/10 147/11/11 179/12/12
f 220/13/13 74/14/14 73/15/15 219/16/16
f 221/17/17 75/18/18 76/19/19 222/20/20
f 223/21/21 77/22/22 78/23/23 224/24/24
f 226/25/25 80/26/26 79/27/27 225/28/28
f 3/29/29 39/30/30 40/31/31 5/32/32
f 6/33/33 4/34/34 150/35/35 152/36/36
f 149/37/37 3/38/38 5/39/39 151/40/40
f 35/41/41 36/42/42 7/43/43 14/44/44
f 38/45/45 39/46/46 3/47/47 9/48/48
f 9/48/49 8/49/50 37/50/51 38/45/52
f 8/49/53 7/43/54 36/42/55 37/50/56
f 14/44/57 13/51/58 34/52/59 35/41/60
f 81/53/61 82/54/62 83/55/63 84/56/64
f 13/57/65 14/58/66 7/59/67 8/60/68
f 85/61/69 86/62/70 87/63/71 88/64/72
f 16/65/73 12/66/74 10/67/75 15/68/76
f 89/69/77 90/70/78 91/71/79 92/72/80
f 93/73/81 94/74/82 95/75/83 96/76/84
f 97/77/85 98/78/86 99/79/87 100/80/88
f 69/81/89 47/82/90 48/83/91 71/84/92
f 101/85/93 102/86/94 103/87/95 104/88/96
f 31/89/97 32/90/98 16/91/99 15/92/100
f 10/93/101 30/94/102 31/89/103 15/92/104
f 29/95/105 30/94/106 10/93/107 12/96/108
f 28/97/109 29/95/110 12/96/111 11/98/112
f 4/99/113 27/100/114 28/97/115 11/98/116
f 26/101/117 27/102/118 4/103/119 6/104/120
f 26/105/121 6/106/122 152/107/123 172/108/124
f 148/109/125 2/110/126 25/111/127 171/112/128
f 65/113/129 45/114/130 46/115/131 67/116/132
f 25/111/133 17/117/134 163/118/135 171/112/136
f 24/119/137 26/105/138 172/108/139 170/120/140
f 24/121/141 23/122/142 27/102/143 26/101/144
f 28/97/145 27/100/146 23/123/147 22/124/148
f 22/124/149 21/125/150 29/95/151 28/97/152
f 21/125/153 20/126/154 30/94/155 29/95/156
f 31/89/157 30/94/158 20/126/159 19/127/160
f 19/127/161 18/128/162 32/90/163 31/89/164
f 105/129/165 106/130/166 107/131/167 108/132/168
f 61/133/169 43/134/170 44/135/171 63/136/172
f 109/137/173 110/138/174 111/139/175 112/140/176
f 35/41/177 34/52/178 18/128/179 19/127/180
f 19/127/181 20/126/182 36/42/183 35/41/184
f 37/50/185 36/42/186 20/126/187 21/125/188
f 38/45/189 37/50/190 21/125/191 22/124/192
f 22/124/193 23/123/194 39/46/195 38/45/196
f 40/31/197 39/30/198 23/122/199 24/121/200
f 40/6/201 24/119/202 170/120/203 186/7/204
f 17/117/205 33/9/206 179/12/207 163/118/208
f 1/10/209 33/9/210 42/141/211 41/142/212
f 33/143/213 56/144/214 58/145/215 42/146/216
f 49/147/217 1/148/218 41/149/219 59/150/220
f 55/151/221 33/152/222 43/153/223 62/154/224
f 33/9/225 17/117/226 44/155/227 43/156/228
f 17/157/229 52/158/230 64/159/231 44/160/232
f 51/161/233 17/162/234 45/163/235 66/164/236
f 17/117/237 25/111/238 46/165/239 45/166/240
f 25/167/241 54/168/242 68/169/243 46/170/244
f 53/171/245 25/172/246 47/173/247 70/174/248
f 25/111/249 2/110/250 48/175/251 47/176/252
f 2/177/253 50/178/254 72/179/255 48/180/256
f 113/181/257 114/182/258 115/183/259 116/184/260
f 117/185/261 118/186/262 119/187/263 120/188/264
f 121/189/265 122/190/266 123/191/267 124/192/268
f 125/193/269 126/194/270 127/195/271 128/196/272
f 129/197/273 130/198/274 131/199/275
f 132/200/276 133/201/277 134/202/278 135/203/279
f 136/204/280 137/205/281 138/206/282 139/207/283
f 140/208/284 141/209/285 142/210/286 143/211/287
f 144/212/288 145/213/289 146/214/290
f 187/215/291 206/216/292 203/217/293 188/218/294
f 149/219/295 151/220/296 186/221/297 185/222/298
f 181/223/299 160/224/300 153/225/301 182/226/302
f 184/227/303 155/228/304 149/229/305 185/230/306
f 155/228/307 184/227/308 183/231/309 154/232/310
f 154/232/311 183/231/312 182/226/313 153/225/314
f 160/224/315 181/223/316 180/233/317 159/234/318
f 227/235/319 230/236/320 229/237/321 228/238/322
f 159/239/323 154/240/324 153/241/325 160/242/326
f 231/243/327 234/244/328 233/245/329 232/246/330
f 162/247/331 161/248/332 156/249/333 158/250/334
f 235/251/335 238/252/336 237/253/337 236/254/338
f 239/255/339 242/256/340 241/257/341 240/258/342
f 243/259/343 246/260/344 245/261/345 244/262/346
f 215/263/347 217/264/348 194/265/349 193/266/350
f 247/267/351 250/268/352 249/269/353 248/270/354
f 177/271/355 161/272/356 162/273/357 178/274/358
f 156/275/359 161/272/360 177/271/361 176/276/362
f 175/277/363 158/278/364 156/275/365 176/276/366
f 174/279/367 157/280/368 158/278/369 175/277/370
f 150/281/371 157/280/372 174/279/373 173/282/374
f 172/283/375 152/284/376 150/285/377 173/286/378
f 211/287/379 213/288/380 192/289/381 191/290/382
f 170/291/383 172/283/384 173/286/385 169/292/386
f 174/279/387 168/293/388 169/294/389 173/282/390
f 168/293/391 174/279/392 175/277/393 167/295/394
f 167/295/395 175/277/396 176/276/397 166/296/398
f 177/271/399 165/297/400 166/296/401 176/276/402
f 165/297/403 177/271/404 178/274/405 164/298/406
f 251/299/407 254/300/408 253/301/409 252/302/410
f 207/303/411 209/304/412 190/305/413 189/306/414
f 255/307/415 258/308/416 257/309/417 256/310/418
f 181/223/419 165/297/420 164/298/421 180/233/422
f 165/297/423 181/223/424 182/226/425 166/296/426
f 183/231/427 167/295/428 166/296/429 182/226/430
f 184/227/431 168/293/432 167/295/433 183/231/434
f 168/293/435 184/227/436 185/230/437 169/294/438
f 186/221/439 170/291/440 169/292/441 185/222/442
f 147/11/443 187/311/444 188/312/445 179/12/446
f 179/313/447 188/314/448 204/315/449 202/316/450
f 195/317/451 205/318/452 187/319/453 147/320/454
f 201/321/455 208/322/456 189/323/457 179/324/458
f 179/12/459 189/325/460 190/326/461 163/118/462
f 163/327/463 190/328/464 210/329/465 198/330/466
f 197/331/467 212/332/468 191/333/469 163/334/470
f 163/118/471 191/335/472 192/336/473 171/112/474
f 171/337/475 192/338/476 214/339/477 200/340/478
f 199/341/479 216/342/480 193/343/481 171/344/482
f 171/112/483 193/345/484 194/346/485 148/109/486
f 148/347/487 194/348/488 218/349/489 196/350/490
f 259/351/491 262/352/492 261/353/493 260/354/494
f 263/355/495 266/356/496 265/357/497 264/358/498
f 267/359/499 270/360/500 269/361/501 268/362/502
f 271/363/503 274/364/504 273/365/505 272/366/506
f 275/367/507 277/368/508 276/369/509
f 278/370/510 281/371/511 280/372/512 279/373/513
f 282/374/514 285/375/515 284/376/516 283/377/517
f 286/378/518 289/379/519 288/380/520 287/381/521
f 290/382/522 292/383/523 291/384/524
