# This file uses centimeters as units for non-parametric coordinates.

mtllib holdie cardboard.mtl
g default
v -0.405862 0.026979 0.259803
v -0.405862 0.034709 0.259803
v -0.405862 0.055927 -0.380351
v -0.405862 0.005761 -0.380351
v -0.405862 0.055927 0.222377
v -0.405862 0.005761 0.222378
v -0.405862 0.054662 0.235856
v -0.405862 0.007026 0.235856
v -0.405862 0.051440 0.246332
v -0.405862 0.010248 0.246332
v -0.405862 0.044202 0.255194
v -0.405862 0.017486 0.255194
v -0.405862 0.051444 -0.392040
v -0.405862 0.010244 -0.392040
v -0.415590 0.043346 0.248163
v -0.415590 0.018342 0.248163
v -0.415590 0.027227 0.252670
v -0.415590 0.034461 0.252670
v -0.415590 0.010817 -0.377451
v -0.415590 0.007368 0.216064
v -0.415590 0.054320 0.216064
v -0.415590 0.052097 -0.377569
v -0.415590 0.008552 0.229248
v -0.415590 0.053136 0.229248
v -0.415590 0.011567 0.239494
v -0.415590 0.050121 0.239494
v -0.413537 0.051846 -0.386748
v -0.413537 0.010819 -0.385718
v 0.405862 0.026979 0.259803
v 0.405862 0.034709 0.259803
v 0.405862 0.055927 -0.380351
v 0.405862 0.005761 -0.380351
v 0.405862 0.055927 0.222377
v 0.405862 0.005761 0.222378
v 0.405862 0.054662 0.235856
v 0.405862 0.007026 0.235856
v 0.405862 0.051440 0.246332
v 0.405862 0.010248 0.246332
v 0.405862 0.044202 0.255194
v 0.405862 0.017486 0.255194
v 0.405862 0.051444 -0.392040
v 0.405862 0.010244 -0.392040
v 0.415590 0.043346 0.248163
v 0.415590 0.018342 0.248163
v 0.415590 0.027227 0.252670
v 0.415590 0.034461 0.252670
v 0.415590 0.010817 -0.377451
v 0.415590 0.007368 0.216064
v 0.415590 0.054320 0.216064
v 0.415590 0.052097 -0.377569
v 0.415590 0.008552 0.229248
v 0.415590 0.053136 0.229248
v 0.415590 0.011567 0.239494
v 0.415590 0.050121 0.239494
v 0.413537 0.051846 -0.386748
v 0.413537 0.010819 -0.385718
vt 0.069249 0.006823
vt 0.079576 0.006823
vt 0.039443 0.569838
vt 0.079576 0.990480
vt 0.069249 0.990480
vt 0.966039 0.006823
vt 0.966039 0.990480
vt 0.041029 0.006823
vt 0.096071 0.006823
vt 0.096071 0.990480
vt 0.041029 0.990480
vt 0.093673 0.006823
vt 0.928248 0.565925
vt 0.093673 0.990480
vt 0.927813 0.467169
vt 0.141689 0.006823
vt 0.024304 0.006823
vt 0.039027 0.475376
vt 0.966835 0.552874
vt 0.966514 0.479880
vt 0.983745 0.492686
vt 0.983953 0.539917
vt 0.949698 0.561537
vt 0.949301 0.471368
vt 0.988115 0.509842
vt 0.988171 0.522723
vt 0.017917 0.557052
vt 0.017615 0.488352
vt 0.966608 0.501349
vt 0.970958 0.514211
vt 0.970996 0.522799
vt 0.966759 0.535699
vt 0.043396 0.492532
vt 0.919301 0.484382
vt 0.919604 0.553082
vt 0.043661 0.552645
vt 0.936476 0.484306
vt 0.936760 0.548713
vt 0.953670 0.488525
vt 0.953916 0.544343
vt 0.030780 0.552701
vt 0.030515 0.492589
vt 0.024304 0.990480
vt 0.141689 0.990480
vt 0.112796 0.006823
vt 0.017615 0.488352
vt 0.017917 0.557052
vt 0.918020 0.006823
vt 0.966608 0.501349
vt 0.966759 0.535699
vt 0.970996 0.522799
vt 0.970958 0.514212
vt 0.043661 0.552645
vt 0.919604 0.553082
vt 0.919301 0.484382
vt 0.043396 0.492532
vt 0.918020 0.990480
vt 0.112796 0.990480
vt 0.123603 0.006823
vt 0.123603 0.990480
vt 0.936760 0.548713
vt 0.936476 0.484306
vt 0.936107 0.006823
vt 0.936107 0.990480
vt 0.108960 0.006823
vt 0.108960 0.990480
vt 0.953916 0.544343
vt 0.953670 0.488525
vt 0.950751 0.006823
vt 0.950751 0.990480
vt 0.039027 0.475376
vt 0.030515 0.492589
vt 0.030780 0.552701
vt 0.983953 0.539917
vt 0.988171 0.522723
vt 0.988115 0.509842
vt 0.983745 0.492686
vt 0.039443 0.569838
vt 0.928248 0.565925
vt 0.927814 0.467169
vt 0.949698 0.561537
vt 0.949301 0.471369
vt 0.966835 0.552874
vt 0.966514 0.479880
vt 0.946917 0.990480
vt 0.946917 0.006823
vt 0.980137 0.990480
vt 0.980137 0.006823
vn -0.008366 0.258977 0.965847
vn -0.008366 -0.258974 0.965848
vn 0.008366 -0.258974 0.965848
vn 0.008366 0.258977 0.965847
vn -0.006772 0.628166 0.778050
vn 0.006772 0.628166 0.778050
vn -0.004060 -0.248185 -0.968704
vn -0.008548 0.245637 -0.969324
vn 0.008548 0.245637 -0.969324
vn 0.004060 -0.248185 -0.968704
vn -0.006772 -0.628162 0.778053
vn 0.006772 -0.628162 0.778053
vn -0.956603 0.159818 0.243657
vn -0.956603 -0.159815 0.243658
vn -0.847370 -0.118625 0.517583
vn -0.847369 0.118628 0.517583
vn -0.981861 -0.189570 -0.003489
vn -0.967101 -0.254394 -0.000162
vn -0.967806 0.251697 0.000099
vn -0.979828 0.199825 -0.002827
vn -0.003276 -0.999993 0.002021
vn -0.003840 -0.999966 -0.007251
vn 0.003840 -0.999966 -0.007251
vn 0.003276 -0.999993 0.002021
vn -0.003111 0.999969 -0.007240
vn -0.002681 0.999994 0.002030
vn 0.002681 0.999994 0.002030
vn 0.003111 0.999969 -0.007240
vn -0.973458 -0.223245 0.050401
vn -0.973458 0.223246 0.050402
vn -0.002666 -0.983010 0.183533
vn 0.002666 -0.983010 0.183533
vn -0.002666 0.983010 0.183532
vn 0.002666 0.983010 0.183532
vn -0.971386 -0.197230 0.132324
vn -0.971386 0.197231 0.132324
vn -0.004292 -0.880217 0.474551
vn 0.004292 -0.880217 0.474551
vn -0.004292 0.880217 0.474551
vn 0.004292 0.880217 0.474551
vn -0.873297 0.124014 -0.471141
vn -0.795968 -0.073062 -0.600914
vn 0.956603 0.159818 0.243657
vn 0.847369 0.118628 0.517584
vn 0.847369 -0.118625 0.517584
vn 0.956603 -0.159815 0.243658
vn 0.981861 -0.189570 -0.003489
vn 0.979828 0.199825 -0.002827
vn 0.967806 0.251697 0.000099
vn 0.967101 -0.254393 -0.000162
vn 0.973458 0.223246 0.050402
vn 0.973459 -0.223244 0.050401
vn 0.971386 0.197231 0.132324
vn 0.971386 -0.197230 0.132324
vn 0.795968 -0.073062 -0.600913
vn 0.873297 0.124014 -0.471141
s 1
g holdie_cardboard
usemtl initialShadingGroup
f 2/1/1 1/2/2 29/4/3 30/5/4
f 11/6/5 2/88/1 30/87/4 39/7/6
f 14/8/7 13/9/8 41/10/9 42/11/10
f 1/2/2 12/12/11 40/14/12 29/4/3
f 15/32/13 16/29/14 17/30/15 18/31/16
f 19/33/17 20/34/18 21/35/19 22/36/20
f 6/16/21 4/86/22 32/85/23 34/44/24
f 3/45/25 5/48/26 33/57/27 31/58/28
f 21/35/19 20/34/18 23/37/29 24/38/30
f 8/59/31 6/16/21 34/44/24 36/60/32
f 5/48/26 7/63/33 35/64/34 33/57/27
f 24/38/30 23/37/29 25/39/35 26/40/36
f 10/65/37 8/59/31 36/60/32 38/66/38
f 7/63/33 9/69/39 37/70/40 35/64/34
f 26/40/36 25/39/35 16/29/14 15/32/13
f 12/12/11 10/65/37 38/66/38 40/14/12
f 9/69/39 11/6/5 39/7/6 37/70/40
f 13/9/8 3/45/25 31/58/28 41/10/9
f 19/33/17 22/36/20 27/41/41 28/42/42
f 12/21/11 1/25/2 17/30/15 16/29/14
f 1/25/2 2/26/1 18/31/16 17/30/15
f 2/26/1 11/22/5 15/32/13 18/31/16
f 4/18/22 6/15/21 20/34/18 19/33/17
f 5/13/26 3/3/25 22/36/20 21/35/19
f 6/15/21 8/24/31 23/37/29 20/34/18
f 7/23/33 5/13/26 21/35/19 24/38/30
f 8/24/31 10/20/37 25/39/35 23/37/29
f 9/19/39 7/23/33 24/38/30 26/40/36
f 10/20/37 12/21/11 16/29/14 25/39/35
f 11/22/5 9/19/39 26/40/36 15/32/13
f 3/3/25 27/41/41 22/36/20
f 13/27/8 14/28/7 28/42/42 27/41/41
f 28/42/42 4/18/22 19/33/17
f 3/3/25 13/27/8 27/41/41
f 14/28/7 4/18/22 28/42/42
f 43/49/43 46/52/44 45/51/45 44/50/46
f 47/53/47 50/56/48 49/55/49 48/54/50
f 49/55/49 52/62/51 51/61/52 48/54/50
f 52/62/51 54/68/53 53/67/54 51/61/52
f 54/68/53 43/49/43 44/50/46 53/67/54
f 47/53/47 56/73/55 55/72/56 50/56/48
f 40/74/12 44/50/46 45/51/45 29/75/3
f 29/75/3 45/51/45 46/52/44 30/76/4
f 30/76/4 46/52/44 43/49/43 39/77/6
f 32/78/23 47/53/47 48/54/50 34/79/24
f 33/80/27 49/55/49 50/56/48 31/71/28
f 34/79/24 48/54/50 51/61/52 36/81/32
f 35/82/34 52/62/51 49/55/49 33/80/27
f 36/81/32 51/61/52 53/67/54 38/83/38
f 37/84/40 54/68/53 52/62/51 35/82/34
f 38/83/38 53/67/54 44/50/46 40/74/12
f 39/77/6 43/49/43 54/68/53 37/84/40
f 31/71/28 50/56/48 55/72/56
f 41/46/9 55/72/56 56/73/55 42/47/10
f 56/73/55 47/53/47 32/78/23
f 31/71/28 55/72/56 41/46/9
f 42/47/10 56/73/55 32/78/23
f 14/8/7 42/11/10 32/43/23 4/17/22
