# This file uses centimeters as units for non-parametric coordinates.

mtllib boardgame floor.mtl
g default
v -1.000000 -0.053273 1.000000
v 1.000000 -0.053273 1.000000
v -1.000000 0.009587 1.000000
v 1.000000 0.009587 1.000000
v -1.000000 0.009587 -1.000000
v 1.000000 0.009587 -1.000000
v -1.000000 -0.053273 -1.000000
v 1.000000 -0.053273 -1.000000
v 0.000000 -0.053273 1.000000
v 0.000000 0.009587 1.000000
v 0.000000 0.009587 -1.000000
v 0.000000 -0.053273 -1.000000
v -1.000000 0.009587 0.000000
v -1.000000 -0.053273 0.000000
v 0.000000 -0.053273 0.000000
v 1.000000 -0.053273 0.000000
v 1.000000 0.009587 0.000000
v 0.000000 0.009587 0.000000
vt 0.007812 0.039062
vt 0.500000 0.039062
vt 0.500000 0.007812
vt 0.992188 0.007812
vt 0.992188 0.007812
vt 0.500000 0.039062
vt 0.500000 0.007812
vt 0.992188 0.007812
vt 0.003906 0.050781
vt 0.992188 0.050781
vt 0.007812 0.039062
vt 0.500000 0.039062
vt 0.500000 0.007812
vt 0.992188 0.007812
vt 0.500000 0.007812
vt 0.500000 0.050781
vt 0.500000 0.039062
vt 0.007812 0.039062
vt 0.003906 0.050781
vt 0.003906 0.519531
vt 0.992188 0.050781
vt 0.003906 0.519531
vt 0.500000 0.519531
vt 0.992188 0.519531
vt 0.500000 0.050781
vt 0.992188 0.519531
vt 0.003906 0.992188
vt 0.500000 0.519531
vt 0.500000 0.992188
vt 0.003906 0.992188
vt 0.992188 0.992188
vt 0.500000 0.992188
vt 0.992188 0.992188
vt 0.007812 0.039062
vt 0.007812 0.007812
vt 0.992188 0.039062
vt 0.992188 0.039062
vt 0.992188 0.039062
vt 0.007812 0.007812
vt 0.007812 0.007812
vt 0.992188 0.039062
vt 0.007812 0.007812
vn 0.000000 0.000000 1.000000
vn 0.000000 0.000000 1.000000
vn 0.000000 0.000000 1.000000
vn 0.000000 0.000000 1.000000
vn 0.000000 1.000000 0.000000
vn 0.000000 1.000000 0.000000
vn 0.000000 1.000000 0.000000
vn 0.000000 1.000000 0.000000
vn 0.000000 0.000000 -1.000000
vn 0.000000 0.000000 -1.000000
vn 0.000000 0.000000 -1.000000
vn 0.000000 0.000000 -1.000000
vn 0.000000 -1.000000 0.000000
vn 0.000000 -1.000000 0.000000
vn 0.000000 -1.000000 0.000000
vn 0.000000 -1.000000 0.000000
vn 1.000000 0.000000 0.000000
vn 1.000000 0.000000 0.000000
vn 1.000000 0.000000 0.000000
vn 1.000000 0.000000 0.000000
vn -1.000000 0.000000 0.000000
vn -1.000000 0.000000 0.000000
vn -1.000000 0.000000 0.000000
vn -1.000000 0.000000 0.000000
vn 0.000000 0.000000 1.000000
vn 0.000000 0.000000 1.000000
vn 0.000000 1.000000 0.000000
vn 0.000000 1.000000 0.000000
vn 0.000000 0.000000 -1.000000
vn 0.000000 0.000000 -1.000000
vn 0.000000 -1.000000 0.000000
vn 0.000000 -1.000000 0.000000
vn -1.000000 0.000000 0.000000
vn -1.000000 0.000000 0.000000
vn 0.000000 -1.000000 0.000000
vn 0.000000 -1.000000 0.000000
vn 0.000000 -1.000000 0.000000
vn 1.000000 0.000000 0.000000
vn 1.000000 0.000000 0.000000
vn 0.000000 1.000000 0.000000
vn 0.000000 1.000000 0.000000
vn 0.000000 1.000000 0.000000
s 1
g pCube7
usemtl initialShadingGroup
f 1/37/1 9/2/2 10/3/3 3/4/4
s 2
f 3/19/5 10/25/6 18/28/7 13/20/8
s 3
f 5/38/9 11/6/10 12/7/11 7/8/12
s 4
f 14/22/13 15/23/14 9/16/15 1/9/16
s 5
f 2/36/17 16/12/18 17/13/19 4/14/20
s 6
f 13/15/21 14/17/22 1/1/23 3/42/24
s 1
f 10/3/3 9/2/2 2/11/25 4/40/26
s 2
f 17/26/27 18/28/7 10/25/6 4/21/28
s 3
f 12/7/11 11/6/10 6/18/29 8/39/30
s 4
f 9/16/15 15/23/14 16/24/31 2/10/32
s 6
f 7/41/33 14/17/22 13/15/21 5/5/34
s 4
f 7/27/35 12/32/36 15/23/14 14/22/13
f 16/24/31 15/23/14 12/32/36 8/33/37
s 5
f 17/13/19 16/12/18 8/34/38 6/35/39
s 2
f 11/29/40 18/28/7 17/26/27 6/31/41
f 13/20/8 18/28/7 11/29/40 5/30/42
