# This file uses centimeters as units for non-parametric coordinates.

mtllib cardboard_piece.mtl
g default
v -0.500000 -0.500000 -0.000002
v 0.500000 -0.500000 -0.000002
v -0.500000 0.500000 -0.000002
v 0.500000 0.500000 -0.000002
v -0.500000 0.500000 0.000002
v 0.500000 0.500000 0.000002
v -0.500000 -0.500000 0.000002
v 0.500000 -0.500000 0.000002
v -0.500000 -0.500000 0.018476
v 0.500000 -0.500000 0.018476
v -0.500000 0.500000 0.018476
v 0.500000 0.500000 0.018476
v -0.500000 0.500000 0.018480
v 0.500000 0.500000 0.018480
v -0.500000 -0.500000 0.018480
v 0.500000 -0.500000 0.018480
v -0.500000 -0.500000 0.004617
v 0.500000 -0.500000 0.004617
v -0.500000 0.500000 0.004617
v 0.500000 0.500000 0.004617
v -0.500000 0.500000 0.004622
v 0.500000 0.500000 0.004622
v -0.500000 -0.500000 0.004622
v 0.500000 -0.500000 0.004622
v -0.500000 -0.500000 -0.013860
v 0.500000 -0.500000 -0.013860
v -0.500000 0.500000 -0.013860
v 0.500000 0.500000 -0.013860
v -0.500000 0.500000 -0.013856
v 0.500000 0.500000 -0.013856
v -0.500000 -0.500000 -0.013856
v 0.500000 -0.500000 -0.013856
v -0.500000 -0.500000 -0.004622
v 0.500000 -0.500000 -0.004622
v -0.500000 0.500000 -0.004622
v 0.500000 0.500000 -0.004622
v -0.500000 0.500000 -0.004617
v 0.500000 0.500000 -0.004617
v -0.500000 -0.500000 -0.004617
v 0.500000 -0.500000 -0.004617
v -0.500000 -0.500000 -0.009241
v 0.500000 -0.500000 -0.009241
v -0.500000 0.500000 -0.009241
v 0.500000 0.500000 -0.009241
v -0.500000 0.500000 -0.009237
v 0.500000 0.500000 -0.009237
v -0.500000 -0.500000 -0.009237
v 0.500000 -0.500000 -0.009237
v -0.500000 -0.500000 0.013856
v 0.500000 -0.500000 0.013856
v -0.500000 0.500000 0.013856
v 0.500000 0.500000 0.013856
v -0.500000 0.500000 0.013860
v 0.500000 0.500000 0.013860
v -0.500000 -0.500000 0.013860
v 0.500000 -0.500000 0.013860
v -0.500000 -0.500000 -0.018480
v 0.500000 -0.500000 -0.018480
v -0.500000 0.500000 -0.018480
v 0.500000 0.500000 -0.018480
v -0.500000 0.500000 -0.018476
v 0.500000 0.500000 -0.018476
v -0.500000 -0.500000 -0.018476
v 0.500000 -0.500000 -0.018476
v -0.500000 -0.500000 0.009237
v 0.500000 -0.500000 0.009237
v -0.500000 0.500000 0.009237
v 0.500000 0.500000 0.009237
v -0.500000 0.500000 0.009241
v 0.500000 0.500000 0.009241
v -0.500000 -0.500000 0.009241
v 0.500000 -0.500000 0.009241
vt 0.500011 0.002190
vt 0.997453 0.002190
vt 0.500011 0.997287
vt 0.997453 0.997287
vt 0.500011 0.997287
vt 0.997453 0.997287
vt 0.500011 0.002190
vt 0.997453 0.002190
vt 0.500011 0.002190
vt 0.997453 0.002190
vt 0.997453 0.997287
vt 0.500011 0.997287
vt 0.003975 0.997287
vt 0.500011 0.997287
vt 0.500011 0.002190
vt 0.003975 0.002190
vt 0.500011 0.002190
vt 0.997453 0.002190
vt 0.997453 0.997287
vt 0.500011 0.997287
vt 0.500011 0.997287
vt 0.997453 0.997287
vt 0.997453 0.002190
vt 0.500011 0.002190
vt 0.500011 0.002190
vt 0.997453 0.002190
vt 0.997453 0.997287
vt 0.500011 0.997287
vt 0.500011 0.997287
vt 0.997453 0.997287
vt 0.997453 0.002190
vt 0.500011 0.002190
vt 0.500011 0.002190
vt 0.997453 0.002190
vt 0.997453 0.997287
vt 0.500011 0.997287
vt 0.500011 0.997287
vt 0.997453 0.997287
vt 0.997453 0.002190
vt 0.500011 0.002190
vt 0.500011 0.002190
vt 0.997453 0.002190
vt 0.997453 0.997287
vt 0.500011 0.997287
vt 0.500011 0.997287
vt 0.997453 0.997287
vt 0.997453 0.002190
vt 0.500011 0.002190
vt 0.500011 0.002190
vt 0.997453 0.002190
vt 0.997453 0.997287
vt 0.500011 0.997287
vt 0.500011 0.997287
vt 0.997453 0.997287
vt 0.997453 0.002190
vt 0.500011 0.002190
vt 0.003975 0.002190
vt 0.500011 0.002190
vt 0.500011 0.997287
vt 0.003975 0.997287
vt 0.500011 0.997287
vt 0.997453 0.997287
vt 0.997453 0.002190
vt 0.500011 0.002190
vt 0.500011 0.002190
vt 0.997453 0.002190
vt 0.997453 0.997287
vt 0.500011 0.997287
vt 0.500011 0.997287
vt 0.997453 0.997287
vt 0.997453 0.002190
vt 0.500011 0.002190
vn 0.000000 0.000000 -1.000000
vn 0.000000 0.000000 -1.000000
vn 0.000000 0.000000 -1.000000
vn 0.000000 0.000000 -1.000000
vn 0.000000 0.000000 1.000000
vn 0.000000 0.000000 1.000000
vn 0.000000 0.000000 1.000000
vn 0.000000 0.000000 1.000000
vn 0.000000 0.000000 -1.000000
vn 0.000000 0.000000 -1.000000
vn 0.000000 0.000000 -1.000000
vn 0.000000 0.000000 -1.000000
vn 0.000000 0.000000 1.000000
vn 0.000000 0.000000 1.000000
vn 0.000000 0.000000 1.000000
vn 0.000000 0.000000 1.000000
vn 0.000000 0.000000 -1.000000
vn 0.000000 0.000000 -1.000000
vn 0.000000 0.000000 -1.000000
vn 0.000000 0.000000 -1.000000
vn 0.000000 0.000000 1.000000
vn 0.000000 0.000000 1.000000
vn 0.000000 0.000000 1.000000
vn 0.000000 0.000000 1.000000
vn 0.000000 0.000000 -1.000000
vn 0.000000 0.000000 -1.000000
vn 0.000000 0.000000 -1.000000
vn 0.000000 0.000000 -1.000000
vn 0.000000 0.000000 1.000000
vn 0.000000 0.000000 1.000000
vn 0.000000 0.000000 1.000000
vn 0.000000 0.000000 1.000000
vn 0.000000 0.000000 -1.000000
vn 0.000000 0.000000 -1.000000
vn 0.000000 0.000000 -1.000000
vn 0.000000 0.000000 -1.000000
vn 0.000000 0.000000 1.000000
vn 0.000000 0.000000 1.000000
vn 0.000000 0.000000 1.000000
vn 0.000000 0.000000 1.000000
vn 0.000000 0.000000 -1.000000
vn 0.000000 0.000000 -1.000000
vn 0.000000 0.000000 -1.000000
vn 0.000000 0.000000 -1.000000
vn 0.000000 0.000000 1.000000
vn 0.000000 0.000000 1.000000
vn 0.000000 0.000000 1.000000
vn 0.000000 0.000000 1.000000
vn 0.000000 0.000000 -1.000000
vn 0.000000 0.000000 -1.000000
vn 0.000000 0.000000 -1.000000
vn 0.000000 0.000000 -1.000000
vn 0.000000 0.000000 1.000000
vn 0.000000 0.000000 1.000000
vn 0.000000 0.000000 1.000000
vn 0.000000 0.000000 1.000000
vn 0.000000 0.000000 -1.000000
vn 0.000000 0.000000 -1.000000
vn 0.000000 0.000000 -1.000000
vn 0.000000 0.000000 -1.000000
vn 0.000000 0.000000 1.000000
vn 0.000000 0.000000 1.000000
vn 0.000000 0.000000 1.000000
vn 0.000000 0.000000 1.000000
vn 0.000000 0.000000 -1.000000
vn 0.000000 0.000000 -1.000000
vn 0.000000 0.000000 -1.000000
vn 0.000000 0.000000 -1.000000
vn 0.000000 0.000000 1.000000
vn 0.000000 0.000000 1.000000
vn 0.000000 0.000000 1.000000
vn 0.000000 0.000000 1.000000
s off
g cardboard_piece
usemtl lambert4SG
f 1/1/1 3/3/2 4/4/3 2/2/4
f 5/5/5 7/7/6 8/8/7 6/6/8
f 9/9/9 11/12/10 12/11/11 10/10/12
f 13/13/13 15/16/14 16/15/15 14/14/16
f 17/17/17 19/20/18 20/19/19 18/18/20
f 21/21/21 23/24/22 24/23/23 22/22/24
f 25/25/25 27/28/26 28/27/27 26/26/28
f 29/29/29 31/32/30 32/31/31 30/30/32
f 33/33/33 35/36/34 36/35/35 34/34/36
f 37/37/37 39/40/38 40/39/39 38/38/40
f 41/41/41 43/44/42 44/43/43 42/42/44
f 45/45/45 47/48/46 48/47/47 46/46/48
f 49/49/49 51/52/50 52/51/51 50/50/52
f 53/53/53 55/56/54 56/55/55 54/54/56
f 57/57/57 59/60/58 60/59/59 58/58/60
f 61/61/61 63/64/62 64/63/63 62/62/64
f 65/65/65 67/68/66 68/67/67 66/66/68
f 69/69/69 71/72/70 72/71/71 70/70/72
