# This file uses centimeters as units for non-parametric coordinates.

mtllib cardboard_holder_flatter.mtl
g default
v 0.000000 -0.001217 0.000000
v 0.000000 0.170420 0.000000
v 0.416840 -0.001217 -0.088602
v 0.427431 0.003243 -0.090853
v 0.431818 0.014012 -0.091786
v 0.389309 -0.001217 -0.173332
v 0.399201 0.003243 -0.177736
v 0.403299 0.014012 -0.179560
v 0.344764 -0.001217 -0.250486
v 0.353524 0.003243 -0.256850
v 0.357153 0.014012 -0.259487
v 0.285151 -0.001217 -0.316693
v 0.292397 0.003243 -0.324739
v 0.295398 0.014012 -0.328073
v 0.213076 -0.001217 -0.369058
v 0.218490 0.003243 -0.378436
v 0.220733 0.014012 -0.382320
v 0.131688 -0.001217 -0.405295
v 0.135034 0.003243 -0.415593
v 0.136420 0.014012 -0.419858
v 0.044545 -0.001217 -0.423817
v 0.045677 0.003243 -0.434586
v 0.046146 0.014012 -0.439047
v -0.044545 -0.001217 -0.423817
v -0.045677 0.003243 -0.434586
v -0.046146 0.014012 -0.439047
v -0.131688 -0.001217 -0.405295
v -0.135034 0.003243 -0.415593
v -0.136420 0.014012 -0.419858
v -0.213076 -0.001217 -0.369058
v -0.218490 0.003243 -0.378436
v -0.220733 0.014012 -0.382320
v -0.285151 -0.001217 -0.316693
v -0.292397 0.003243 -0.324740
v -0.295398 0.014012 -0.328073
v -0.344764 -0.001217 -0.250486
v -0.353524 0.003243 -0.256850
v -0.357153 0.014012 -0.259487
v -0.389309 -0.001217 -0.173332
v -0.399201 0.003243 -0.177736
v -0.403298 0.014012 -0.179560
v -0.416839 -0.001217 -0.088602
v -0.427431 0.003243 -0.090853
v -0.431818 0.014012 -0.091786
v -0.426152 -0.001217 -0.000000
v -0.436980 0.003243 -0.000000
v -0.441465 0.014012 -0.000000
v -0.416839 -0.001217 0.088602
v -0.427431 0.003243 0.090853
v -0.431818 0.014012 0.091786
v -0.389309 -0.001217 0.173332
v -0.399201 0.003243 0.177736
v -0.403298 0.014012 0.179560
v -0.344764 -0.001217 0.250486
v -0.353524 0.003243 0.256850
v -0.357153 0.014012 0.259487
v -0.285151 -0.001217 0.316692
v -0.292397 0.003243 0.324739
v -0.295398 0.014012 0.328072
v -0.213076 -0.001217 0.369058
v -0.218490 0.003243 0.378436
v -0.220733 0.014012 0.382320
v -0.131688 -0.001217 0.405294
v -0.135034 0.003243 0.415593
v -0.136420 0.014012 0.419858
v -0.044545 -0.001217 0.423817
v -0.045677 0.003243 0.434586
v -0.046146 0.014012 0.439047
v 0.044545 -0.001217 0.423817
v 0.045677 0.003243 0.434586
v 0.046146 0.014012 0.439047
v 0.131688 -0.001217 0.405294
v 0.135034 0.003243 0.415593
v 0.136420 0.014012 0.419858
v 0.213076 -0.001217 0.369058
v 0.218490 0.003243 0.378436
v 0.220732 0.014012 0.382320
v 0.285151 -0.001217 0.316692
v 0.292397 0.003243 0.324739
v 0.295398 0.014012 0.328072
v 0.344764 -0.001217 0.250486
v 0.353524 0.003243 0.256850
v 0.357153 0.014012 0.259487
v 0.389309 -0.001217 0.173331
v 0.399201 0.003243 0.177736
v 0.403298 0.014012 0.179560
v 0.416839 -0.001217 0.088602
v 0.427431 0.003243 0.090853
v 0.431818 0.014012 0.091786
v 0.426152 -0.001217 -0.000000
v 0.436980 0.003243 -0.000000
v 0.441465 0.014012 0.000000
v 0.375067 0.162178 -0.079723
v 0.366088 0.168278 -0.077815
v 0.355496 0.170420 -0.075563
v 0.383446 0.162178 -0.000000
v 0.374266 0.168278 -0.000000
v 0.363438 0.170420 -0.000000
v 0.423712 0.112718 -0.090063
v 0.429711 0.103589 -0.091338
v 0.431818 0.092820 -0.091786
v 0.433177 0.112718 -0.000000
v 0.439310 0.103589 -0.000000
v 0.441465 0.092820 0.000000
v 0.395728 0.112718 -0.176189
v 0.401331 0.103589 -0.178684
v 0.403299 0.092820 -0.179560
v 0.350296 0.162178 -0.155962
v 0.341910 0.168278 -0.152228
v 0.332018 0.170420 -0.147824
v 0.350448 0.112718 -0.254615
v 0.355410 0.103589 -0.258220
v 0.357153 0.092820 -0.259487
v 0.310215 0.162178 -0.225384
v 0.302788 0.168278 -0.219988
v 0.294028 0.170420 -0.213624
v 0.289853 0.112718 -0.321914
v 0.293956 0.103589 -0.326472
v 0.295398 0.092820 -0.328073
v 0.256576 0.162178 -0.284956
v 0.250433 0.168278 -0.278134
v 0.243188 0.170420 -0.270087
v 0.216589 0.112718 -0.375143
v 0.219656 0.103589 -0.380454
v 0.220733 0.092820 -0.382320
v 0.191723 0.162178 -0.332074
v 0.187133 0.168278 -0.324124
v 0.181719 0.170420 -0.314747
v 0.133859 0.112718 -0.411977
v 0.135755 0.103589 -0.417809
v 0.136420 0.092820 -0.419858
v 0.118491 0.162178 -0.364679
v 0.115655 0.168278 -0.355949
v 0.112309 0.170420 -0.345650
v 0.045279 0.112718 -0.430805
v 0.045921 0.103589 -0.436904
v 0.046146 0.092820 -0.439047
v 0.040081 0.162178 -0.381346
v 0.039122 0.168278 -0.372216
v 0.037990 0.170420 -0.361447
v -0.045279 0.112718 -0.430805
v -0.045920 0.103589 -0.436904
v -0.046146 0.092820 -0.439047
v -0.040081 0.162178 -0.381346
v -0.039121 0.168278 -0.372216
v -0.037990 0.170420 -0.361447
v -0.133859 0.112718 -0.411977
v -0.135754 0.103589 -0.417809
v -0.136420 0.092820 -0.419858
v -0.118491 0.162178 -0.364679
v -0.115655 0.168278 -0.355949
v -0.112309 0.170420 -0.345650
v -0.216589 0.112718 -0.375143
v -0.219655 0.103589 -0.380454
v -0.220733 0.092820 -0.382320
v -0.191723 0.162178 -0.332074
v -0.187133 0.168278 -0.324125
v -0.181719 0.170420 -0.314747
v -0.289852 0.112718 -0.321914
v -0.293956 0.103589 -0.326472
v -0.295398 0.092820 -0.328073
v -0.256575 0.162178 -0.284956
v -0.250433 0.168278 -0.278134
v -0.243188 0.170420 -0.270087
v -0.350448 0.112718 -0.254616
v -0.355410 0.103589 -0.258220
v -0.357153 0.092820 -0.259487
v -0.310214 0.162178 -0.225384
v -0.302788 0.168278 -0.219988
v -0.294028 0.170420 -0.213624
v -0.395727 0.112718 -0.176189
v -0.401330 0.103589 -0.178684
v -0.403298 0.092820 -0.179560
v -0.350295 0.162178 -0.155962
v -0.341910 0.168278 -0.152228
v -0.332017 0.170420 -0.147824
v -0.423712 0.112718 -0.090063
v -0.429711 0.103589 -0.091338
v -0.431818 0.092820 -0.091786
v -0.375067 0.162178 -0.079723
v -0.366088 0.168278 -0.077814
v -0.355496 0.170420 -0.075563
v -0.433178 0.112718 -0.000000
v -0.439311 0.103589 -0.000000
v -0.441465 0.092820 -0.000000
v -0.383446 0.162178 -0.000000
v -0.374267 0.168278 -0.000000
v -0.363438 0.170420 -0.000000
v -0.423712 0.112718 0.090063
v -0.429711 0.103589 0.091338
v -0.431818 0.092820 0.091786
v -0.375067 0.162178 0.079723
v -0.366088 0.168278 0.077814
v -0.355496 0.170420 0.075563
v -0.395727 0.112718 0.176189
v -0.401330 0.103589 0.178684
v -0.403298 0.092820 0.179560
v -0.350295 0.162178 0.155961
v -0.341910 0.168278 0.152228
v -0.332017 0.170420 0.147824
v -0.350448 0.112718 0.254615
v -0.355410 0.103589 0.258220
v -0.357153 0.092820 0.259487
v -0.310214 0.162178 0.225384
v -0.302788 0.168278 0.219988
v -0.294028 0.170420 0.213624
v -0.289852 0.112718 0.321914
v -0.293956 0.103589 0.326471
v -0.295398 0.092820 0.328072
v -0.256575 0.162178 0.284956
v -0.250433 0.168278 0.278134
v -0.243188 0.170420 0.270087
v -0.216589 0.112718 0.375143
v -0.219655 0.103589 0.380454
v -0.220733 0.092820 0.382320
v -0.191723 0.162178 0.332074
v -0.187133 0.168278 0.324124
v -0.181719 0.170420 0.314747
v -0.133859 0.112718 0.411976
v -0.135754 0.103589 0.417809
v -0.136420 0.092820 0.419858
v -0.118491 0.162178 0.364679
v -0.115655 0.168278 0.355949
v -0.112309 0.170420 0.345650
v -0.045279 0.112718 0.430805
v -0.045920 0.103589 0.436904
v -0.046146 0.092820 0.439047
v -0.040081 0.162178 0.381345
v -0.039122 0.168278 0.372216
v -0.037990 0.170420 0.361447
v 0.045279 0.112718 0.430805
v 0.045920 0.103589 0.436904
v 0.046146 0.092820 0.439047
v 0.040081 0.162178 0.381345
v 0.039121 0.168278 0.372216
v 0.037990 0.170420 0.361447
v 0.133859 0.112718 0.411976
v 0.135754 0.103589 0.417809
v 0.136420 0.092820 0.419858
v 0.118491 0.162178 0.364679
v 0.115655 0.168278 0.355949
v 0.112309 0.170420 0.345650
v 0.216589 0.112718 0.375143
v 0.219655 0.103589 0.380454
v 0.220732 0.092820 0.382320
v 0.191723 0.162178 0.332074
v 0.187133 0.168278 0.324124
v 0.181719 0.170420 0.314747
v 0.289852 0.112718 0.321914
v 0.293956 0.103589 0.326471
v 0.295398 0.092820 0.328072
v 0.256575 0.162178 0.284956
v 0.250433 0.168278 0.278134
v 0.243188 0.170420 0.270087
v 0.350448 0.112718 0.254615
v 0.355410 0.103589 0.258220
v 0.357153 0.092820 0.259487
v 0.310214 0.162178 0.225384
v 0.302788 0.168278 0.219988
v 0.294028 0.170420 0.213624
v 0.395727 0.112718 0.176189
v 0.401330 0.103589 0.178684
v 0.403298 0.092820 0.179560
v 0.350295 0.162178 0.155961
v 0.341909 0.168278 0.152228
v 0.332017 0.170420 0.147824
v 0.423711 0.112718 0.090063
v 0.429711 0.103589 0.091338
v 0.431818 0.092820 0.091786
v 0.375067 0.162178 0.079723
v 0.366088 0.168278 0.077814
v 0.355496 0.170420 0.075563
v -0.036601 0.380563 -0.035540
v -0.037330 0.387739 -0.038941
v -0.037632 0.390711 -0.047151
v 0.037632 0.390711 -0.047151
v 0.037330 0.387739 -0.038941
v 0.036601 0.380563 -0.035540
v -0.037632 0.390711 -0.109302
v -0.037330 0.387739 -0.117512
v -0.036601 0.380563 -0.120913
v 0.036601 0.380563 -0.120913
v 0.037330 0.387739 -0.117512
v 0.037632 0.390711 -0.109302
v -0.237442 0.167769 -0.027776
v -0.245022 0.167769 -0.031796
v -0.248162 0.167769 -0.041499
v -0.228679 0.249413 -0.047151
v -0.225738 0.248926 -0.038941
v -0.218638 0.247749 -0.035540
v 0.248162 0.167769 -0.041499
v 0.245022 0.167769 -0.031796
v 0.237442 0.167769 -0.027776
v 0.228679 0.249413 -0.047151
v 0.225738 0.248926 -0.038941
v 0.218638 0.247749 -0.035540
v -0.136509 0.370412 -0.109302
v -0.135435 0.367598 -0.117512
v -0.132841 0.360804 -0.120913
v 0.132841 0.360804 -0.120913
v 0.135435 0.367598 -0.117512
v 0.136509 0.370412 -0.109302
v -0.132841 0.360804 -0.035540
v -0.135435 0.367598 -0.038941
v -0.136509 0.370412 -0.047151
v -0.193747 0.337110 -0.109302
v -0.191593 0.334924 -0.117512
v -0.186393 0.329647 -0.120913
v 0.186393 0.329647 -0.120913
v 0.191593 0.334924 -0.117512
v 0.193747 0.337110 -0.109302
v 0.136509 0.370412 -0.047151
v 0.135435 0.367598 -0.038941
v 0.132841 0.360804 -0.035540
v -0.186393 0.329647 -0.035540
v -0.191593 0.334924 -0.038941
v -0.193747 0.337110 -0.047151
v -0.216367 0.299516 -0.109302
v -0.213588 0.298369 -0.117512
v -0.206879 0.295601 -0.120913
v 0.206879 0.295601 -0.120913
v 0.213588 0.298369 -0.117512
v 0.216367 0.299516 -0.109302
v 0.193747 0.337110 -0.047151
v 0.191593 0.334924 -0.038941
v 0.186393 0.329647 -0.035540
v -0.206879 0.295601 -0.035540
v -0.213588 0.298369 -0.038941
v -0.216367 0.299516 -0.047151
v -0.228679 0.249413 -0.109302
v -0.225738 0.248926 -0.117512
v -0.218638 0.247749 -0.120913
v 0.218638 0.247749 -0.120913
v 0.225738 0.248926 -0.117512
v 0.228679 0.249413 -0.109302
v 0.216367 0.299516 -0.047151
v 0.213588 0.298369 -0.038941
v 0.206879 0.295601 -0.035540
v -0.248162 0.167769 -0.114954
v -0.245022 0.167769 -0.124657
v -0.237442 0.167769 -0.128677
v 0.237442 0.167769 -0.128677
v 0.245022 0.167769 -0.124657
v 0.248162 0.167769 -0.114954
v -0.232203 0.182781 -0.038941
v -0.235183 0.182871 -0.047151
v -0.235183 0.182871 -0.109302
v -0.232203 0.182781 -0.117512
v -0.225008 0.182563 -0.120913
v 0.225008 0.182563 -0.120913
v 0.232203 0.182781 -0.117512
v 0.235183 0.182871 -0.109302
v 0.235183 0.182871 -0.047151
v 0.232203 0.182781 -0.038941
v 0.225008 0.182563 -0.035540
v -0.225008 0.182563 -0.035540
v -0.036601 0.380563 0.123735
v -0.037330 0.387739 0.120334
v -0.037632 0.390711 0.112124
v 0.037632 0.390711 0.112124
v 0.037330 0.387739 0.120334
v 0.036601 0.380563 0.123735
v -0.037632 0.390711 0.049973
v -0.037330 0.387739 0.041763
v -0.036601 0.380563 0.038362
v 0.036601 0.380563 0.038362
v 0.037330 0.387739 0.041763
v 0.037632 0.390711 0.049973
v -0.237442 0.167769 0.131499
v -0.245022 0.167769 0.127480
v -0.248162 0.167769 0.117776
v -0.228679 0.249413 0.112124
v -0.225738 0.248926 0.120334
v -0.218638 0.247749 0.123735
v 0.248162 0.167769 0.117776
v 0.245022 0.167769 0.127480
v 0.237442 0.167769 0.131499
v 0.228679 0.249413 0.112124
v 0.225738 0.248926 0.120334
v 0.218638 0.247749 0.123735
v -0.136509 0.370412 0.049973
v -0.135435 0.367598 0.041763
v -0.132841 0.360804 0.038362
v 0.132841 0.360804 0.038362
v 0.135435 0.367598 0.041763
v 0.136509 0.370412 0.049973
v -0.132841 0.360804 0.123735
v -0.135435 0.367598 0.120334
v -0.136509 0.370412 0.112124
v -0.193747 0.337110 0.049973
v -0.191593 0.334924 0.041763
v -0.186393 0.329647 0.038362
v 0.186393 0.329647 0.038362
v 0.191593 0.334924 0.041763
v 0.193747 0.337110 0.049973
v 0.136509 0.370412 0.112124
v 0.135435 0.367598 0.120334
v 0.132841 0.360804 0.123735
v -0.186393 0.329647 0.123735
v -0.191593 0.334924 0.120334
v -0.193747 0.337110 0.112124
v -0.216367 0.299516 0.049973
v -0.213588 0.298369 0.041763
v -0.206879 0.295601 0.038362
v 0.206879 0.295601 0.038362
v 0.213588 0.298369 0.041763
v 0.216367 0.299516 0.049973
v 0.193747 0.337110 0.112124
v 0.191593 0.334924 0.120334
v 0.186393 0.329647 0.123735
v -0.206879 0.295601 0.123735
v -0.213588 0.298369 0.120334
v -0.216367 0.299516 0.112124
v -0.228679 0.249413 0.049973
v -0.225738 0.248926 0.041763
v -0.218638 0.247749 0.038362
v 0.218638 0.247749 0.038362
v 0.225738 0.248926 0.041763
v 0.228679 0.249413 0.049973
v 0.216367 0.299516 0.112124
v 0.213588 0.298369 0.120334
v 0.206879 0.295601 0.123735
v -0.248162 0.167769 0.044322
v -0.245022 0.167769 0.034618
v -0.237442 0.167769 0.030598
v 0.237442 0.167769 0.030598
v 0.245022 0.167769 0.034618
v 0.248162 0.167769 0.044322
v -0.232203 0.182781 0.120334
v -0.235183 0.182871 0.112124
v -0.235183 0.182871 0.049973
v -0.232203 0.182781 0.041763
v -0.225008 0.182563 0.038362
v 0.225008 0.182563 0.038362
v 0.232203 0.182781 0.041763
v 0.235183 0.182871 0.049973
v 0.235183 0.182871 0.112124
v 0.232203 0.182781 0.120334
v 0.225008 0.182563 0.123735
v -0.225008 0.182563 0.123735
vt 0.963173 0.192838
vt 0.949763 0.151476
vt 0.928046 0.113806
vt 0.898972 0.081474
vt 0.863812 0.055894
vt 0.824100 0.038183
vt 0.781575 0.029115
vt 0.738093 0.029087
vt 0.695556 0.038100
vt 0.655823 0.055760
vt 0.620629 0.081296
vt 0.591513 0.113590
vt 0.569749 0.151232
vt 0.556286 0.192577
vt 0.551713 0.235817
vt 0.556230 0.279064
vt 0.569640 0.320426
vt 0.591357 0.358096
vt 0.620431 0.390427
vt 0.655592 0.416008
vt 0.695303 0.433719
vt 0.737828 0.442786
vt 0.781310 0.442814
vt 0.823847 0.433801
vt 0.863580 0.416141
vt 0.898774 0.390606
vt 0.927890 0.358311
vt 0.949655 0.320669
vt 0.963117 0.279324
vt 0.759702 0.235951
vt 0.967690 0.236084
vt 0.985111 0.560661
vt 0.951117 0.586936
vt 0.018331 0.586937
vt 0.049123 0.560661
vt 0.049567 0.586936
vt 0.081546 0.560666
vt 0.081616 0.586937
vt 0.113791 0.560661
vt 0.113803 0.586936
vt 0.146012 0.560661
vt 0.146012 0.586936
vt 0.178223 0.560666
vt 0.178224 0.586937
vt 0.210432 0.560661
vt 0.210435 0.586936
vt 0.242651 0.560661
vt 0.242654 0.586936
vt 0.274858 0.560661
vt 0.274862 0.586936
vt 0.307080 0.560661
vt 0.307080 0.586936
vt 0.339286 0.560666
vt 0.339284 0.586937
vt 0.371501 0.560661
vt 0.371497 0.586936
vt 0.403712 0.560661
vt 0.403713 0.586936
vt 0.435917 0.560661
vt 0.435924 0.586936
vt 0.468144 0.560661
vt 0.468139 0.586936
vt 0.500351 0.560661
vt 0.500351 0.586936
vt 0.532559 0.560661
vt 0.532564 0.586936
vt 0.564787 0.560661
vt 0.564779 0.586936
vt 0.596992 0.560661
vt 0.596990 0.586936
vt 0.629200 0.560666
vt 0.629205 0.586937
vt 0.661416 0.560661
vt 0.661417 0.586936
vt 0.693621 0.560668
vt 0.693620 0.586937
vt 0.725835 0.560666
vt 0.725832 0.586937
vt 0.758038 0.560661
vt 0.758037 0.586936
vt 0.790255 0.560661
vt 0.790253 0.586936
vt 0.822465 0.560661
vt 0.822464 0.586936
vt 0.854679 0.560661
vt 0.854676 0.586936
vt 0.886892 0.560668
vt 0.886882 0.586937
vt 0.919135 0.560661
vt 0.919067 0.586936
vt 0.951560 0.560661
vt 0.033723 0.487321
vt 0.001275 0.531362
vt 0.066682 0.487317
vt 0.033911 0.531357
vt 0.099587 0.487321
vt 0.066730 0.531360
vt 0.132481 0.487321
vt 0.099601 0.531357
vt 0.165369 0.487321
vt 0.132480 0.531357
vt 0.198259 0.487321
vt 0.165369 0.531360
vt 0.231148 0.487321
vt 0.198260 0.531357
vt 0.264038 0.487321
vt 0.231146 0.531357
vt 0.296921 0.487317
vt 0.264036 0.531357
vt 0.329814 0.487317
vt 0.296921 0.531357
vt 0.362703 0.487321
vt 0.329813 0.531360
vt 0.395588 0.487321
vt 0.362700 0.531357
vt 0.428484 0.487317
vt 0.395593 0.531357
vt 0.461364 0.487321
vt 0.428481 0.531357
vt 0.494256 0.487321
vt 0.461364 0.531357
vt 0.527149 0.487321
vt 0.494257 0.531357
vt 0.560027 0.487317
vt 0.527146 0.531357
vt 0.592924 0.487321
vt 0.560032 0.531357
vt 0.625809 0.487321
vt 0.592917 0.531357
vt 0.658698 0.487321
vt 0.625813 0.531360
vt 0.691593 0.487322
vt 0.658699 0.531357
vt 0.724478 0.487317
vt 0.691591 0.531362
vt 0.757369 0.487321
vt 0.724481 0.531360
vt 0.790259 0.487321
vt 0.757372 0.531357
vt 0.823148 0.487321
vt 0.790257 0.531357
vt 0.856037 0.487317
vt 0.823150 0.531357
vt 0.888932 0.487322
vt 0.856035 0.531357
vt 0.921838 0.487321
vt 0.888920 0.531362
vt 0.954796 0.487321
vt 0.921791 0.531357
vt 0.987944 0.487317
vt 0.954610 0.531357
vt 0.485235 0.321665
vt 0.463039 0.360098
vt 0.433337 0.393076
vt 0.397427 0.419158
vt 0.356880 0.437204
vt 0.313466 0.446425
vt 0.269084 0.446419
vt 0.225673 0.437186
vt 0.185131 0.419128
vt 0.149229 0.393036
vt 0.119536 0.360049
vt 0.097351 0.321610
vt 0.083642 0.279399
vt 0.079009 0.235259
vt 0.083655 0.191121
vt 0.097376 0.148913
vt 0.119572 0.110480
vt 0.149274 0.077503
vt 0.185183 0.051421
vt 0.225731 0.033375
vt 0.269144 0.024153
vt 0.313526 0.024160
vt 0.356937 0.033393
vt 0.397479 0.051451
vt 0.433381 0.077543
vt 0.463074 0.110529
vt 0.485259 0.148968
vt 0.498968 0.191180
vt 0.503601 0.235320
vt 0.498956 0.279458
vt 0.291305 0.235289
vt 0.000571 0.487322
vt 0.982357 0.586936
vt 0.015574 0.560668
vt 0.987246 0.531357
vt 0.968767 0.191653
vt 0.000610 0.482036
vt 0.987906 0.482036
vt 0.954988 0.149154
vt 0.033722 0.482036
vt 0.932675 0.110449
vt 0.066681 0.482036
vt 0.902802 0.077228
vt 0.099588 0.482036
vt 0.866674 0.050944
vt 0.132481 0.482036
vt 0.825872 0.032746
vt 0.165370 0.482036
vt 0.782177 0.023429
vt 0.198259 0.482036
vt 0.737500 0.023400
vt 0.231147 0.482036
vt 0.693794 0.032661
vt 0.264039 0.482036
vt 0.652968 0.050806
vt 0.296920 0.482036
vt 0.616806 0.077043
vt 0.329815 0.482036
vt 0.586890 0.110226
vt 0.362703 0.482036
vt 0.564527 0.148902
vt 0.395587 0.482036
vt 0.550694 0.191384
vt 0.428486 0.482036
vt 0.545995 0.235813
vt 0.461361 0.482036
vt 0.550636 0.280248
vt 0.494256 0.482036
vt 0.564415 0.322747
vt 0.527150 0.482036
vt 0.586728 0.361453
vt 0.560026 0.482036
vt 0.616601 0.394673
vt 0.592924 0.482036
vt 0.652729 0.420957
vt 0.625809 0.482036
vt 0.693532 0.439155
vt 0.658698 0.482036
vt 0.737226 0.448472
vt 0.691594 0.482036
vt 0.781903 0.448501
vt 0.724477 0.482036
vt 0.825609 0.439240
vt 0.757369 0.482036
vt 0.866436 0.421095
vt 0.790259 0.482036
vt 0.902597 0.394858
vt 0.823149 0.482036
vt 0.932513 0.361676
vt 0.856037 0.482036
vt 0.954876 0.322999
vt 0.888932 0.482036
vt 0.968709 0.280518
vt 0.921838 0.482036
vt 0.954797 0.482036
vt 0.973408 0.236089
vt 0.018705 0.591315
vt 0.505263 0.280800
vt 0.981984 0.591315
vt 0.510049 0.235321
vt 0.951099 0.591315
vt 0.985389 0.556282
vt 0.015296 0.556290
vt 0.951566 0.556282
vt 0.033912 0.535399
vt 0.049585 0.591315
vt 0.491125 0.324289
vt 0.066730 0.535402
vt 0.081618 0.591315
vt 0.468255 0.363889
vt 0.099600 0.535399
vt 0.113803 0.591315
vt 0.437651 0.397869
vt 0.132481 0.535399
vt 0.146012 0.591315
vt 0.400650 0.424743
vt 0.165368 0.535402
vt 0.178224 0.591315
vt 0.358871 0.443337
vt 0.198262 0.535399
vt 0.210436 0.591315
vt 0.314139 0.452839
vt 0.231146 0.535399
vt 0.242654 0.591315
vt 0.268409 0.452832
vt 0.264036 0.535399
vt 0.274862 0.591315
vt 0.223680 0.443318
vt 0.296922 0.535399
vt 0.307080 0.591315
vt 0.181906 0.424712
vt 0.329813 0.535402
vt 0.339283 0.591315
vt 0.144913 0.397827
vt 0.362699 0.535399
vt 0.371497 0.591315
vt 0.114319 0.363839
vt 0.395595 0.535399
vt 0.403713 0.591315
vt 0.091460 0.324232
vt 0.428479 0.535399
vt 0.435925 0.591315
vt 0.077334 0.280738
vt 0.461365 0.535399
vt 0.468138 0.591315
vt 0.072561 0.235258
vt 0.494255 0.535399
vt 0.500351 0.591315
vt 0.077348 0.189779
vt 0.527148 0.535399
vt 0.532565 0.591315
vt 0.091485 0.146289
vt 0.560031 0.535399
vt 0.564778 0.591315
vt 0.114356 0.106689
vt 0.592917 0.535399
vt 0.596990 0.591315
vt 0.144960 0.072710
vt 0.625814 0.535402
vt 0.629205 0.591315
vt 0.181960 0.045836
vt 0.658698 0.535399
vt 0.661418 0.591315
vt 0.223739 0.027241
vt 0.691591 0.535404
vt 0.693619 0.591315
vt 0.268471 0.017740
vt 0.724481 0.535402
vt 0.725832 0.591315
vt 0.314201 0.017747
vt 0.757372 0.535399
vt 0.758036 0.591315
vt 0.358931 0.027261
vt 0.790258 0.535399
vt 0.790253 0.591315
vt 0.400704 0.045867
vt 0.823149 0.535399
vt 0.822464 0.591315
vt 0.437697 0.072752
vt 0.856037 0.535399
vt 0.854676 0.591315
vt 0.468291 0.106740
vt 0.888920 0.535404
vt 0.886881 0.591315
vt 0.491151 0.146347
vt 0.921792 0.535399
vt 0.505276 0.189840
vt 0.919065 0.591315
vt 0.954609 0.535399
vt 0.919135 0.556282
vt 0.886892 0.556290
vt 0.854679 0.556282
vt 0.822465 0.556282
vt 0.790256 0.556282
vt 0.758038 0.556282
vt 0.725835 0.556288
vt 0.693621 0.556290
vt 0.661416 0.556282
vt 0.629199 0.556288
vt 0.596991 0.556282
vt 0.564787 0.556282
vt 0.532557 0.556282
vt 0.500351 0.556282
vt 0.468145 0.556282
vt 0.435916 0.556282
vt 0.403713 0.556282
vt 0.371501 0.556282
vt 0.339286 0.556288
vt 0.307081 0.556282
vt 0.274857 0.556282
vt 0.242651 0.556282
vt 0.210431 0.556282
vt 0.178223 0.556288
vt 0.146012 0.556282
vt 0.113791 0.556282
vt 0.081545 0.556288
vt 0.049117 0.556282
vt 0.001334 0.535404
vt 0.987187 0.535399
vt 0.453392 0.651460
vt 0.453338 0.642109
vt 0.549724 0.642109
vt 0.549668 0.651460
vt 0.667201 0.993556
vt 0.668016 0.985528
vt 0.749901 0.985528
vt 0.750717 0.993556
vt 0.749901 0.985528
vt 0.750717 0.993556
vt 0.667201 0.993556
vt 0.668016 0.985528
vt 0.453331 0.731593
vt 0.453388 0.722242
vt 0.549663 0.722242
vt 0.549718 0.731593
vt 0.006244 0.645023
vt 0.008939 0.633971
vt 0.033028 0.642109
vt 0.032152 0.651460
vt 0.434871 0.747493
vt 0.443350 0.747493
vt 0.457260 0.764042
vt 0.449212 0.764285
vt 0.960658 0.764042
vt 0.974567 0.747493
vt 0.960658 0.764042
vt 0.457260 0.764042
vt 0.443351 0.747493
vt 0.974567 0.747493
vt 0.970903 0.722242
vt 0.970904 0.651460
vt 0.996809 0.645023
vt 0.996811 0.728679
vt 0.032151 0.722242
vt 0.006247 0.728679
vt 0.324248 0.722242
vt 0.324246 0.651460
vt 0.560360 0.963426
vt 0.857557 0.963426
vt 0.678808 0.651460
vt 0.678810 0.722242
vt 0.560360 0.963426
vt 0.857557 0.963426
vt 0.239714 0.722242
vt 0.239710 0.651460
vt 0.500456 0.928573
vt 0.917461 0.928573
vt 0.763343 0.651460
vt 0.763346 0.722242
vt 0.500456 0.928573
vt 0.917461 0.928573
vt 0.183805 0.722242
vt 0.183809 0.651460
vt 0.477540 0.890488
vt 0.940377 0.890488
vt 0.819250 0.651460
vt 0.819245 0.722242
vt 0.477540 0.890488
vt 0.940377 0.890488
vt 0.117845 0.722242
vt 0.117842 0.651460
vt 0.464386 0.836960
vt 0.953531 0.836960
vt 0.885210 0.651460
vt 0.885214 0.722242
vt 0.464386 0.836960
vt 0.953531 0.836960
vt 0.557459 0.971026
vt 0.324368 0.642109
vt 0.678684 0.642109
vt 0.860458 0.971026
vt 0.324371 0.731593
vt 0.860458 0.971026
vt 0.557459 0.971026
vt 0.678687 0.731593
vt 0.983046 0.747493
vt 0.968705 0.764285
vt 0.994118 0.633971
vt 0.970030 0.642109
vt 0.239908 0.731593
vt 0.923278 0.934476
vt 0.494639 0.934476
vt 0.763151 0.731593
vt 0.494639 0.934476
vt 0.239904 0.642109
vt 0.183773 0.731593
vt 0.947883 0.893585
vt 0.470034 0.893585
vt 0.819278 0.731593
vt 0.763146 0.642109
vt 0.923278 0.934476
vt 0.470034 0.893585
vt 0.183779 0.642109
vt 0.117840 0.731593
vt 0.961474 0.838277
vt 0.456443 0.838277
vt 0.885220 0.731593
vt 0.819283 0.642109
vt 0.947883 0.893585
vt 0.117836 0.642109
vt 0.456443 0.838277
vt 0.033025 0.731593
vt 0.008937 0.739730
vt 0.968705 0.764285
vt 0.983046 0.747493
vt 0.449212 0.764285
vt 0.434871 0.747493
vt 0.970028 0.731593
vt 0.994117 0.739730
vt 0.961474 0.838277
vt 0.885216 0.642109
vt 0.453392 0.651460
vt 0.453338 0.642109
vt 0.549724 0.642109
vt 0.549668 0.651460
vt 0.667201 0.993556
vt 0.668016 0.985528
vt 0.749901 0.985528
vt 0.750717 0.993556
vt 0.749901 0.985528
vt 0.750717 0.993556
vt 0.667201 0.993556
vt 0.668016 0.985528
vt 0.453331 0.731593
vt 0.453388 0.722242
vt 0.549663 0.722242
vt 0.549718 0.731593
vt 0.006244 0.645023
vt 0.008939 0.633971
vt 0.033028 0.642109
vt 0.032152 0.651460
vt 0.434871 0.747493
vt 0.443350 0.747493
vt 0.457260 0.764042
vt 0.449212 0.764285
vt 0.960658 0.764042
vt 0.974567 0.747493
vt 0.960658 0.764042
vt 0.457260 0.764042
vt 0.443351 0.747493
vt 0.974567 0.747493
vt 0.970903 0.722242
vt 0.970904 0.651460
vt 0.996809 0.645023
vt 0.996811 0.728679
vt 0.032151 0.722242
vt 0.006247 0.728679
vt 0.324248 0.722242
vt 0.324246 0.651460
vt 0.560360 0.963426
vt 0.857557 0.963426
vt 0.678808 0.651460
vt 0.678810 0.722242
vt 0.560360 0.963426
vt 0.857557 0.963426
vt 0.239714 0.722242
vt 0.239710 0.651460
vt 0.500456 0.928573
vt 0.917461 0.928573
vt 0.763343 0.651460
vt 0.763346 0.722242
vt 0.500456 0.928573
vt 0.917461 0.928573
vt 0.183805 0.722242
vt 0.183809 0.651460
vt 0.477540 0.890488
vt 0.940377 0.890488
vt 0.819250 0.651460
vt 0.819245 0.722242
vt 0.477540 0.890488
vt 0.940377 0.890488
vt 0.117845 0.722242
vt 0.117842 0.651460
vt 0.464386 0.836960
vt 0.953531 0.836960
vt 0.885210 0.651460
vt 0.885214 0.722242
vt 0.464386 0.836960
vt 0.953531 0.836960
vt 0.557459 0.971026
vt 0.324368 0.642109
vt 0.678684 0.642109
vt 0.860458 0.971026
vt 0.324371 0.731593
vt 0.860458 0.971026
vt 0.557459 0.971026
vt 0.678687 0.731593
vt 0.983046 0.747493
vt 0.968705 0.764285
vt 0.994118 0.633971
vt 0.970030 0.642109
vt 0.239908 0.731593
vt 0.923278 0.934476
vt 0.494639 0.934476
vt 0.763151 0.731593
vt 0.494639 0.934476
vt 0.239904 0.642109
vt 0.183773 0.731593
vt 0.947883 0.893585
vt 0.470034 0.893585
vt 0.819278 0.731593
vt 0.763146 0.642109
vt 0.923278 0.934476
vt 0.470034 0.893585
vt 0.183779 0.642109
vt 0.117840 0.731593
vt 0.961474 0.838277
vt 0.456443 0.838277
vt 0.885220 0.731593
vt 0.819283 0.642109
vt 0.947883 0.893585
vt 0.117836 0.642109
vt 0.456443 0.838277
vt 0.033025 0.731593
vt 0.008937 0.739730
vt 0.968705 0.764285
vt 0.983046 0.747493
vt 0.449212 0.764285
vt 0.434871 0.747493
vt 0.970028 0.731593
vt 0.994117 0.739730
vt 0.961474 0.838277
vt 0.885216 0.642109
vn 0.020806 -0.999741 -0.009263
vn 0.022277 -0.999741 -0.004735
vn 0.000000 -1.000000 -0.000000
vn 0.018425 -0.999741 -0.013387
vn 0.015239 -0.999741 -0.016925
vn 0.011387 -0.999741 -0.019724
vn 0.007038 -0.999741 -0.021660
vn 0.002381 -0.999741 -0.022650
vn -0.002381 -0.999741 -0.022650
vn -0.007038 -0.999741 -0.021660
vn -0.011387 -0.999741 -0.019724
vn -0.015239 -0.999741 -0.016925
vn -0.018425 -0.999741 -0.013387
vn -0.020806 -0.999741 -0.009263
vn -0.022277 -0.999741 -0.004735
vn -0.022775 -0.999741 0.000000
vn -0.022277 -0.999741 0.004735
vn -0.020806 -0.999741 0.009263
vn -0.018425 -0.999741 0.013387
vn -0.015239 -0.999741 0.016925
vn -0.011387 -0.999741 0.019724
vn -0.007038 -0.999741 0.021660
vn -0.002381 -0.999741 0.022650
vn 0.002381 -0.999741 0.022650
vn 0.007038 -0.999741 0.021660
vn 0.011387 -0.999741 0.019724
vn 0.015239 -0.999741 0.016925
vn 0.018425 -0.999741 0.013387
vn 0.020806 -0.999741 0.009263
vn 0.022277 -0.999741 0.004735
vn 0.022775 -0.999741 0.000000
vn 0.710388 0.687422 -0.150996
vn 0.673840 0.724863 -0.143228
vn 0.688894 0.724862 0.000002
vn 0.726258 0.687422 0.000002
vn 0.663470 0.687422 -0.295396
vn 0.629336 0.724862 -0.280198
vn 0.587555 0.687422 -0.426884
vn 0.557327 0.724862 -0.404922
vn 0.485962 0.687422 -0.539715
vn 0.460960 0.724862 -0.511948
vn 0.363129 0.687422 -0.628958
vn 0.344447 0.724862 -0.596599
vn 0.224426 0.687422 -0.690712
vn 0.212880 0.724862 -0.655177
vn 0.075915 0.687422 -0.722280
vn 0.072009 0.724862 -0.685120
vn -0.075914 0.687422 -0.722280
vn -0.072009 0.724862 -0.685120
vn -0.224426 0.687422 -0.690713
vn -0.212880 0.724862 -0.655177
vn -0.363129 0.687422 -0.628958
vn -0.344447 0.724862 -0.596599
vn -0.485962 0.687422 -0.539715
vn -0.460960 0.724862 -0.511948
vn -0.587555 0.687422 -0.426884
vn -0.557327 0.724862 -0.404921
vn -0.663470 0.687422 -0.295396
vn -0.629336 0.724862 -0.280198
vn -0.710388 0.687422 -0.150998
vn -0.673840 0.724862 -0.143229
vn -0.726258 0.687422 0.000000
vn -0.688894 0.724862 0.000000
vn -0.710387 0.687422 0.150998
vn -0.673840 0.724862 0.143229
vn -0.663470 0.687422 0.295396
vn -0.629336 0.724862 0.280198
vn -0.587555 0.687422 0.426884
vn -0.557327 0.724862 0.404922
vn -0.485962 0.687422 0.539715
vn -0.460960 0.724862 0.511948
vn -0.363129 0.687422 0.628958
vn -0.344447 0.724862 0.596600
vn -0.224426 0.687422 0.690713
vn -0.212880 0.724862 0.655177
vn -0.075914 0.687422 0.722280
vn -0.072009 0.724862 0.685120
vn 0.075915 0.687422 0.722279
vn 0.072009 0.724862 0.685120
vn 0.224426 0.687422 0.690712
vn 0.212880 0.724862 0.655177
vn 0.363129 0.687422 0.628958
vn 0.344447 0.724862 0.596599
vn 0.485962 0.687422 0.539715
vn 0.460960 0.724862 0.511948
vn 0.587555 0.687422 0.426884
vn 0.557327 0.724862 0.404922
vn 0.663470 0.687422 0.295396
vn 0.629336 0.724862 0.280198
vn 0.710388 0.687422 0.150997
vn 0.673840 0.724862 0.143229
vn 0.976989 -0.048662 -0.207663
vn 0.912463 -0.048662 -0.406255
vn 0.913289 0.023717 -0.406622
vn 0.977873 0.023717 -0.207851
vn 0.808059 -0.048662 -0.587089
vn 0.808790 0.023717 -0.587620
vn 0.668338 -0.048662 -0.742264
vn 0.668942 0.023717 -0.742936
vn 0.499408 -0.048662 -0.864999
vn 0.499860 0.023717 -0.865782
vn 0.308651 -0.048663 -0.949930
vn 0.308930 0.023717 -0.950789
vn 0.104404 -0.048663 -0.993344
vn 0.104499 0.023717 -0.994242
vn -0.104404 -0.048663 -0.993344
vn -0.104499 0.023717 -0.994242
vn -0.308651 -0.048662 -0.949930
vn -0.308930 0.023717 -0.950789
vn -0.499408 -0.048663 -0.864999
vn -0.499859 0.023717 -0.865782
vn -0.668338 -0.048663 -0.742264
vn -0.668942 0.023717 -0.742936
vn -0.808059 -0.048663 -0.587089
vn -0.808790 0.023717 -0.587620
vn -0.912463 -0.048663 -0.406255
vn -0.913289 0.023717 -0.406622
vn -0.976989 -0.048662 -0.207665
vn -0.977873 0.023717 -0.207853
vn -0.998815 -0.048662 0.000000
vn -0.999719 0.023717 0.000000
vn -0.976989 -0.048662 0.207665
vn -0.977872 0.023717 0.207853
vn -0.912463 -0.048663 0.406255
vn -0.913288 0.023717 0.406622
vn -0.808059 -0.048663 0.587089
vn -0.808790 0.023717 0.587620
vn -0.668338 -0.048663 0.742264
vn -0.668942 0.023717 0.742936
vn -0.499407 -0.048663 0.865000
vn -0.499859 0.023717 0.865782
vn -0.308651 -0.048662 0.949930
vn -0.308930 0.023717 0.950789
vn -0.104404 -0.048663 0.993344
vn -0.104499 0.023717 0.994242
vn 0.104405 -0.048663 0.993344
vn 0.104499 0.023717 0.994242
vn 0.308651 -0.048662 0.949930
vn 0.308930 0.023717 0.950789
vn 0.499408 -0.048662 0.864999
vn 0.499859 0.023717 0.865782
vn 0.668338 -0.048663 0.742264
vn 0.668943 0.023717 0.742936
vn 0.808059 -0.048663 0.587089
vn 0.808789 0.023717 0.587620
vn 0.912463 -0.048662 0.406255
vn 0.913289 0.023717 0.406622
vn 0.976989 -0.048662 0.207665
vn 0.977873 0.023717 0.207853
vn 0.998815 -0.048662 0.000002
vn 0.999719 0.023717 0.000002
vn 0.012491 0.999919 -0.002655
vn 0.011666 0.999919 -0.005194
vn 0.000000 1.000000 -0.000000
vn 0.010331 0.999918 -0.007506
vn 0.008545 0.999918 -0.009490
vn 0.006385 0.999918 -0.011059
vn 0.003946 0.999919 -0.012145
vn 0.001335 0.999918 -0.012700
vn -0.001335 0.999918 -0.012700
vn -0.003946 0.999919 -0.012145
vn -0.006385 0.999918 -0.011059
vn -0.008545 0.999919 -0.009490
vn -0.010331 0.999919 -0.007506
vn -0.011666 0.999918 -0.005194
vn -0.012491 0.999919 -0.002655
vn -0.012770 0.999919 0.000000
vn -0.012491 0.999918 0.002655
vn -0.011666 0.999918 0.005194
vn -0.010331 0.999918 0.007506
vn -0.008545 0.999918 0.009490
vn -0.006385 0.999919 0.011059
vn -0.003946 0.999919 0.012145
vn -0.001335 0.999918 0.012700
vn 0.001335 0.999918 0.012700
vn 0.003946 0.999918 0.012145
vn 0.006385 0.999918 0.011059
vn 0.008545 0.999918 0.009490
vn 0.010331 0.999918 0.007506
vn 0.011666 0.999919 0.005194
vn 0.012491 0.999919 0.002655
vn 0.012770 0.999918 0.000000
vn 0.372568 -0.924620 -0.079191
vn 0.380891 -0.924620 0.000001
vn 0.902961 -0.384481 -0.191928
vn 0.923134 -0.384477 0.000002
vn 0.843324 -0.384480 -0.375472
vn 0.347961 -0.924620 -0.154922
vn 0.746831 -0.384480 -0.542604
vn 0.308148 -0.924620 -0.223882
vn 0.617697 -0.384480 -0.686022
vn 0.254866 -0.924620 -0.283058
vn 0.461567 -0.384480 -0.799457
vn 0.190446 -0.924620 -0.329862
vn 0.285264 -0.384480 -0.877952
vn 0.117702 -0.924620 -0.362250
vn 0.096493 -0.384481 -0.918076
vn 0.039814 -0.924619 -0.378806
vn -0.096493 -0.384481 -0.918076
vn -0.039814 -0.924619 -0.378806
vn -0.285264 -0.384480 -0.877952
vn -0.117702 -0.924620 -0.362250
vn -0.461567 -0.384481 -0.799457
vn -0.190446 -0.924620 -0.329862
vn -0.617696 -0.384482 -0.686021
vn -0.254867 -0.924619 -0.283058
vn -0.746830 -0.384482 -0.542604
vn -0.308148 -0.924619 -0.223883
vn -0.843324 -0.384482 -0.375472
vn -0.347963 -0.924619 -0.154923
vn -0.902960 -0.384480 -0.191930
vn -0.372568 -0.924620 -0.079192
vn -0.923134 -0.384479 0.000000
vn -0.380891 -0.924620 0.000000
vn -0.902961 -0.384479 0.191930
vn -0.372568 -0.924620 0.079192
vn -0.843324 -0.384480 0.375472
vn -0.347962 -0.924619 0.154923
vn -0.746830 -0.384482 0.542604
vn -0.308149 -0.924619 0.223883
vn -0.617696 -0.384482 0.686021
vn -0.254867 -0.924619 0.283058
vn -0.461566 -0.384480 0.799457
vn -0.190446 -0.924620 0.329862
vn -0.285264 -0.384480 0.877952
vn -0.117702 -0.924620 0.362250
vn -0.096494 -0.384481 0.918076
vn -0.039814 -0.924619 0.378806
vn 0.096494 -0.384481 0.918076
vn 0.039814 -0.924619 0.378806
vn 0.285264 -0.384480 0.877952
vn 0.117702 -0.924620 0.362250
vn 0.461567 -0.384480 0.799457
vn 0.190446 -0.924620 0.329862
vn 0.617697 -0.384481 0.686021
vn 0.254867 -0.924619 0.283058
vn 0.746830 -0.384481 0.542604
vn 0.308148 -0.924619 0.223883
vn 0.843324 -0.384480 0.375472
vn 0.347962 -0.924619 0.154923
vn 0.902962 -0.384478 0.191930
vn 0.372568 -0.924620 0.079192
vn 0.385805 0.918929 -0.082004
vn 0.394424 0.918929 0.000001
vn 0.385804 0.918929 0.082005
vn 0.905206 0.378922 -0.192405
vn 0.845421 0.378922 -0.376406
vn 0.925428 0.378922 0.000002
vn 0.748687 0.378922 -0.543953
vn 0.360324 0.918929 -0.160427
vn 0.619232 0.378923 -0.687727
vn 0.319096 0.918929 -0.231837
vn 0.462714 0.378922 -0.801445
vn 0.263921 0.918929 -0.293114
vn 0.285973 0.378923 -0.880135
vn 0.197212 0.918929 -0.341581
vn 0.096734 0.378923 -0.920359
vn 0.121884 0.918929 -0.375120
vn -0.096733 0.378923 -0.920359
vn 0.041228 0.918929 -0.392263
vn -0.285973 0.378922 -0.880135
vn -0.041228 0.918929 -0.392263
vn -0.462714 0.378923 -0.801444
vn -0.121884 0.918929 -0.375120
vn -0.619232 0.378923 -0.687727
vn -0.197212 0.918929 -0.341581
vn -0.748687 0.378923 -0.543953
vn -0.263921 0.918929 -0.293114
vn -0.845421 0.378922 -0.376406
vn -0.319095 0.918929 -0.231836
vn -0.905206 0.378921 -0.192407
vn -0.360324 0.918929 -0.160426
vn -0.925429 0.378922 0.000000
vn -0.385804 0.918929 -0.082005
vn -0.905206 0.378923 0.192407
vn -0.394424 0.918929 0.000000
vn -0.845421 0.378923 0.376406
vn -0.385805 0.918929 0.082005
vn -0.748688 0.378922 0.543953
vn -0.360324 0.918929 0.160426
vn -0.619233 0.378923 0.687727
vn -0.319095 0.918929 0.231836
vn -0.462714 0.378923 0.801444
vn -0.263921 0.918929 0.293114
vn -0.285973 0.378923 0.880135
vn -0.197212 0.918929 0.341581
vn -0.096734 0.378923 0.920359
vn -0.121884 0.918929 0.375119
vn 0.096734 0.378923 0.920359
vn -0.041228 0.918929 0.392263
vn 0.285973 0.378923 0.880135
vn 0.041228 0.918929 0.392263
vn 0.462714 0.378922 0.801445
vn 0.121884 0.918929 0.375120
vn 0.619233 0.378923 0.687727
vn 0.197212 0.918929 0.341581
vn 0.748688 0.378922 0.543953
vn 0.263921 0.918929 0.293114
vn 0.845422 0.378921 0.376406
vn 0.319096 0.918929 0.231837
vn 0.905206 0.378921 0.192407
vn 0.360324 0.918929 0.160426
vn -0.115687 0.992420 0.041451
vn -0.108812 0.933402 0.341936
vn 0.108812 0.933402 0.341936
vn 0.115687 0.992420 0.041451
vn -0.049393 0.423631 0.904487
vn -0.009442 0.080983 0.996671
vn 0.009442 0.080983 0.996671
vn 0.049393 0.423631 0.904487
vn -0.009442 0.080983 -0.996671
vn -0.049393 0.423631 -0.904487
vn 0.049393 0.423631 -0.904487
vn 0.009442 0.080983 -0.996671
vn -0.108812 0.933403 -0.341935
vn -0.115687 0.992420 -0.041451
vn 0.115687 0.992420 -0.041451
vn 0.108812 0.933403 -0.341935
vn -0.750168 0.660207 0.037081
vn -0.685464 0.688239 0.237627
vn -0.908479 0.259721 0.327432
vn -0.964686 0.260554 0.038633
vn -0.339320 0.634753 0.694227
vn -0.014074 0.473412 0.880729
vn -0.007261 0.136743 0.990580
vn -0.418842 0.220076 0.880987
vn 0.007261 0.136743 0.990580
vn 0.014074 0.473412 0.880729
vn -0.007261 0.136743 -0.990580
vn 0.007261 0.136743 -0.990580
vn 0.014074 0.473411 -0.880729
vn -0.014074 0.473412 -0.880729
vn 0.964686 0.260554 -0.038633
vn 0.964686 0.260554 0.038633
vn 0.750168 0.660207 0.037081
vn 0.750167 0.660207 -0.037081
vn -0.964686 0.260554 -0.038633
vn -0.750168 0.660207 -0.037081
vn -0.324418 0.945017 -0.041181
vn -0.324418 0.945017 0.041181
vn 0.010555 0.030938 -0.999466
vn -0.010555 0.030938 -0.999466
vn 0.324418 0.945017 0.041181
vn 0.324418 0.945017 -0.041181
vn -0.010555 0.030938 0.999466
vn 0.010555 0.030938 0.999466
vn -0.663295 0.747236 -0.040961
vn -0.663295 0.747236 0.040961
vn 0.011787 0.013344 -0.999842
vn -0.011787 0.013344 -0.999842
vn 0.663295 0.747236 0.040961
vn 0.663295 0.747236 -0.040961
vn -0.011787 0.013344 0.999842
vn 0.011787 0.013344 0.999842
vn -0.928246 0.369691 -0.041083
vn -0.928246 0.369691 0.041083
vn 0.009409 0.003721 -0.999949
vn -0.009409 0.003721 -0.999949
vn 0.928246 0.369691 0.041083
vn 0.928246 0.369691 -0.041083
vn -0.009409 0.003721 0.999949
vn 0.009409 0.003721 0.999949
vn -0.986389 0.159085 -0.041588
vn -0.986389 0.159084 0.041588
vn 0.008289 0.001334 -0.999965
vn -0.008289 0.001334 -0.999965
vn 0.986389 0.159084 0.041588
vn 0.986389 0.159084 -0.041588
vn -0.008289 0.001334 0.999965
vn 0.008289 0.001334 0.999965
vn -0.136862 0.401168 0.905722
vn -0.304507 0.888132 0.344234
vn 0.304507 0.888132 0.344234
vn 0.136862 0.401168 0.905722
vn -0.304507 0.888132 -0.344234
vn -0.136862 0.401168 -0.905723
vn 0.136862 0.401168 -0.905723
vn 0.304507 0.888132 -0.344234
vn 0.339321 0.634752 0.694227
vn 0.418842 0.220075 0.880987
vn 0.685464 0.688239 0.237627
vn 0.908479 0.259721 0.327432
vn -0.621604 0.700953 -0.349676
vn -0.276532 0.313063 -0.908582
vn 0.276531 0.313063 -0.908583
vn 0.621603 0.700953 -0.349677
vn -0.276532 0.313063 0.908582
vn -0.621603 0.700954 0.349676
vn -0.872563 0.347020 -0.343818
vn -0.394603 0.156037 -0.905506
vn 0.394603 0.156037 -0.905506
vn 0.872563 0.347020 -0.343818
vn 0.621603 0.700954 0.349676
vn 0.276532 0.313064 0.908582
vn -0.394604 0.156037 0.905505
vn -0.872563 0.347020 0.343818
vn -0.927968 0.149634 -0.341300
vn -0.421830 0.067705 -0.904144
vn 0.421830 0.067705 -0.904143
vn 0.927968 0.149634 -0.341300
vn 0.872563 0.347020 0.343818
vn 0.394604 0.156037 0.905505
vn -0.927968 0.149634 0.341300
vn -0.421831 0.067705 0.904143
vn -0.908478 0.259721 -0.327433
vn -0.685464 0.688239 -0.237627
vn -0.418841 0.220075 -0.880987
vn -0.339320 0.634752 -0.694227
vn 0.418842 0.220075 -0.880987
vn 0.339320 0.634751 -0.694229
vn 0.908479 0.259721 -0.327432
vn 0.685464 0.688239 -0.237627
vn 0.421831 0.067705 0.904143
vn 0.927968 0.149634 0.341299
vn -0.115687 0.992420 0.041451
vn -0.108812 0.933402 0.341936
vn 0.108812 0.933402 0.341936
vn 0.115687 0.992420 0.041451
vn -0.049393 0.423631 0.904487
vn -0.009442 0.080983 0.996671
vn 0.009442 0.080983 0.996671
vn 0.049393 0.423631 0.904487
vn -0.009442 0.080983 -0.996671
vn -0.049393 0.423631 -0.904487
vn 0.049393 0.423631 -0.904487
vn 0.009442 0.080983 -0.996671
vn -0.108812 0.933403 -0.341935
vn -0.115687 0.992420 -0.041451
vn 0.115687 0.992420 -0.041451
vn 0.108812 0.933403 -0.341935
vn -0.750168 0.660207 0.037081
vn -0.685464 0.688239 0.237627
vn -0.908479 0.259721 0.327432
vn -0.964686 0.260553 0.038633
vn -0.339320 0.634753 0.694227
vn -0.014074 0.473412 0.880729
vn -0.007261 0.136743 0.990580
vn -0.418841 0.220076 0.880987
vn 0.007261 0.136743 0.990580
vn 0.014074 0.473412 0.880729
vn -0.007261 0.136743 -0.990580
vn 0.007261 0.136743 -0.990580
vn 0.014074 0.473411 -0.880729
vn -0.014074 0.473412 -0.880729
vn 0.964686 0.260553 -0.038633
vn 0.964686 0.260553 0.038633
vn 0.750168 0.660206 0.037081
vn 0.750168 0.660206 -0.037081
vn -0.964686 0.260553 -0.038633
vn -0.750168 0.660207 -0.037081
vn -0.324418 0.945017 -0.041181
vn -0.324418 0.945017 0.041181
vn 0.010555 0.030938 -0.999466
vn -0.010555 0.030938 -0.999466
vn 0.324418 0.945017 0.041181
vn 0.324418 0.945017 -0.041181
vn -0.010555 0.030938 0.999466
vn 0.010555 0.030938 0.999466
vn -0.663295 0.747236 -0.040961
vn -0.663295 0.747236 0.040961
vn 0.011787 0.013344 -0.999842
vn -0.011787 0.013344 -0.999842
vn 0.663295 0.747236 0.040961
vn 0.663295 0.747237 -0.040961
vn -0.011787 0.013344 0.999842
vn 0.011787 0.013344 0.999842
vn -0.928246 0.369691 -0.041083
vn -0.928246 0.369691 0.041083
vn 0.009409 0.003721 -0.999949
vn -0.009409 0.003721 -0.999949
vn 0.928246 0.369691 0.041083
vn 0.928246 0.369691 -0.041083
vn -0.009409 0.003721 0.999949
vn 0.009409 0.003721 0.999949
vn -0.986389 0.159085 -0.041588
vn -0.986389 0.159085 0.041588
vn 0.008289 0.001334 -0.999965
vn -0.008289 0.001334 -0.999965
vn 0.986389 0.159085 0.041588
vn 0.986389 0.159085 -0.041588
vn -0.008289 0.001334 0.999965
vn 0.008289 0.001334 0.999965
vn -0.136862 0.401168 0.905722
vn -0.304507 0.888132 0.344234
vn 0.304507 0.888132 0.344234
vn 0.136862 0.401168 0.905722
vn -0.304507 0.888132 -0.344234
vn -0.136862 0.401168 -0.905723
vn 0.136862 0.401168 -0.905723
vn 0.304507 0.888132 -0.344234
vn 0.339321 0.634752 0.694227
vn 0.418841 0.220076 0.880987
vn 0.685464 0.688239 0.237627
vn 0.908479 0.259721 0.327432
vn -0.621603 0.700953 -0.349676
vn -0.276532 0.313063 -0.908582
vn 0.276532 0.313063 -0.908582
vn 0.621603 0.700953 -0.349677
vn -0.276532 0.313063 0.908582
vn -0.621603 0.700954 0.349676
vn -0.872563 0.347020 -0.343818
vn -0.394603 0.156037 -0.905506
vn 0.394603 0.156037 -0.905506
vn 0.872563 0.347020 -0.343818
vn 0.621604 0.700953 0.349676
vn 0.276532 0.313064 0.908582
vn -0.394603 0.156037 0.905506
vn -0.872563 0.347020 0.343818
vn -0.927968 0.149634 -0.341300
vn -0.421830 0.067705 -0.904144
vn 0.421830 0.067705 -0.904144
vn 0.927968 0.149634 -0.341300
vn 0.872563 0.347020 0.343817
vn 0.394605 0.156037 0.905505
vn -0.927968 0.149634 0.341300
vn -0.421830 0.067705 0.904144
vn -0.908479 0.259721 -0.327432
vn -0.685463 0.688239 -0.237627
vn -0.418841 0.220075 -0.880988
vn -0.339320 0.634752 -0.694228
vn 0.418841 0.220075 -0.880988
vn 0.339320 0.634751 -0.694229
vn 0.908479 0.259721 -0.327432
vn 0.685464 0.688239 -0.237627
vn 0.421830 0.067705 0.904143
vn 0.927968 0.149634 0.341299
s 1
g pCylinder3
usemtl initialShadingGroup
f 6/2/1 3/1/2 1/30/3
f 9/3/4 6/2/1 1/30/3
f 12/4/5 9/3/4 1/30/3
f 15/5/6 12/4/5 1/30/3
f 18/6/7 15/5/6 1/30/3
f 21/7/8 18/6/7 1/30/3
f 24/8/9 21/7/8 1/30/3
f 27/9/10 24/8/9 1/30/3
f 30/10/11 27/9/10 1/30/3
f 33/11/12 30/10/11 1/30/3
f 36/12/13 33/11/12 1/30/3
f 39/13/14 36/12/13 1/30/3
f 42/14/15 39/13/14 1/30/3
f 45/15/16 42/14/15 1/30/3
f 48/16/17 45/15/16 1/30/3
f 51/17/18 48/16/17 1/30/3
f 54/18/19 51/17/18 1/30/3
f 57/19/20 54/18/19 1/30/3
f 60/20/21 57/19/20 1/30/3
f 63/21/22 60/20/21 1/30/3
f 66/22/23 63/21/22 1/30/3
f 69/23/24 66/22/23 1/30/3
f 72/24/25 69/23/24 1/30/3
f 75/25/26 72/24/25 1/30/3
f 78/26/27 75/25/26 1/30/3
f 81/27/28 78/26/27 1/30/3
f 84/28/29 81/27/28 1/30/3
f 87/29/30 84/28/29 1/30/3
f 90/31/31 87/29/30 1/30/3
f 3/1/2 90/31/31 1/30/3
s 2
f 99/32/32 93/184/33 96/33/34 102/91/35
f 93/34/33 99/185/32 105/35/36 108/36/37
f 108/36/37 105/35/36 111/37/38 114/38/39
f 114/38/39 111/37/38 117/39/40 120/40/41
f 120/40/41 117/39/40 123/41/42 126/42/43
f 126/42/43 123/41/42 129/43/44 132/44/45
f 132/44/45 129/43/44 135/45/46 138/46/47
f 138/46/47 135/45/46 141/47/48 144/48/49
f 144/48/49 141/47/48 147/49/50 150/50/51
f 150/50/51 147/49/50 153/51/52 156/52/53
f 156/52/53 153/51/52 159/53/54 162/54/55
f 162/54/55 159/53/54 165/55/56 168/56/57
f 168/56/57 165/55/56 171/57/58 174/58/59
f 174/58/59 171/57/58 177/59/60 180/60/61
f 180/60/61 177/59/60 183/61/62 186/62/63
f 186/62/63 183/61/62 189/63/64 192/64/65
f 192/64/65 189/63/64 195/65/66 198/66/67
f 198/66/67 195/65/66 201/67/68 204/68/69
f 204/68/69 201/67/68 207/69/70 210/70/71
f 210/70/71 207/69/70 213/71/72 216/72/73
f 216/72/73 213/71/72 219/73/74 222/74/75
f 222/74/75 219/73/74 225/75/76 228/76/77
f 228/76/77 225/75/76 231/77/78 234/78/79
f 234/78/79 231/77/78 237/79/80 240/80/81
f 240/80/81 237/79/80 243/81/82 246/82/83
f 246/82/83 243/81/82 249/83/84 252/84/85
f 252/84/85 249/83/84 255/85/86 258/86/87
f 258/86/87 255/85/86 261/87/88 264/88/89
f 264/88/89 261/87/88 267/89/90 270/90/91
f 270/90/91 267/89/90 102/91/35 96/33/34
f 5/183/92 8/92/93 107/95/94 101/93/95
f 8/92/93 11/94/96 113/97/97 107/95/94
f 11/94/96 14/96/98 119/99/99 113/97/97
f 14/96/98 17/98/100 125/101/101 119/99/99
f 17/98/100 20/100/102 131/103/103 125/101/101
f 20/100/102 23/102/104 137/105/105 131/103/103
f 23/102/104 26/104/106 143/107/107 137/105/105
f 26/104/106 29/106/108 149/109/109 143/107/107
f 29/106/108 32/108/110 155/111/111 149/109/109
f 32/108/110 35/110/112 161/113/113 155/111/111
f 35/110/112 38/112/114 167/115/115 161/113/113
f 38/112/114 41/114/116 173/117/117 167/115/115
f 41/114/116 44/116/118 179/119/119 173/117/117
f 44/116/118 47/118/120 185/121/121 179/119/119
f 47/118/120 50/120/122 191/123/123 185/121/121
f 50/120/122 53/122/124 197/125/125 191/123/123
f 53/122/124 56/124/126 203/127/127 197/125/125
f 56/124/126 59/126/128 209/129/129 203/127/127
f 59/126/128 62/128/130 215/131/131 209/129/129
f 62/128/130 65/130/132 221/133/133 215/131/131
f 65/130/132 68/132/134 227/135/135 221/133/133
f 68/132/134 71/134/136 233/137/137 227/135/135
f 71/134/136 74/136/138 239/139/139 233/137/137
f 74/136/138 77/138/140 245/141/141 239/139/139
f 77/138/140 80/140/142 251/143/143 245/141/141
f 80/140/142 83/142/144 257/145/145 251/143/143
f 83/142/144 86/144/146 263/147/147 257/145/145
f 86/144/146 89/146/148 269/149/149 263/147/147
f 89/146/148 92/148/150 104/151/151 269/149/149
f 92/148/150 5/150/92 101/186/95 104/151/151
f 95/181/152 110/152/153 2/182/154
f 110/152/153 116/153/155 2/182/154
f 116/153/155 122/154/156 2/182/154
f 122/154/156 128/155/157 2/182/154
f 128/155/157 134/156/158 2/182/154
f 134/156/158 140/157/159 2/182/154
f 140/157/159 146/158/160 2/182/154
f 146/158/160 152/159/161 2/182/154
f 152/159/161 158/160/162 2/182/154
f 158/160/162 164/161/163 2/182/154
f 164/161/163 170/162/164 2/182/154
f 170/162/164 176/163/165 2/182/154
f 176/163/165 182/164/166 2/182/154
f 182/164/166 188/165/167 2/182/154
f 188/165/167 194/166/168 2/182/154
f 194/166/168 200/167/169 2/182/154
f 200/167/169 206/168/170 2/182/154
f 206/168/170 212/169/171 2/182/154
f 212/169/171 218/170/172 2/182/154
f 218/170/172 224/171/173 2/182/154
f 224/171/173 230/172/174 2/182/154
f 230/172/174 236/173/175 2/182/154
f 236/173/175 242/174/176 2/182/154
f 242/174/176 248/175/177 2/182/154
f 248/175/177 254/176/178 2/182/154
f 254/176/178 260/177/179 2/182/154
f 260/177/179 266/178/180 2/182/154
f 266/178/180 272/179/181 2/182/154
f 272/179/181 98/180/182 2/182/154
f 98/180/182 95/181/152 2/182/154
s 1
f 3/1/2 4/187/183 91/247/184 90/31/31
s 2
f 4/189/185 5/150/92 92/148/150 91/246/186
f 5/183/92 4/188/185 7/191/187 8/92/93
s 1
f 4/187/183 3/1/2 6/2/1 7/190/188
s 2
f 8/92/93 7/191/187 10/193/189 11/94/96
s 1
f 7/190/188 6/2/1 9/3/4 10/192/190
s 2
f 11/94/96 10/193/189 13/195/191 14/96/98
s 1
f 10/192/190 9/3/4 12/4/5 13/194/192
s 2
f 14/96/98 13/195/191 16/197/193 17/98/100
s 1
f 13/194/192 12/4/5 15/5/6 16/196/194
s 2
f 17/98/100 16/197/193 19/199/195 20/100/102
s 1
f 16/196/194 15/5/6 18/6/7 19/198/196
s 2
f 20/100/102 19/199/195 22/201/197 23/102/104
s 1
f 19/198/196 18/6/7 21/7/8 22/200/198
s 2
f 23/102/104 22/201/197 25/203/199 26/104/106
s 1
f 22/200/198 21/7/8 24/8/9 25/202/200
s 2
f 26/104/106 25/203/199 28/205/201 29/106/108
s 1
f 25/202/200 24/8/9 27/9/10 28/204/202
s 2
f 29/106/108 28/205/201 31/207/203 32/108/110
s 1
f 28/204/202 27/9/10 30/10/11 31/206/204
s 2
f 32/108/110 31/207/203 34/209/205 35/110/112
s 1
f 31/206/204 30/10/11 33/11/12 34/208/206
s 2
f 35/110/112 34/209/205 37/211/207 38/112/114
s 1
f 34/208/206 33/11/12 36/12/13 37/210/208
s 2
f 38/112/114 37/211/207 40/213/209 41/114/116
s 1
f 37/210/208 36/12/13 39/13/14 40/212/210
s 2
f 41/114/116 40/213/209 43/215/211 44/116/118
s 1
f 40/212/210 39/13/14 42/14/15 43/214/212
s 2
f 44/116/118 43/215/211 46/217/213 47/118/120
s 1
f 43/214/212 42/14/15 45/15/16 46/216/214
s 2
f 47/118/120 46/217/213 49/219/215 50/120/122
s 1
f 46/216/214 45/15/16 48/16/17 49/218/216
s 2
f 50/120/122 49/219/215 52/221/217 53/122/124
s 1
f 49/218/216 48/16/17 51/17/18 52/220/218
s 2
f 53/122/124 52/221/217 55/223/219 56/124/126
s 1
f 52/220/218 51/17/18 54/18/19 55/222/220
s 2
f 56/124/126 55/223/219 58/225/221 59/126/128
s 1
f 55/222/220 54/18/19 57/19/20 58/224/222
s 2
f 59/126/128 58/225/221 61/227/223 62/128/130
s 1
f 58/224/222 57/19/20 60/20/21 61/226/224
s 2
f 62/128/130 61/227/223 64/229/225 65/130/132
s 1
f 61/226/224 60/20/21 63/21/22 64/228/226
s 2
f 65/130/132 64/229/225 67/231/227 68/132/134
s 1
f 64/228/226 63/21/22 66/22/23 67/230/228
s 2
f 68/132/134 67/231/227 70/233/229 71/134/136
s 1
f 67/230/228 66/22/23 69/23/24 70/232/230
s 2
f 71/134/136 70/233/229 73/235/231 74/136/138
s 1
f 70/232/230 69/23/24 72/24/25 73/234/232
s 2
f 74/136/138 73/235/231 76/237/233 77/138/140
s 1
f 73/234/232 72/24/25 75/25/26 76/236/234
s 2
f 77/138/140 76/237/233 79/239/235 80/140/142
s 1
f 76/236/234 75/25/26 78/26/27 79/238/236
s 2
f 80/140/142 79/239/235 82/241/237 83/142/144
s 1
f 79/238/236 78/26/27 81/27/28 82/240/238
s 2
f 83/142/144 82/241/237 85/243/239 86/144/146
s 1
f 82/240/238 81/27/28 84/28/29 85/242/240
s 2
f 86/144/146 85/243/239 88/245/241 89/146/148
s 1
f 85/242/240 84/28/29 87/29/30 88/244/242
s 2
f 89/146/148 88/245/241 91/246/186 92/148/150
s 1
f 88/244/242 87/29/30 90/31/31 91/247/184
s 2
f 93/184/33 94/250/243 97/252/244 96/33/34
f 94/249/243 95/181/152 98/180/182 97/251/244
f 96/33/34 97/252/244 271/339/245 270/90/91
f 97/251/244 98/180/182 272/179/181 271/338/245
f 99/185/32 100/254/246 106/368/247 105/35/36
f 100/369/246 101/93/95 107/95/94 106/256/247
f 101/186/95 100/370/246 103/340/248 104/151/151
f 100/253/246 99/32/32 102/91/35 103/255/248
f 105/35/36 106/368/247 112/367/249 111/37/38
f 106/256/247 107/95/94 113/97/97 112/259/249
f 95/181/152 94/249/243 109/258/250 110/152/153
f 94/248/243 93/34/33 108/36/37 109/257/250
f 111/37/38 112/367/249 118/366/251 117/39/40
f 112/259/249 113/97/97 119/99/99 118/262/251
f 110/152/153 109/258/250 115/261/252 116/153/155
f 109/257/250 108/36/37 114/38/39 115/260/252
f 117/39/40 118/366/251 124/365/253 123/41/42
f 118/262/251 119/99/99 125/101/101 124/265/253
f 116/153/155 115/261/252 121/264/254 122/154/156
f 115/260/252 114/38/39 120/40/41 121/263/254
f 123/41/42 124/365/253 130/364/255 129/43/44
f 124/265/253 125/101/101 131/103/103 130/268/255
f 122/154/156 121/264/254 127/267/256 128/155/157
f 121/263/254 120/40/41 126/42/43 127/266/256
f 129/43/44 130/364/255 136/363/257 135/45/46
f 130/268/255 131/103/103 137/105/105 136/271/257
f 128/155/157 127/267/256 133/270/258 134/156/158
f 127/266/256 126/42/43 132/44/45 133/269/258
f 135/45/46 136/363/257 142/362/259 141/47/48
f 136/271/257 137/105/105 143/107/107 142/274/259
f 134/156/158 133/270/258 139/273/260 140/157/159
f 133/269/258 132/44/45 138/46/47 139/272/260
f 141/47/48 142/362/259 148/361/261 147/49/50
f 142/274/259 143/107/107 149/109/109 148/277/261
f 140/157/159 139/273/260 145/276/262 146/158/160
f 139/272/260 138/46/47 144/48/49 145/275/262
f 147/49/50 148/361/261 154/360/263 153/51/52
f 148/277/261 149/109/109 155/111/111 154/280/263
f 146/158/160 145/276/262 151/279/264 152/159/161
f 145/275/262 144/48/49 150/50/51 151/278/264
f 153/51/52 154/360/263 160/359/265 159/53/54
f 154/280/263 155/111/111 161/113/113 160/283/265
f 152/159/161 151/279/264 157/282/266 158/160/162
f 151/278/264 150/50/51 156/52/53 157/281/266
f 159/53/54 160/359/265 166/358/267 165/55/56
f 160/283/265 161/113/113 167/115/115 166/286/267
f 158/160/162 157/282/266 163/285/268 164/161/163
f 157/281/266 156/52/53 162/54/55 163/284/268
f 165/55/56 166/358/267 172/357/269 171/57/58
f 166/286/267 167/115/115 173/117/117 172/289/269
f 164/161/163 163/285/268 169/288/270 170/162/164
f 163/284/268 162/54/55 168/56/57 169/287/270
f 171/57/58 172/357/269 178/356/271 177/59/60
f 172/289/269 173/117/117 179/119/119 178/292/271
f 170/162/164 169/288/270 175/291/272 176/163/165
f 169/287/270 168/56/57 174/58/59 175/290/272
f 177/59/60 178/356/271 184/355/273 183/61/62
f 178/292/271 179/119/119 185/121/121 184/295/273
f 176/163/165 175/291/272 181/294/274 182/164/166
f 175/290/272 174/58/59 180/60/61 181/293/274
f 183/61/62 184/355/273 190/354/275 189/63/64
f 184/295/273 185/121/121 191/123/123 190/298/275
f 182/164/166 181/294/274 187/297/276 188/165/167
f 181/293/274 180/60/61 186/62/63 187/296/276
f 189/63/64 190/354/275 196/353/277 195/65/66
f 190/298/275 191/123/123 197/125/125 196/301/277
f 188/165/167 187/297/276 193/300/278 194/166/168
f 187/296/276 186/62/63 192/64/65 193/299/278
f 195/65/66 196/353/277 202/352/279 201/67/68
f 196/301/277 197/125/125 203/127/127 202/304/279
f 194/166/168 193/300/278 199/303/280 200/167/169
f 193/299/278 192/64/65 198/66/67 199/302/280
f 201/67/68 202/352/279 208/351/281 207/69/70
f 202/304/279 203/127/127 209/129/129 208/307/281
f 200/167/169 199/303/280 205/306/282 206/168/170
f 199/302/280 198/66/67 204/68/69 205/305/282
f 207/69/70 208/351/281 214/350/283 213/71/72
f 208/307/281 209/129/129 215/131/131 214/310/283
f 206/168/170 205/306/282 211/309/284 212/169/171
f 205/305/282 204/68/69 210/70/71 211/308/284
f 213/71/72 214/350/283 220/349/285 219/73/74
f 214/310/283 215/131/131 221/133/133 220/313/285
f 212/169/171 211/309/284 217/312/286 218/170/172
f 211/308/284 210/70/71 216/72/73 217/311/286
f 219/73/74 220/349/285 226/348/287 225/75/76
f 220/313/285 221/133/133 227/135/135 226/316/287
f 218/170/172 217/312/286 223/315/288 224/171/173
f 217/311/286 216/72/73 222/74/75 223/314/288
f 225/75/76 226/348/287 232/347/289 231/77/78
f 226/316/287 227/135/135 233/137/137 232/319/289
f 224/171/173 223/315/288 229/318/290 230/172/174
f 223/314/288 222/74/75 228/76/77 229/317/290
f 231/77/78 232/347/289 238/346/291 237/79/80
f 232/319/289 233/137/137 239/139/139 238/322/291
f 230/172/174 229/318/290 235/321/292 236/173/175
f 229/317/290 228/76/77 234/78/79 235/320/292
f 237/79/80 238/346/291 244/345/293 243/81/82
f 238/322/291 239/139/139 245/141/141 244/325/293
f 236/173/175 235/321/292 241/324/294 242/174/176
f 235/320/292 234/78/79 240/80/81 241/323/294
f 243/81/82 244/345/293 250/344/295 249/83/84
f 244/325/293 245/141/141 251/143/143 250/328/295
f 242/174/176 241/324/294 247/327/296 248/175/177
f 241/323/294 240/80/81 246/82/83 247/326/296
f 249/83/84 250/344/295 256/343/297 255/85/86
f 250/328/295 251/143/143 257/145/145 256/331/297
f 248/175/177 247/327/296 253/330/298 254/176/178
f 247/326/296 246/82/83 252/84/85 253/329/298
f 255/85/86 256/343/297 262/342/299 261/87/88
f 256/331/297 257/145/145 263/147/147 262/334/299
f 254/176/178 253/330/298 259/333/300 260/177/179
f 253/329/298 252/84/85 258/86/87 259/332/300
f 261/87/88 262/342/299 268/341/301 267/89/90
f 262/334/299 263/147/147 269/149/149 268/337/301
f 260/177/179 259/333/300 265/336/302 266/178/180
f 259/332/300 258/86/87 264/88/89 265/335/302
f 104/151/151 103/340/248 268/337/301 269/149/149
f 103/255/248 102/91/35 267/89/90 268/341/301
f 266/178/180 265/336/302 271/338/245 272/179/181
f 265/335/302 264/88/89 270/90/91 271/339/245
s 5
f 275/371/303 274/372/304 277/373/305 276/374/306
s 6
f 274/375/307 273/376/308 278/377/309 277/378/310
s 7
f 281/379/311 280/380/312 283/381/313 282/382/314
s 5
f 280/383/315 279/384/316 284/385/317 283/386/318
f 287/387/319 286/388/320 345/389/321 346/390/322
s 6
f 286/391/323 285/392/324 356/393/325 345/394/326
f 355/395/327 356/393/325 285/392/324 293/396/328
s 5
f 275/371/303 276/374/306 284/385/317 279/384/316
s 7
f 349/397/329 350/398/330 342/399/331 341/400/332
s 5
f 352/401/333 353/402/334 291/403/335 344/404/336
f 346/390/322 347/405/337 339/406/338 287/387/319
f 297/407/339 305/408/340 275/371/303 279/384/316
s 7
f 281/379/311 282/382/314 300/409/341 299/410/342
s 5
f 312/411/343 302/412/344 284/385/317 276/374/306
s 6
f 303/413/345 314/414/346 278/377/309 273/376/308
s 5
f 306/415/347 317/416/348 305/408/340 297/407/339
s 7
f 299/410/342 300/409/341 309/417/349 308/418/350
s 5
f 324/419/351 311/420/352 302/412/344 312/411/343
s 6
f 315/421/353 326/422/354 314/414/346 303/413/345
s 5
f 318/423/355 329/424/356 317/416/348 306/415/347
s 7
f 308/418/350 309/417/349 321/425/357 320/426/358
s 5
f 336/427/359 323/428/360 311/420/352 324/419/351
s 6
f 327/429/361 338/430/362 326/422/354 315/421/353
s 5
f 330/431/363 288/432/364 329/424/356 318/423/355
s 7
f 320/426/358 321/425/357 333/433/365 332/434/366
s 5
f 294/435/367 335/436/368 323/428/360 336/427/359
s 6
f 290/437/369 296/438/370 338/430/362 327/429/361
f 273/376/308 274/375/307 304/439/371 303/413/345
s 5
f 274/372/304 275/371/303 305/408/340 304/440/372
f 276/374/306 277/373/305 313/441/373 312/411/343
s 6
f 277/378/310 278/377/309 314/414/346 313/442/374
s 5
f 279/384/316 280/383/315 298/443/375 297/407/339
s 7
f 280/380/312 281/379/311 299/410/342 298/444/376
f 282/382/314 283/381/313 301/445/377 300/409/341
s 5
f 283/386/318 284/385/317 302/412/344 301/446/378
s 6
f 293/396/328 292/447/379 354/448/380 355/395/327
s 5
f 292/449/381 291/403/335 353/402/334 354/450/382
f 297/407/339 298/443/375 307/451/383 306/415/347
s 7
f 298/444/376 299/410/342 308/418/350 307/452/384
f 300/409/341 301/445/377 310/453/385 309/417/349
s 5
f 301/446/378 302/412/344 311/420/352 310/454/386
s 6
f 303/413/345 304/439/371 316/455/387 315/421/353
s 5
f 304/440/372 305/408/340 317/416/348 316/456/388
f 306/415/347 307/451/383 319/457/389 318/423/355
s 7
f 307/452/384 308/418/350 320/426/358 319/458/390
f 309/417/349 310/453/385 322/459/391 321/425/357
s 5
f 310/454/386 311/420/352 323/428/360 322/460/392
f 312/411/343 313/441/373 325/461/393 324/419/351
s 6
f 313/442/374 314/414/346 326/422/354 325/462/394
f 315/421/353 316/455/387 328/463/395 327/429/361
s 5
f 316/456/388 317/416/348 329/424/356 328/464/396
f 318/423/355 319/457/389 331/465/397 330/431/363
s 7
f 319/458/390 320/426/358 332/434/366 331/466/398
f 321/425/357 322/459/391 334/467/399 333/433/365
s 5
f 322/460/392 323/428/360 335/436/368 334/468/400
f 324/419/351 325/461/393 337/469/401 336/427/359
s 6
f 325/462/394 326/422/354 338/430/362 337/470/402
s 5
f 288/432/364 289/471/403 328/464/396 329/424/356
s 6
f 289/472/404 290/437/369 327/429/361 328/463/395
s 5
f 347/405/337 348/473/405 340/474/406 339/406/338
s 7
f 348/475/407 349/397/329 341/400/332 340/476/408
f 350/398/330 351/477/409 343/478/410 342/399/331
s 5
f 351/479/411 352/401/333 344/404/336 343/480/412
s 6
f 296/438/370 295/481/413 337/470/402 338/430/362
s 5
f 295/482/414 294/435/367 336/427/359 337/469/401
f 346/390/322 345/389/321 289/471/403 288/432/364
f 330/431/363 347/405/337 346/390/322 288/432/364
f 330/431/363 331/465/397 348/473/405 347/405/337
s 7
f 331/466/398 332/434/366 349/397/329 348/475/407
f 332/434/366 333/433/365 350/398/330 349/397/329
f 333/433/365 334/467/399 351/477/409 350/398/330
s 5
f 334/468/400 335/436/368 352/401/333 351/479/411
f 294/435/367 353/402/334 352/401/333 335/436/368
f 354/450/382 353/402/334 294/435/367 295/482/414
s 6
f 355/395/327 354/448/380 295/481/413 296/438/370
f 290/437/369 356/393/325 355/395/327 296/438/370
f 345/394/326 356/393/325 290/437/369 289/472/404
s 13
f 359/483/415 358/484/416 361/485/417 360/486/418
s 14
f 358/487/419 357/488/420 362/489/421 361/490/422
s 15
f 365/491/423 364/492/424 367/493/425 366/494/426
s 13
f 364/495/427 363/496/428 368/497/429 367/498/430
f 371/499/431 370/500/432 429/501/433 430/502/434
s 14
f 370/503/435 369/504/436 440/505/437 429/506/438
f 439/507/439 440/505/437 369/504/436 377/508/440
s 13
f 359/483/415 360/486/418 368/497/429 363/496/428
s 15
f 433/509/441 434/510/442 426/511/443 425/512/444
s 13
f 436/513/445 437/514/446 375/515/447 428/516/448
f 430/502/434 431/517/449 423/518/450 371/499/431
f 381/519/451 389/520/452 359/483/415 363/496/428
s 15
f 365/491/423 366/494/426 384/521/453 383/522/454
s 13
f 396/523/455 386/524/456 368/497/429 360/486/418
s 14
f 387/525/457 398/526/458 362/489/421 357/488/420
s 13
f 390/527/459 401/528/460 389/520/452 381/519/451
s 15
f 383/522/454 384/521/453 393/529/461 392/530/462
s 13
f 408/531/463 395/532/464 386/524/456 396/523/455
s 14
f 399/533/465 410/534/466 398/526/458 387/525/457
s 13
f 402/535/467 413/536/468 401/528/460 390/527/459
s 15
f 392/530/462 393/529/461 405/537/469 404/538/470
s 13
f 420/539/471 407/540/472 395/532/464 408/531/463
s 14
f 411/541/473 422/542/474 410/534/466 399/533/465
s 13
f 414/543/475 372/544/476 413/536/468 402/535/467
s 15
f 404/538/470 405/537/469 417/545/477 416/546/478
s 13
f 378/547/479 419/548/480 407/540/472 420/539/471
s 14
f 374/549/481 380/550/482 422/542/474 411/541/473
f 357/488/420 358/487/419 388/551/483 387/525/457
s 13
f 358/484/416 359/483/415 389/520/452 388/552/484
f 360/486/418 361/485/417 397/553/485 396/523/455
s 14
f 361/490/422 362/489/421 398/526/458 397/554/486
s 13
f 363/496/428 364/495/427 382/555/487 381/519/451
s 15
f 364/492/424 365/491/423 383/522/454 382/556/488
f 366/494/426 367/493/425 385/557/489 384/521/453
s 13
f 367/498/430 368/497/429 386/524/456 385/558/490
s 14
f 377/508/440 376/559/491 438/560/492 439/507/439
s 13
f 376/561/493 375/515/447 437/514/446 438/562/494
f 381/519/451 382/555/487 391/563/495 390/527/459
s 15
f 382/556/488 383/522/454 392/530/462 391/564/496
f 384/521/453 385/557/489 394/565/497 393/529/461
s 13
f 385/558/490 386/524/456 395/532/464 394/566/498
s 14
f 387/525/457 388/551/483 400/567/499 399/533/465
s 13
f 388/552/484 389/520/452 401/528/460 400/568/500
f 390/527/459 391/563/495 403/569/501 402/535/467
s 15
f 391/564/496 392/530/462 404/538/470 403/570/502
f 393/529/461 394/565/497 406/571/503 405/537/469
s 13
f 394/566/498 395/532/464 407/540/472 406/572/504
f 396/523/455 397/553/485 409/573/505 408/531/463
s 14
f 397/554/486 398/526/458 410/534/466 409/574/506
f 399/533/465 400/567/499 412/575/507 411/541/473
s 13
f 400/568/500 401/528/460 413/536/468 412/576/508
f 402/535/467 403/569/501 415/577/509 414/543/475
s 15
f 403/570/502 404/538/470 416/546/478 415/578/510
f 405/537/469 406/571/503 418/579/511 417/545/477
s 13
f 406/572/504 407/540/472 419/548/480 418/580/512
f 408/531/463 409/573/505 421/581/513 420/539/471
s 14
f 409/574/506 410/534/466 422/542/474 421/582/514
s 13
f 372/544/476 373/583/515 412/576/508 413/536/468
s 14
f 373/584/516 374/549/481 411/541/473 412/575/507
s 13
f 431/517/449 432/585/517 424/586/518 423/518/450
s 15
f 432/587/519 433/509/441 425/512/444 424/588/520
f 434/510/442 435/589/521 427/590/522 426/511/443
s 13
f 435/591/523 436/513/445 428/516/448 427/592/524
s 14
f 380/550/482 379/593/525 421/582/514 422/542/474
s 13
f 379/594/526 378/547/479 420/539/471 421/581/513
f 430/502/434 429/501/433 373/583/515 372/544/476
f 414/543/475 431/517/449 430/502/434 372/544/476
f 414/543/475 415/577/509 432/585/517 431/517/449
s 15
f 415/578/510 416/546/478 433/509/441 432/587/519
f 416/546/478 417/545/477 434/510/442 433/509/441
f 417/545/477 418/579/511 435/589/521 434/510/442
s 13
f 418/580/512 419/548/480 436/513/445 435/591/523
f 378/547/479 437/514/446 436/513/445 419/548/480
f 438/562/494 437/514/446 378/547/479 379/594/526
s 14
f 439/507/439 438/560/492 379/593/525 380/550/482
f 374/549/481 440/505/437 439/507/439 380/550/482
f 429/506/438 440/505/437 374/549/481 373/584/516
