# This file uses centimeters as units for non-parametric coordinates.

mtllib level selector.mtl
g default
v -0.068888 -0.476022 -0.007580
v -0.054579 -0.484301 -0.019921
v -0.045304 -0.495818 -0.011626
v -0.032682 -0.500000 0.000000
v -0.044942 -0.495502 0.012262
v -0.054119 -0.483142 0.021415
v -0.068866 -0.474909 0.008692
v -0.080712 -0.454537 0.000021
v 0.007732 -0.475845 0.068939
v 0.000021 -0.454537 0.080712
v -0.007580 -0.476020 0.068886
v -0.019921 -0.484301 0.054579
v -0.011625 -0.495818 0.045303
v 0.000000 -0.500000 0.032682
v 0.011630 -0.495819 0.045303
v 0.019936 -0.484306 0.054576
v 0.068938 -0.475842 -0.007714
v 0.080712 -0.454537 0.000021
v 0.068937 -0.475845 0.007736
v 0.054576 -0.484306 0.019936
v 0.045305 -0.495819 0.011629
v 0.032686 -0.500000 -0.000000
v 0.045305 -0.495818 -0.011625
v 0.054579 -0.484301 -0.019921
v 0.007711 -0.475827 -0.068952
v 0.019921 -0.484301 -0.054579
v 0.011626 -0.495818 -0.045304
v -0.000000 -0.500000 -0.032682
v -0.012258 -0.495499 -0.044941
v -0.021402 -0.483134 -0.054121
v -0.008672 -0.474887 -0.068877
v -0.000000 -0.454488 -0.080734
v -0.457119 0.410520 0.397554
v -0.447689 0.410920 0.412115
v -0.449202 0.426528 0.419145
v -0.442093 0.444730 0.426012
v -0.454240 0.444011 0.409364
v -0.458500 0.443251 0.391208
v -0.463477 0.426797 0.385854
v -0.460430 0.409916 0.378780
v -0.404228 0.495327 0.423234
v -0.405971 0.500000 0.405971
v -0.423301 0.495383 0.404349
v -0.436033 0.482601 0.400742
v -0.434923 0.477373 0.418152
v -0.431236 0.463381 0.431286
v -0.417849 0.477261 0.434792
v -0.400257 0.482416 0.435853
v -0.404228 0.495327 -0.423240
v -0.400257 0.482416 -0.435853
v -0.417875 0.477271 -0.434656
v -0.430953 0.463462 -0.430953
v -0.434394 0.478076 -0.418032
v -0.435223 0.483550 -0.401921
v -0.423192 0.495513 -0.405083
v -0.405971 0.500000 -0.405971
v -0.456691 0.409427 -0.396094
v -0.459951 0.408825 -0.377344
v -0.462952 0.425713 -0.383977
v -0.457980 0.442635 -0.389545
v -0.453740 0.443420 -0.408226
v -0.441667 0.444182 -0.425377
v -0.448824 0.425530 -0.418025
v -0.447405 0.409996 -0.410808
v -0.383597 0.425614 0.462908
v -0.389545 0.442635 0.457980
v -0.408275 0.443478 0.453813
v -0.425660 0.444506 0.441887
v -0.418339 0.425869 0.448979
v -0.411080 0.410101 0.447439
v -0.395921 0.409033 0.456459
v -0.376043 0.408021 0.459597
v 0.397602 0.410603 0.457206
v 0.412324 0.411194 0.447932
v 0.419439 0.426780 0.449361
v 0.426426 0.445165 0.442137
v 0.409423 0.444099 0.454301
v 0.391277 0.443176 0.458544
v 0.385922 0.426792 0.463494
v 0.378815 0.409938 0.460440
v 0.423327 0.495375 0.404440
v 0.406043 0.500000 0.406043
v 0.404380 0.495389 0.423315
v 0.400742 0.482601 0.436033
v 0.418272 0.477453 0.434965
v 0.431531 0.463566 0.431531
v 0.434984 0.477450 0.418238
v 0.436033 0.482601 0.400742
v 0.457202 0.410598 0.397606
v 0.460440 0.409938 0.378815
v 0.463385 0.426855 0.385540
v 0.458235 0.443715 0.390785
v 0.454018 0.444498 0.409444
v 0.441985 0.445272 0.426545
v 0.449297 0.426746 0.419481
v 0.447932 0.411194 0.412324
v 0.456691 0.409427 -0.396094
v 0.447405 0.409996 -0.410808
v 0.448949 0.425600 -0.417947
v 0.441961 0.443971 -0.425140
v 0.454024 0.442970 -0.408199
v 0.458240 0.442165 -0.389963
v 0.463059 0.425692 -0.384452
v 0.459951 0.408825 -0.377344
v 0.418030 0.478078 -0.434395
v 0.401921 0.483550 -0.435223
v 0.405082 0.495513 -0.423198
v 0.405971 0.500000 -0.405971
v 0.423224 0.495340 -0.404177
v 0.435853 0.482416 -0.400257
v 0.434651 0.477280 -0.417872
v 0.430953 0.463462 -0.430953
v -0.383584 0.425577 -0.462891
v -0.376022 0.407977 -0.459578
v -0.395932 0.409047 -0.456429
v -0.410808 0.409996 -0.447405
v -0.417939 0.425593 -0.448954
v -0.425140 0.443971 -0.441961
v -0.408224 0.443223 -0.453813
v -0.389540 0.442612 -0.457964
v 0.396089 0.409420 -0.456688
v 0.377326 0.408785 -0.459933
v 0.383965 0.425678 -0.462935
v 0.389540 0.442612 -0.457964
v 0.408228 0.443415 -0.453732
v 0.425383 0.444187 -0.441660
v 0.418027 0.425528 -0.448821
v 0.410808 0.409996 -0.447405
v -0.057944 -0.490296 0.000286
v 0.000024 -0.490573 0.057974
v 0.058002 -0.490521 0.000005
v -0.000262 -0.490238 -0.057973
v -0.459751 0.426887 0.403966
v -0.421809 0.490527 0.421832
v -0.421771 0.490661 -0.421859
v -0.459268 0.425800 -0.402511
v -0.402525 0.425841 0.459264
v 0.404030 0.426954 0.459819
v 0.421929 0.490586 0.421916
v 0.459721 0.426985 0.403985
v 0.459378 0.425798 -0.402580
v 0.421844 0.490669 -0.421762
v -0.402475 0.425747 -0.459232
v 0.402508 0.425788 -0.459262
vt 0.477250 0.102197
vt 0.506633 0.079605
vt 0.524521 0.103918
vt 0.495961 0.133338
vt 0.504210 0.076323
vt 0.497025 0.130557
vt 0.545132 0.056221
vt 0.484904 0.046726
vt 0.519129 0.094460
vt 0.910302 0.895958
vt 0.056788 0.908100
vt 0.926670 0.923133
vt 0.097874 0.906567
vt 0.887165 0.926239
vt 0.065643 0.060580
vt 0.937348 0.938930
vt 0.042244 0.939883
vt 0.061414 0.931999
vt 0.909444 0.962204
vt 0.085101 0.934938
vt 0.037345 0.956098
vt 0.915477 0.894504
vt 0.044941 0.937886
vt 0.932681 0.922012
vt 0.096169 0.909366
vt 0.872842 0.901649
vt 0.910270 0.898909
vt 0.960351 0.888212
vt 0.902759 0.965445
vt 0.926965 0.926379
vt 0.932861 0.936872
vt 0.937287 0.942135
vt 0.949865 0.923391
vt 0.096629 0.909301
vt 0.876937 0.896823
vt 0.914408 0.893838
vt 0.055329 0.907634
vt 0.908340 0.961094
vt 0.931387 0.921197
vt 0.032336 0.960485
vt 0.039904 0.942002
vt 0.093366 0.909988
vt 0.892021 0.925468
vt 0.080604 0.938812
vt 0.903030 0.962393
vt 0.069886 0.972892
vt 0.473512 0.101056
vt 0.067925 0.975427
vt 0.082105 0.938462
vt 0.887011 0.929009
vt 0.071690 0.974470
vt 0.084141 0.937903
vt 0.891382 0.924202
vt 0.519860 0.101436
vt 0.567341 0.086336
vt 0.060394 0.904014
vt 0.065443 0.977369
vt 0.520759 0.098628
vt 0.471200 0.092986
vt 0.937806 0.064681
vt 0.876446 0.896835
vt 0.493583 0.126125
vt 0.499069 0.134977
vt 0.873124 0.898946
vt 0.491575 0.114938
vt 0.490292 0.089548
vt 0.515930 0.091565
vt 0.508588 0.115943
vt 0.504465 0.113446
vt 0.488332 0.113241
vt 0.489156 0.085229
vt 0.482736 0.088536
vt 0.513118 0.088799
vt 0.505475 0.110739
vt 0.489246 0.110540
vt 0.555191 0.068113
vt 0.559985 0.073793
vt 0.513032 0.086690
vt 0.485698 0.105978
vt 0.484168 0.080077
vt 0.510185 0.081967
vt 0.503072 0.106756
vt 0.892696 0.898555
vt 0.916223 0.909054
vt 0.905906 0.924595
vt 0.880620 0.912570
vt 0.067201 0.041407
vt 0.046403 0.061846
vt 0.922347 0.953606
vt 0.048659 0.969167
vt 0.062767 0.951195
vt 0.929186 0.953324
vt 0.052714 0.967487
vt 0.042346 0.931311
vt 0.078196 0.906297
vt 0.091182 0.920563
vt 0.065804 0.935337
vt 0.053766 0.919972
vt 0.088561 0.923995
vt 0.063098 0.938402
vt 0.051657 0.923295
vt 0.075192 0.909622
vt 0.892480 0.901307
vt 0.916343 0.912033
vt 0.905813 0.927527
vt 0.880440 0.915326
vt 0.956988 0.066122
vt 0.936502 0.045516
vt 0.922244 0.956747
vt 0.052792 0.969279
vt 0.076778 0.909160
vt 0.089866 0.923424
vt 0.064751 0.938323
vt 0.958783 0.904456
vt 0.896598 0.896359
vt 0.920560 0.906978
vt 0.910304 0.922555
vt 0.884583 0.910502
vt 0.047997 0.971965
vt 0.932153 0.955945
vt 0.952023 0.935475
vt 0.927928 0.952278
vt 0.884668 0.911215
vt 0.897437 0.896717
vt 0.921732 0.907705
vt 0.911543 0.923597
vt 0.073400 0.909850
vt 0.086674 0.924206
vt 0.061038 0.939322
vt 0.048728 0.923814
vt 0.501058 0.101170
vt 0.497327 0.098243
vt 0.498601 0.096329
vt 0.495237 0.091844
vt 0.898389 0.911417
vt 0.048086 0.042846
vt 0.043740 0.949562
vt 0.072516 0.920303
vt 0.069836 0.923669
vt 0.898279 0.914225
vt 0.955571 0.047125
vt 0.071195 0.923251
vt 0.902509 0.909304
vt 0.950377 0.954546
vt 0.903512 0.910010
vt 0.067741 0.924057
vt 0.971367 0.932692
vt 0.970480 0.955091
vt 0.950727 0.973938
vt 0.929949 0.974067
vt 0.972520 0.976451
vt 0.956267 0.027073
vt 0.977787 0.025099
vt 0.975647 0.046638
vt 0.933995 0.026214
vt 0.976296 0.068884
vt 0.024357 0.949906
vt 0.024218 0.929127
vt 0.043199 0.969667
vt 0.021845 0.971697
vt 0.065602 0.970572
vt 0.027955 0.042101
vt 0.026200 0.020508
vt 0.047827 0.022679
vt 0.027044 0.064288
vt 0.070227 0.022058
vt 0.043858 0.941016
vt 0.052361 0.923059
vt 0.058838 0.906973
vt 0.487876 0.084726
vt 0.504060 0.074468
vt 0.474906 0.097619
vt 0.955705 0.917855
vt 0.942800 0.937651
vt 0.965842 0.882488
vt 0.567379 0.081755
vt 0.964443 0.898727
vt 0.036942 0.958518
vt 0.548475 0.056817
vt 0.557954 0.069275
vt 0.500401 0.069865
vt 0.957240 0.918622
vt 0.944178 0.938596
vt 0.967596 0.882935
vt 0.563944 0.077030
vt 0.966112 0.899326
vt 0.554670 0.064379
vt 0.545029 0.051665
vt 0.960528 0.884198
vt 0.568853 0.086990
vt 0.527357 0.028744
vt 0.549803 0.061745
vt 0.559573 0.074410
vt 0.032809 0.956781
vt 0.950298 0.919621
vt 0.959069 0.900618
vn -0.625532 -0.530320 -0.572250
vn -0.765103 -0.511832 -0.390699
vn -0.795306 -0.496337 -0.348048
vn -0.631656 -0.523867 -0.571467
vn -0.909524 -0.415649 0.001269
vn -0.918856 -0.394457 -0.010381
vn -0.097941 -0.995192 -0.000396
vn -0.385980 -0.876158 -0.288731
vn -0.293689 -0.871933 -0.391764
vn -0.001111 -0.995243 -0.097418
vn -0.573029 -0.530144 -0.624968
vn -0.622583 -0.530479 0.575310
vn -0.391383 -0.872052 0.293846
vn -0.293932 -0.875375 0.383826
vn -0.569354 -0.530398 0.628104
vn -0.001493 -0.995463 0.095135
vn -0.763637 -0.512069 0.393249
vn -0.791665 -0.497976 0.353959
vn -0.918747 -0.394684 0.011315
vn -0.629590 -0.524168 0.573467
vn -0.000126 -0.415225 0.909719
vn 0.391313 -0.511750 0.764843
vn 0.348336 -0.496770 0.794910
vn 0.010447 -0.394350 0.918901
vn 0.572711 -0.530692 0.624794
vn 0.571393 -0.524321 0.631346
vn -0.387535 -0.510840 0.767372
vn -0.346519 -0.496045 0.796155
vn -0.569264 -0.523968 0.633558
vn -0.010567 -0.394433 0.918864
vn 0.288366 -0.877738 0.382649
vn 0.382833 -0.877732 0.288141
vn 0.624783 -0.530697 0.572720
vn 0.094592 -0.995516 -0.000023
vn 0.909731 -0.415198 0.000035
vn 0.765005 -0.511471 -0.391363
vn 0.795213 -0.496481 -0.348056
vn 0.918901 -0.394350 -0.010409
vn 0.624717 -0.530218 -0.573234
vn 0.631250 -0.523919 -0.571867
vn 0.764874 -0.511774 0.391223
vn 0.795014 -0.496630 0.348298
vn 0.631348 -0.524305 0.571405
vn 0.918864 -0.394435 0.010458
vn 0.382999 -0.877591 -0.288349
vn 0.282948 -0.878392 -0.385185
vn 0.573158 -0.530267 -0.624745
vn 0.390625 -0.511774 -0.765179
vn 0.348175 -0.496358 -0.795238
vn 0.571856 -0.523902 -0.631275
vn -0.001357 -0.415703 -0.909500
vn 0.010449 -0.394389 -0.918884
vn -0.388787 -0.511037 -0.766606
vn -0.352126 -0.497295 -0.792910
vn -0.011510 -0.394694 -0.918741
vn -0.571964 -0.523895 -0.631183
vn -0.751016 0.145981 0.643944
vn -0.730792 -0.186738 0.656560
vn -0.635511 -0.187145 0.749068
vn -0.617933 0.144221 0.772890
vn -0.893777 0.448503 0.002962
vn -0.875832 0.327712 0.354293
vn -0.796017 0.466953 0.385114
vn -0.823763 0.566918 0.004238
vn -0.658015 0.319640 0.681797
vn -0.993968 0.109594 0.004001
vn -0.994188 0.107518 -0.005426
vn -0.893433 0.449176 -0.004224
vn -0.005211 0.999972 0.005287
vn -0.006196 0.876677 0.481039
vn 0.005889 0.875822 0.482597
vn 0.005311 0.999972 0.005298
vn -0.005044 0.568205 0.822871
vn 0.004023 0.567154 0.823602
vn -0.474446 0.880262 0.006301
vn -0.477786 0.878455 -0.006083
vn -0.822837 0.568254 -0.005136
vn -0.005336 0.999972 -0.005212
vn -0.368964 0.458694 0.808372
vn -0.336309 0.318130 0.886391
vn -0.004298 0.448339 0.893853
vn -0.004752 0.563239 -0.826281
vn -0.006119 0.879586 -0.475701
vn 0.005973 0.876821 -0.480779
vn 0.004647 0.563575 -0.826052
vn 0.005268 0.999972 -0.005366
vn -0.673095 0.306121 -0.673226
vn -0.374185 0.453006 -0.809179
vn -0.342890 0.316078 -0.884602
vn -0.632074 0.135437 -0.762980
vn -0.003641 0.443447 -0.896294
vn -0.806314 0.448621 -0.385483
vn -0.883694 0.312074 -0.348848
vn -0.763067 0.135068 -0.632048
vn -0.739475 -0.189539 -0.645951
vn -0.645114 -0.191050 -0.739816
vn -0.005558 0.105189 0.994437
vn 0.003790 0.104431 0.994525
vn 0.002902 0.447706 0.894176
vn 0.630710 0.154396 0.760504
vn 0.647684 -0.181659 0.739937
vn 0.741775 -0.179134 0.646283
vn 0.761807 0.153844 0.629271
vn 0.346503 0.330624 0.877852
vn 0.375605 0.470687 0.798357
vn 0.668202 0.329141 0.667212
vn 0.482551 0.875848 0.005918
vn 0.481203 0.876589 -0.005963
vn 0.823249 0.567666 0.004044
vn 0.823218 0.567703 -0.005121
vn 0.799477 0.469936 0.374161
vn 0.879171 0.329951 0.343789
vn 0.893959 0.448139 0.002944
vn 0.994156 0.107876 0.004178
vn 0.993912 0.110055 -0.005210
vn 0.893849 0.448347 -0.004317
vn 0.761821 0.136048 -0.633341
vn 0.737484 -0.192291 -0.647411
vn 0.645894 -0.189486 -0.739538
vn 0.631942 0.135102 -0.763149
vn 0.882374 0.317567 -0.347230
vn 0.808114 0.453743 -0.375592
vn 0.672793 0.306178 -0.673502
vn 0.385313 0.448597 -0.806408
vn 0.348426 0.312012 -0.883882
vn 0.003505 0.443491 -0.896272
vn -0.004774 0.105210 -0.994439
vn 0.004512 0.102111 -0.994763
vn -0.641830 -0.766311 0.028662
vn 0.000806 -0.770516 0.637420
vn 0.638589 -0.769548 -0.000087
vn -0.027902 -0.765301 -0.643068
vn -0.921297 -0.048221 0.385859
vn -0.489110 0.714368 0.500449
vn -0.480231 0.710962 -0.513723
vn -0.925619 -0.044554 -0.375826
vn -0.364190 -0.051808 0.929883
vn 0.381230 -0.046278 0.923321
vn 0.491302 0.718977 0.491625
vn 0.926002 -0.035185 0.375876
vn 0.923319 -0.055146 -0.380053
vn 0.513724 0.711197 -0.479882
vn -0.366623 -0.052568 -0.928883
vn 0.375419 -0.044315 -0.925795
s 1
g level_selector
usemtl initialShadingGroup
f 2/1/1 1/65/2 57/95/3 64/56/4
f 1/65/2 8/63/5 58/13/6 57/95/3
f 4/188/7 3/187/8 29/81/9 28/181/10
f 3/187/8 2/185/1 30/9/11 29/81/9
f 6/3/12 5/67/13 13/193/14 12/190/15
f 5/67/13 4/2/7 14/192/16 13/193/14
f 8/63/5 7/68/17 33/83/18 40/64/19
f 7/68/17 6/3/12 34/10/20 33/83/18
f 10/4/21 9/69/22 73/103/23 80/26/24
f 9/69/22 16/54/25 74/27/26 73/103/23
f 12/47/15 11/70/27 71/102/28 70/11/29
f 11/70/27 10/4/21 72/25/30 71/102/28
f 16/54/25 15/73/31 21/77/32 20/55/33
f 15/73/31 14/5/16 22/7/34 21/76/32
f 18/6/35 17/74/36 97/115/37 104/35/38
f 17/74/36 24/58/39 98/36/40 97/115/37
f 20/172/33 19/75/41 89/111/42 96/169/43
f 19/75/41 18/6/35 90/34/44 89/111/42
f 24/58/39 23/78/45 27/180/46 26/176/47
f 23/78/45 22/171/34 28/179/10 27/180/46
f 26/59/47 25/79/48 121/127/49 128/37/50
f 25/79/48 32/62/51 122/42/52 121/127/49
f 32/62/51 31/82/53 115/124/54 114/61/55
f 31/82/53 30/9/11 116/22/56 115/124/54
f 36/12/57 35/84/58 69/196/59 68/195/60
f 35/84/58 34/10/20 70/189/29 69/196/59
f 38/14/61 37/85/62 45/89/63 44/45/64
f 37/85/62 36/12/57 46/16/65 45/89/63
f 40/64/19 39/86/66 59/96/67 58/13/6
f 39/86/66 38/14/61 60/20/68 59/96/67
f 42/15/69 41/87/70 83/108/71 82/60/72
f 41/87/70 48/166/73 84/155/74 83/108/71
f 44/165/64 43/88/75 55/94/76 54/158/77
f 43/88/75 42/15/69 56/18/78 55/94/76
f 48/48/73 47/90/79 67/100/80 66/49/81
f 47/90/79 46/194/65 68/17/60 67/100/80
f 50/161/82 49/91/83 107/120/84 106/150/85
f 49/91/83 56/18/78 108/31/86 107/120/84
f 52/183/87 51/92/88 119/126/89 118/24/90
f 51/92/88 50/19/82 120/43/91 119/126/89
f 54/46/77 53/93/92 61/97/93 60/20/68
f 53/93/92 52/21/87 62/23/94 61/97/93
f 64/184/4 63/186/95 117/125/96 116/22/56
f 63/186/95 62/182/94 118/24/90 117/125/96
f 66/49/81 65/99/97 79/106/98 78/50/99
f 65/99/97 72/25/30 80/26/24 79/106/98
f 76/30/100 75/104/101 95/114/102 94/33/103
f 75/104/101 74/27/26 96/28/43 95/114/102
f 78/50/99 77/105/104 85/109/105 84/29/74
f 77/105/104 76/30/100 86/32/106 85/109/105
f 82/60/72 81/107/107 109/121/108 108/31/86
f 81/107/107 88/156/109 110/147/110 109/121/108
f 88/51/109 87/110/111 93/113/112 92/52/113
f 87/110/111 86/178/106 94/167/103 93/113/112
f 92/52/113 91/112/114 103/118/115 102/53/116
f 91/112/114 90/34/44 104/35/38 103/118/115
f 100/39/117 99/116/118 127/177/119 126/173/120
f 99/116/118 98/36/40 128/175/50 127/177/119
f 102/53/116 101/117/121 111/122/122 110/38/110
f 101/117/121 100/39/117 112/174/123 111/122/122
f 106/57/85 105/119/124 125/129/125 124/44/126
f 105/119/124 112/40/123 126/41/120 125/129/125
f 114/61/55 113/123/127 123/128/128 122/42/52
f 113/123/127 120/43/91 124/44/126 123/128/128
f 4/2/7 28/8/10 22/191/34 14/192/16
f 38/14/61 44/45/64 54/46/77 60/20/68
f 70/189/29 34/10/20 6/3/12 12/190/15
f 48/48/73 66/49/81 78/50/99 84/29/74
f 88/51/109 92/52/113 102/53/116 110/38/110
f 96/28/43 74/27/26 16/54/25 20/55/33
f 64/184/4 116/22/56 30/9/11 2/185/1
f 120/43/91 50/19/82 106/57/85 124/44/126
f 128/175/50 98/36/40 24/58/39 26/176/47
f 72/25/30 10/4/21 80/26/24
f 42/15/69 82/60/72 108/31/86 56/18/78
f 114/61/55 122/42/52 32/62/51
f 90/34/44 18/6/35 104/35/38
f 58/13/6 8/63/5 40/64/19
f 36/12/57 68/195/60 46/16/65
f 86/32/106 76/30/100 94/33/103
f 62/182/94 52/183/87 118/24/90
f 126/173/120 112/174/123 100/39/117
f 7/68/17 8/63/5 1/65/2 129/131/129
f 1/65/2 2/1/1 3/66/8 129/131/129
f 3/66/8 4/2/7 5/67/13 129/131/129
f 5/67/13 6/3/12 7/68/17 129/131/129
f 15/73/31 16/54/25 9/69/22 130/132/130
f 9/69/22 10/4/21 11/70/27 130/132/130
f 11/70/27 12/47/15 13/72/14 130/132/130
f 13/71/14 14/5/16 15/73/31 130/132/130
f 23/78/45 24/58/39 17/74/36 131/133/131
f 17/74/36 18/6/35 19/75/41 131/133/131
f 19/75/41 20/172/33 21/170/32 131/133/131
f 21/170/32 22/171/34 23/78/45 131/133/131
f 31/82/53 32/62/51 25/79/48 132/134/132
f 25/79/48 26/59/47 27/80/46 132/134/132
f 27/80/46 28/181/10 29/81/9 132/134/132
f 29/81/9 30/9/11 31/82/53 132/134/132
f 39/86/66 40/64/19 33/83/18 133/135/133
f 33/83/18 34/10/20 35/84/58 133/135/133
f 35/84/58 36/12/57 37/85/62 133/135/133
f 37/85/62 38/14/61 39/86/66 133/135/133
f 47/164/79 48/166/73 41/87/70 134/136/134
f 41/87/70 42/15/69 43/88/75 134/136/134
f 43/88/75 44/165/64 45/162/63 134/136/134
f 45/162/63 46/163/65 47/164/79 134/136/134
f 55/94/76 56/18/78 49/91/83 135/137/135
f 49/91/83 50/161/82 51/159/88 135/137/135
f 51/159/88 52/160/87 53/157/92 135/137/135
f 53/157/92 54/158/77 55/94/76 135/137/135
f 63/98/95 64/56/4 57/95/3 136/138/136
f 57/95/3 58/13/6 59/96/67 136/138/136
f 59/96/67 60/20/68 61/97/93 136/138/136
f 61/97/93 62/23/94 63/98/95 136/138/136
f 71/102/28 72/25/30 65/99/97 137/139/137
f 65/99/97 66/49/81 67/100/80 137/139/137
f 67/100/80 68/17/60 69/101/59 137/139/137
f 69/101/59 70/11/29 71/102/28 137/139/137
f 79/106/98 80/26/24 73/103/23 138/140/138
f 73/103/23 74/27/26 75/104/101 138/140/138
f 75/104/101 76/30/100 77/105/104 138/140/138
f 77/105/104 78/50/99 79/106/98 138/140/138
f 87/154/111 88/156/109 81/107/107 139/141/139
f 81/107/107 82/60/72 83/108/71 139/141/139
f 83/108/71 84/155/74 85/152/105 139/141/139
f 85/152/105 86/153/106 87/154/111 139/141/139
f 95/168/102 96/169/43 89/111/42 140/142/140
f 89/111/42 90/34/44 91/112/114 140/142/140
f 91/112/114 92/52/113 93/113/112 140/142/140
f 93/113/112 94/167/103 95/168/102 140/142/140
f 103/118/115 104/35/38 97/115/37 141/143/141
f 97/115/37 98/36/40 99/116/118 141/143/141
f 99/116/118 100/39/117 101/117/121 141/143/141
f 101/117/121 102/53/116 103/118/115 141/143/141
f 111/148/122 112/151/123 105/149/124 142/144/142
f 105/149/124 106/150/85 107/120/84 142/144/142
f 107/120/84 108/31/86 109/121/108 142/144/142
f 109/121/108 110/147/110 111/148/122 142/144/142
f 119/126/89 120/43/91 113/123/127 143/145/143
f 113/123/127 114/61/55 115/124/54 143/145/143
f 115/124/54 116/22/56 117/125/96 143/145/143
f 117/125/96 118/24/90 119/126/89 143/145/143
f 127/130/119 128/37/50 121/127/49 144/146/144
f 121/127/49 122/42/52 123/128/128 144/146/144
f 123/128/128 124/44/126 125/129/125 144/146/144
f 125/129/125 126/41/120 127/130/119 144/146/144
