# This file uses centimeters as units for non-parametric coordinates.

mtllib level_thingy.mtl
g default
v -0.678095 -0.173747 0.636501
v -0.642496 -0.197505 0.642496
v -0.636655 -0.173690 0.678062
v -0.618891 -0.127117 0.676783
v -0.659825 -0.127130 0.659839
v -0.676783 -0.127117 0.618891
v 0.678095 -0.173747 0.636501
v 0.676783 -0.127117 0.618891
v 0.659289 -0.126433 0.659296
v 0.617039 -0.125763 0.676046
v 0.635671 -0.173352 0.677864
v 0.642496 -0.197505 0.642496
v -0.493845 0.186031 0.457227
v -0.522334 0.156493 0.470569
v -0.506314 0.154510 0.508783
v -0.467719 0.152521 0.524498
v -0.455447 0.184483 0.495089
v -0.453301 0.197505 0.453301
v 0.493845 0.186031 0.457227
v 0.453301 0.197505 0.453301
v 0.457255 0.186049 0.493826
v 0.470569 0.156493 0.522334
v 0.507138 0.156583 0.507138
v 0.522334 0.156493 0.470569
v -0.507914 0.152471 -0.507859
v -0.524498 0.152521 -0.467719
v -0.495089 0.184483 -0.455447
v -0.453301 0.197505 -0.453301
v -0.455475 0.184502 -0.495065
v -0.467719 0.152521 -0.524498
v 0.507914 0.152471 -0.507859
v 0.467719 0.152521 -0.524498
v 0.455447 0.184483 -0.495089
v 0.453301 0.197505 -0.453301
v 0.495089 0.184483 -0.455447
v 0.524498 0.152521 -0.467719
v -0.678062 -0.173690 -0.636655
v -0.676783 -0.127117 -0.618891
v -0.659289 -0.126433 -0.659296
v -0.617039 -0.125763 -0.676046
v -0.635827 -0.173295 -0.677826
v -0.642496 -0.197505 -0.642496
v 0.678062 -0.173690 -0.636655
v 0.642496 -0.197505 -0.642496
v 0.636655 -0.173690 -0.678062
v 0.618891 -0.127117 -0.676783
v 0.659825 -0.127130 -0.659839
v 0.676783 -0.127117 -0.618891
v -0.667310 -0.163807 0.667215
v 0.666909 -0.163540 0.666987
v -0.488350 0.179794 0.490261
v 0.489149 0.180890 0.489138
v -0.489451 0.178733 -0.489403
v 0.489446 0.178722 -0.489411
v -0.666945 -0.163476 -0.667023
v 0.667277 -0.163775 -0.667286
v 0.380794 0.197505 0.380794
v -0.380794 0.197505 0.380794
v 0.380794 0.197505 -0.380794
v -0.380794 0.197505 -0.380794
v 0.362058 0.184599 0.362058
v -0.362058 0.184599 0.362058
v 0.362058 0.184599 -0.362058
v -0.362058 0.184599 -0.362058
v 0.353157 0.163407 0.353157
v -0.353157 0.163407 0.353157
v 0.353157 0.163407 -0.353157
v -0.353157 0.163407 -0.353157
v 0.353157 0.113384 0.353157
v -0.353157 0.113384 0.353157
v 0.353157 0.113384 -0.353157
v -0.353157 0.113384 -0.353157
vt 0.820771 0.013270
vt 0.816225 0.034508
vt 0.174069 0.043354
vt 0.018790 0.176605
vt 0.808320 0.057827
vt 0.182873 0.066354
vt 0.937861 0.184151
vt 0.960995 0.175792
vt 0.961024 0.817515
vt 0.937342 0.808631
vt 0.982193 0.822894
vt 0.830506 0.059351
vt 0.773063 0.235283
vt 0.740549 0.219527
vt 0.777933 0.255673
vt 0.817897 0.931985
vt 0.826581 0.954995
vt 0.184737 0.965821
vt 0.192726 0.942508
vt 0.180255 0.987066
vt 0.935717 0.831409
vt 0.763702 0.768406
vt 0.777867 0.738720
vt 0.744340 0.772927
vt 0.734727 0.240138
vt 0.263931 0.246173
vt 0.257810 0.224747
vt 0.734368 0.261283
vt 0.264260 0.267854
vt 0.756259 0.261334
vt 0.757469 0.732542
vt 0.736534 0.731712
vt 0.737758 0.752653
vt 0.266969 0.759669
vt 0.266478 0.737799
vt 0.261655 0.781432
vt 0.236533 0.229538
vt 0.065248 0.168091
vt 0.220920 0.262355
vt 0.063614 0.190869
vt 0.242511 0.268000
vt 0.244605 0.737693
vt 0.222945 0.743373
vt 0.227332 0.764771
vt 0.170514 0.941086
vt 0.063105 0.815162
vt 0.039961 0.181901
vt 0.039972 0.823532
vt 0.832739 0.038281
vt 0.956917 0.834196
vt 0.756388 0.244445
vt 0.754196 0.752550
vt 0.246395 0.246402
vt 0.244429 0.755261
vt 0.044083 0.165283
vt 0.168269 0.962079
vt 0.700158 0.695947
vt 0.698375 0.298031
vt 0.302489 0.701118
vt 0.300675 0.303550
vt 0.689421 0.685391
vt 0.687758 0.308886
vt 0.313113 0.690298
vt 0.311428 0.314068
vt 0.680285 0.676454
vt 0.678791 0.318117
vt 0.322097 0.681101
vt 0.320588 0.322969
vt 0.663559 0.661372
vt 0.663672 0.334971
vt 0.337241 0.664282
vt 0.337354 0.338004
vt 0.842912 0.950579
vt 0.831972 0.976176
vt 0.957021 0.159344
vt 0.982280 0.170950
vt 0.157805 0.047797
vt 0.168733 0.022165
vt 0.043982 0.839953
vt 0.018686 0.828374
vt 0.249427 0.760150
vt 0.757661 0.748950
vt 0.751851 0.239511
vt 0.242392 0.250472
vt 0.064961 0.837320
vt 0.160970 0.069060
vt 0.240210 0.777441
vt 0.225472 0.240990
vt 0.773662 0.758147
vt 0.761097 0.222791
vt 0.839796 0.929256
vt 0.936044 0.161980
vn -0.302929 -0.902596 0.305867
vn -0.879172 -0.476446 0.007507
vn -0.879239 -0.476318 -0.007759
vn -0.304426 -0.902381 -0.305012
vn -0.910060 0.414208 0.014897
vn -0.910271 0.413760 -0.014452
vn -0.013884 0.413341 0.910471
vn -0.007244 -0.469749 0.882770
vn 0.007840 -0.471431 0.881868
vn 0.014469 0.414064 0.910133
vn 0.304406 -0.902530 0.304593
vn -0.773545 0.541522 0.329214
vn -0.741174 0.588530 0.322945
vn -0.865490 0.500819 0.010358
vn -0.304964 0.536510 0.786863
vn -0.010716 0.500590 0.865618
vn -0.292402 0.585199 0.756335
vn 0.910348 0.413607 0.013991
vn 0.879161 -0.476461 0.007721
vn 0.879257 -0.476287 -0.007563
vn 0.910172 0.413970 -0.014649
vn 0.303164 -0.902453 -0.306057
vn 0.315319 0.533742 0.784661
vn 0.306660 0.584717 0.751043
vn 0.010471 0.500794 0.865503
vn 0.779008 0.539075 0.320227
vn 0.865540 0.500731 0.010454
vn 0.748728 0.585937 0.309976
vn -0.540397 0.841396 0.004902
vn -0.538030 0.842902 -0.006339
vn -0.865581 0.500654 -0.010742
vn -0.166165 0.986098 0.000442
vn -0.164679 0.986346 -0.001153
vn -0.000998 0.986365 0.164568
vn -0.005469 0.842776 0.538237
vn 0.004079 0.841253 0.540626
vn 0.000282 0.986111 0.166089
vn 0.166154 0.986100 0.000285
vn 0.540617 0.841259 0.004076
vn 0.538027 0.842904 -0.006343
vn 0.164680 0.986346 -0.001154
vn 0.865586 0.500646 -0.010708
vn -0.746944 0.588459 -0.309500
vn -0.776214 0.543723 -0.319151
vn -0.306674 0.587379 -0.748957
vn -0.010833 0.500754 -0.865522
vn -0.015069 0.413792 -0.910247
vn -0.314723 0.538589 -0.781582
vn -0.005565 0.836298 -0.548247
vn 0.005566 0.836296 -0.548250
vn 0.010807 0.500753 -0.865523
vn -0.000788 0.984896 -0.173148
vn 0.000796 0.984900 -0.173124
vn 0.308102 0.588361 -0.747599
vn 0.316945 0.541634 -0.778575
vn 0.014731 0.413310 -0.910471
vn 0.747733 0.588289 -0.307916
vn 0.778696 0.541535 -0.316814
vn -0.007855 -0.471258 -0.881961
vn 0.007201 -0.469739 -0.882776
vn -0.705366 0.083919 0.703858
vn 0.693265 0.092337 0.714743
vn -0.218611 0.748363 0.626229
vn -0.592833 0.757920 0.272225
vn 0.600314 0.763309 0.238710
vn 0.238935 0.763214 0.600345
vn -0.252717 0.742668 -0.620144
vn -0.620238 0.742793 -0.252120
vn 0.620140 0.742836 -0.252234
vn 0.252633 0.742807 -0.620012
vn -0.693162 0.093760 -0.714658
vn 0.704563 0.084649 -0.704575
vn 0.000000 0.997741 -0.067174
vn 0.000000 0.997741 -0.067174
vn -0.067174 0.997741 0.000000
vn -0.067174 0.997741 0.000000
vn 0.000000 0.997741 0.067174
vn 0.000000 0.997741 0.067174
vn 0.067174 0.997741 0.000000
vn 0.067174 0.997741 0.000000
vn 0.000000 0.673993 -0.738738
vn 0.000000 0.673993 -0.738738
vn -0.738737 0.673993 0.000000
vn -0.738737 0.673993 0.000000
vn 0.000000 0.673993 0.738738
vn 0.000000 0.673993 0.738738
vn 0.738737 0.673993 0.000000
vn 0.738737 0.673993 0.000000
vn 0.000000 0.133710 -0.991021
vn 0.000000 0.133710 -0.991021
vn -0.991020 0.133710 0.000000
vn -0.991020 0.133710 0.000000
vn 0.000000 0.133710 0.991021
vn 0.000000 0.133710 0.991021
vn 0.991020 0.133710 0.000000
vn 0.991020 0.133710 0.000000
vn 0.000000 0.000000 -1.000000
vn 0.000000 0.000000 -1.000000
vn -1.000000 0.000000 0.000000
vn -1.000000 0.000000 0.000000
vn 0.000000 0.000000 1.000000
vn 0.000000 0.000000 1.000000
vn 1.000000 0.000000 0.000000
vn 1.000000 0.000000 0.000000
s 1
g level_thingy
usemtl initialShadingGroup
f 2/1/1 1/2/2 37/3/3 42/78/4
f 1/2/2 6/5/5 38/6/6 37/3/3
f 4/7/7 3/8/8 11/9/9 10/10/10
f 3/8/8 2/76/1 12/11/11 11/9/9
f 6/5/5 5/12/12 15/90/13 14/14/14
f 5/92/15 4/7/7 16/15/16 15/13/17
f 8/16/18 7/17/19 43/18/20 48/19/21
f 7/17/19 12/74/11 44/20/22 43/18/20
f 10/10/10 9/21/23 23/89/24 22/23/25
f 9/91/26 8/16/18 24/24/27 23/22/28
f 14/14/14 13/25/29 27/26/30 26/27/31
f 13/25/29 18/28/32 28/29/33 27/26/30
f 18/28/34 17/30/35 21/31/36 20/32/37
f 17/30/35 16/15/16 22/23/25 21/31/36
f 20/32/38 19/33/39 35/34/40 34/35/41
f 19/33/39 24/24/27 36/36/42 35/34/40
f 26/27/31 25/37/43 39/86/44 38/6/6
f 25/88/45 30/39/46 40/40/47 39/38/48
f 30/39/46 29/41/49 33/42/50 32/43/51
f 29/41/49 28/29/52 34/35/53 33/42/50
f 32/43/51 31/44/54 47/85/55 46/46/56
f 31/87/57 36/36/42 48/19/21 47/45/58
f 42/4/4 41/47/59 45/48/60 44/80/22
f 41/47/59 40/40/47 46/46/56 45/48/60
f 4/7/7 10/10/10 22/23/25 16/15/16
f 30/39/46 32/43/51 46/46/56 40/40/47
f 8/16/18 48/19/21 36/36/42 24/24/27
f 38/6/6 6/5/5 14/14/14 26/27/31
f 5/12/12 6/5/5 1/2/2 49/49/61
f 49/75/61 2/76/1 3/8/8
f 3/8/8 4/7/7 5/92/15 49/75/61
f 50/73/62 12/74/11 7/17/19
f 7/17/19 8/16/18 9/91/26 50/73/62
f 9/21/23 10/10/10 11/9/9 50/50/62
f 17/30/35 18/28/34 51/51/63
f 13/25/29 14/14/14 15/90/13 51/83/64
f 15/13/17 16/15/16 17/30/35 51/51/63
f 23/22/28 24/24/27 19/33/39 52/52/65
f 52/82/66 20/32/37 21/31/36
f 21/31/36 22/23/25 23/89/24 52/82/66
f 29/41/49 30/39/46 25/88/45 53/84/67
f 25/37/43 26/27/31 27/26/30 53/53/68
f 27/26/30 28/29/33 53/53/68
f 35/34/40 36/36/42 31/87/57 54/81/69
f 31/44/54 32/43/51 33/42/50 54/54/70
f 54/81/69 34/35/41 35/34/40
f 55/77/71 42/78/4 37/3/3
f 37/3/3 38/6/6 39/86/44 55/77/71
f 39/38/48 40/40/47 41/47/59 55/55/71
f 47/45/58 48/19/21 43/18/20 56/56/72
f 56/79/72 44/80/22 45/48/60
f 45/48/60 46/46/56 47/85/55 56/79/72
f 18/28/34 20/32/37 57/57/73 58/58/74
f 20/32/38 34/35/41 59/59/75 57/57/76
f 34/35/53 28/29/52 60/60/77 59/59/78
f 28/29/33 18/28/32 58/58/79 60/60/80
f 58/58/74 57/57/73 61/61/81 62/62/82
f 57/57/76 59/59/75 63/63/83 61/61/84
f 59/59/78 60/60/77 64/64/85 63/63/86
f 60/60/80 58/58/79 62/62/87 64/64/88
f 62/62/82 61/61/81 65/65/89 66/66/90
f 61/61/84 63/63/83 67/67/91 65/65/92
f 63/63/86 64/64/85 68/68/93 67/67/94
f 64/64/88 62/62/87 66/66/95 68/68/96
f 66/66/90 65/65/89 69/69/97 70/70/98
f 65/65/92 67/67/91 71/71/99 69/69/100
f 67/67/94 68/68/93 72/72/101 71/71/102
f 68/68/96 66/66/95 70/70/103 72/72/104
f 53/84/67 28/29/52 29/41/49
f 51/83/64 18/28/32 13/25/29
f 19/33/39 20/32/38 52/52/65
f 33/42/50 34/35/53 54/54/70
f 43/18/20 44/20/22 56/56/72
f 41/47/59 42/4/4 55/55/71
f 1/2/2 2/1/1 49/49/61
f 11/9/9 12/11/11 50/50/62
