# This file uses centimeters as units for non-parametric coordinates.

mtllib level connector corner.mtl
g default
v 1.276651 0.066680 0.114059
v 1.276651 0.058869 0.132868
v 1.276651 0.040011 0.140659
v -0.066680 0.040011 -1.490085
v -0.058869 0.058869 -1.490085
v -0.040011 0.066680 -1.490085
v 1.276651 0.040011 0.007646
v 1.276651 0.058869 0.015437
v 1.276651 0.066680 0.034246
v 0.040011 0.066680 -1.490085
v 0.058869 0.058869 -1.490085
v 0.066680 0.040011 -1.490085
v 1.276651 -0.040011 0.140659
v 1.276651 -0.058869 0.132868
v 1.276651 -0.066680 0.114059
v -0.040011 -0.066680 -1.490085
v -0.058869 -0.058869 -1.490085
v -0.066680 -0.040011 -1.490085
v 1.276651 -0.066680 0.034246
v 1.276651 -0.058869 0.015437
v 1.276651 -0.040011 0.007646
v 0.066680 -0.040011 -1.490085
v 0.058869 -0.058869 -1.490085
v 0.040011 -0.066680 -1.490085
v -0.023829 0.039723 0.076041
v -0.022949 -0.040293 0.076527
v -0.016341 -0.059116 0.071302
v -0.000804 -0.066846 0.058459
v 0.064764 -0.066505 0.003762
v 0.080130 -0.058613 -0.009176
v 0.086323 -0.039723 -0.014630
v 0.085443 0.040293 -0.015115
v 0.078835 0.059116 -0.009891
v 0.063297 0.066846 0.002952
v -0.002270 0.066505 0.057650
v -0.017636 0.058613 0.070587
v -0.040011 0.066680 -0.062020
v 0.040011 0.066680 -0.062020
v 0.058869 0.058869 -0.062020
v 0.066680 0.040011 -0.062020
v 0.066680 -0.040011 -0.062020
v 0.058869 -0.058869 -0.062020
v 0.040011 -0.066680 -0.062020
v -0.040011 -0.066680 -0.062020
v -0.058869 -0.058869 -0.062020
v -0.066680 -0.040011 -0.062020
v -0.066680 0.040011 -0.062020
v -0.058869 0.058869 -0.062020
v 0.130409 0.040011 0.126877
v 0.130409 -0.040011 0.126877
v 0.130510 -0.058869 0.119254
v 0.130756 -0.066680 0.100848
v 0.131796 -0.066680 0.022745
v 0.132042 -0.058869 0.004339
v 0.132143 -0.040011 -0.003285
v 0.132143 0.040011 -0.003284
v 0.132042 0.058869 0.004339
v 0.131796 0.066680 0.022745
v 0.130755 0.066680 0.100848
v 0.130510 0.058869 0.119254
v 0.051398 -0.040152 0.114941
v 0.050954 0.039867 0.114695
v 0.054132 0.058741 0.107741
v 0.062015 0.066592 0.091066
v 0.095646 0.066763 0.020412
v 0.103615 0.058993 0.003786
v 0.107003 0.040152 -0.003053
v 0.107447 -0.039867 -0.002808
v 0.104269 -0.058741 0.004146
v 0.096386 -0.066592 0.020821
v 0.062754 -0.066763 0.091475
v 0.054785 -0.058993 0.108101
v -0.057463 0.039867 0.010020
v -0.057017 -0.040152 0.010266
v -0.049435 -0.058993 0.007615
v -0.031341 -0.066763 0.001099
v 0.045250 -0.066592 -0.026654
v 0.063256 -0.058741 -0.033217
v 0.070627 -0.039867 -0.035985
v 0.070181 0.040152 -0.036231
v 0.062599 0.058993 -0.033580
v 0.044506 0.066763 -0.027064
v -0.032086 0.066592 0.000688
v -0.050092 0.058741 0.007253
v 0.011618 -0.040222 0.099254
v 0.010956 0.039795 0.098888
v 0.015642 0.058677 0.092684
v 0.027266 0.066549 0.077878
v 0.078924 0.066805 0.012759
v 0.090677 0.059054 -0.001976
v 0.095675 0.040222 -0.008007
v 0.096337 -0.039795 -0.007642
v 0.091651 -0.058677 -0.001438
v 0.080027 -0.066549 0.013368
v 0.028370 -0.066805 0.078487
v 0.016616 -0.059054 0.093222
v -0.043572 0.039795 0.044491
v -0.042909 -0.040222 0.044857
v -0.035814 -0.059054 0.040920
v -0.018999 -0.066805 0.031240
v 0.053983 -0.066549 -0.010304
v 0.070669 -0.058677 -0.020055
v 0.077451 -0.039795 -0.024165
v 0.076788 0.040222 -0.024532
v 0.069693 0.059054 -0.020594
v 0.052877 0.066805 -0.010914
v -0.020104 0.066549 0.030630
v -0.036790 0.058677 0.040381
vt 0.007855 0.177927
vt 0.989566 0.177927
vt 0.989566 0.822298
vt 0.989567 0.822298
vt 0.007855 0.822298
vt 0.007855 0.177927
vt 0.989567 0.822298
vt 0.007855 0.822298
vt 0.007855 0.177927
vt 0.989567 0.177927
vt 0.007855 0.177927
vt 0.989566 0.177927
vt 0.989566 0.822298
vt 0.007855 0.822298
vt 0.989566 0.984448
vt 0.007855 0.012781
vt 0.989566 0.984448
vt 0.007855 0.012781
vt 0.989567 0.984448
vt 0.007855 0.012781
vt 0.989567 0.984448
vt 0.007855 0.012781
vt 0.007855 0.822298
vt 0.989567 0.177927
vt 0.989567 0.012781
vt 0.007855 0.984448
vt 0.989566 0.012781
vt 0.007855 0.984448
vt 0.989567 0.012781
vt 0.007855 0.984448
vt 0.989566 0.012781
vt 0.007855 0.984448
vt 0.498711 0.822298
vt 0.498711 0.177927
vt 0.498711 0.984448
vt 0.498711 0.012781
vt 0.498711 0.822298
vt 0.498711 0.177927
vt 0.498711 0.984448
vt 0.498711 0.012781
vt 0.498711 0.822298
vt 0.498711 0.177927
vt 0.498711 0.984448
vt 0.498711 0.012781
vt 0.498711 0.822298
vt 0.498711 0.177927
vt 0.498711 0.984448
vt 0.498711 0.012781
vt 0.474186 0.177927
vt 0.474186 0.822298
vt 0.474186 0.984448
vt 0.474186 0.012781
vt 0.474186 0.177927
vt 0.474186 0.822298
vt 0.474186 0.984448
vt 0.474186 0.012781
vt 0.474186 0.177927
vt 0.474186 0.822298
vt 0.474186 0.984448
vt 0.474186 0.012781
vt 0.474186 0.177927
vt 0.474186 0.822298
vt 0.474186 0.984448
vt 0.474186 0.012781
vt 0.530666 0.822298
vt 0.530666 0.177927
vt 0.530666 0.984448
vt 0.530666 0.012781
vt 0.530666 0.822298
vt 0.530666 0.177927
vt 0.530666 0.984448
vt 0.530666 0.012781
vt 0.530666 0.822298
vt 0.530666 0.177927
vt 0.530666 0.984448
vt 0.530666 0.012781
vt 0.530666 0.822298
vt 0.530666 0.177927
vt 0.530666 0.984448
vt 0.530666 0.012781
vt 0.514688 0.177927
vt 0.514688 0.822298
vt 0.514688 0.984448
vt 0.514688 0.012781
vt 0.514688 0.177927
vt 0.514688 0.822298
vt 0.514688 0.984448
vt 0.514688 0.012781
vt 0.514688 0.177927
vt 0.514688 0.822298
vt 0.514688 0.984448
vt 0.514688 0.012781
vt 0.514688 0.177927
vt 0.514688 0.822298
vt 0.514688 0.984448
vt 0.514688 0.012781
vt 0.486448 0.822298
vt 0.486448 0.177927
vt 0.486448 0.984448
vt 0.486448 0.012781
vt 0.486448 0.822298
vt 0.486448 0.177927
vt 0.486448 0.984448
vt 0.486448 0.012781
vt 0.486448 0.822298
vt 0.486448 0.177927
vt 0.486448 0.984448
vt 0.486448 0.012781
vt 0.486448 0.822298
vt 0.486448 0.177927
vt 0.486448 0.984448
vt 0.486448 0.012781
vt 0.506699 0.177927
vt 0.506699 0.822298
vt 0.506699 0.984448
vt 0.506699 0.012781
vt 0.506699 0.177927
vt 0.506699 0.822298
vt 0.506699 0.984448
vt 0.506700 0.012781
vt 0.506699 0.177927
vt 0.506700 0.822298
vt 0.506700 0.984448
vt 0.506700 0.012781
vt 0.506699 0.177927
vt 0.506700 0.822298
vt 0.506700 0.984448
vt 0.506699 0.012781
vt 0.492579 0.822298
vt 0.492579 0.177927
vt 0.492579 0.984448
vt 0.492579 0.012781
vt 0.492579 0.822298
vt 0.492579 0.177927
vt 0.492579 0.984448
vt 0.492579 0.012781
vt 0.492579 0.822298
vt 0.492579 0.177927
vt 0.492579 0.984448
vt 0.492579 0.012781
vt 0.492579 0.822298
vt 0.492579 0.177927
vt 0.492579 0.984448
vt 0.492579 0.012781
vn 0.000751 0.997673 -0.068177
vn -0.001876 0.995466 0.095100
vn -0.000935 0.996806 0.079859
vn 0.000787 0.996815 -0.079746
vn -0.000935 -0.996806 0.079859
vn -0.001799 -0.995475 0.095009
vn 0.000706 -0.997669 -0.068238
vn 0.000787 -0.996815 -0.079746
vn 0.009535 -0.077715 -0.996930
vn 0.009056 -0.077931 -0.996918
vn 0.009118 0.077877 -0.996921
vn 0.009535 0.077716 -0.996930
vn -0.020991 0.077401 0.996779
vn -0.020940 -0.077211 0.996795
vn -0.011972 -0.077708 0.996904
vn -0.011972 0.077708 0.996904
vn -0.011062 0.378325 0.925607
vn -0.019300 0.377822 0.925677
vn -0.004530 0.922052 0.387038
vn -0.007861 0.921801 0.387584
vn 0.003820 0.922052 -0.387048
vn 0.004252 0.921888 -0.387433
vn 0.008907 0.378330 -0.925628
vn 0.008873 0.377885 -0.925810
vn -0.004530 -0.922053 0.387038
vn -0.007559 -0.921821 0.387542
vn -0.011062 -0.378326 0.925606
vn -0.019013 -0.377715 0.925727
vn 0.008907 -0.378332 -0.925627
vn 0.008554 -0.377922 -0.925798
vn 0.003820 -0.922052 -0.387047
vn 0.003986 -0.921856 -0.387512
vn -0.996894 -0.078752 0.000000
vn -0.996930 -0.078061 0.006041
vn -0.996942 0.077924 0.005932
vn -0.996894 0.078753 0.000000
vn -0.923789 -0.382834 0.007197
vn -0.923880 -0.382683 0.000000
vn -0.083172 -0.996535 0.000801
vn -0.382659 -0.923890 0.000723
vn -0.382683 -0.923880 0.000000
vn -0.078753 -0.996894 0.000000
vn 0.075432 -0.997151 -0.000077
vn 0.078753 -0.996894 0.000000
vn 0.382688 -0.923876 -0.002016
vn 0.382683 -0.923880 0.000000
vn 0.996862 -0.079117 -0.002697
vn 0.923882 -0.382673 -0.001949
vn 0.923880 -0.382683 0.000000
vn 0.996894 -0.078753 0.000000
vn 0.996865 0.079080 -0.002695
vn 0.996894 0.078752 0.000000
vn 0.923861 0.382724 -0.001832
vn 0.923880 0.382683 0.000000
vn 0.075457 0.997149 -0.000067
vn 0.382612 0.923907 -0.001867
vn 0.382683 0.923880 0.000000
vn 0.078753 0.996894 0.000000
vn -0.078753 0.996894 0.000000
vn -0.083097 0.996541 0.000779
vn -0.382695 0.923874 0.000757
vn -0.382683 0.923880 0.000000
vn -0.923904 0.382564 0.006775
vn -0.923880 0.382683 0.000000
vn 0.042694 0.998796 -0.024158
vn -0.085674 0.994953 0.052237
vn -0.065195 0.994310 0.084245
vn 0.033500 0.999022 -0.028842
vn 0.218680 0.927621 -0.302819
vn 0.291395 0.930262 -0.222940
vn 0.625042 0.396321 -0.672497
vn 0.652950 0.087737 -0.752302
vn 0.803871 0.087759 -0.588294
vn 0.762859 0.395741 -0.511306
vn 0.652676 -0.081537 -0.753237
vn 0.803749 -0.081185 -0.589404
vn 0.625252 -0.391037 -0.675389
vn 0.762337 -0.388446 -0.517640
vn 0.219688 -0.924970 -0.310109
vn 0.038920 -0.998613 -0.035450
vn 0.048648 -0.998425 -0.027952
vn 0.297913 -0.927682 -0.225064
vn -0.058314 -0.995186 0.078761
vn -0.080429 -0.995534 0.049436
vn -0.292057 -0.931441 0.217073
vn -0.341434 -0.928033 0.148920
vn -0.617494 -0.398931 0.677905
vn -0.708882 -0.084099 0.700295
vn -0.888176 -0.085291 0.451518
vn -0.806118 -0.398958 0.437043
vn -0.889618 0.074445 0.450596
vn -0.710745 0.077381 0.699180
vn -0.620950 0.394057 0.677599
vn -0.811414 0.389888 0.435424
vn -0.296791 0.928718 0.222254
vn -0.346316 0.925759 0.151775
vn -0.460227 -0.076629 0.884488
vn -0.460933 0.077216 0.884069
vn -0.410194 -0.379090 0.829477
vn -0.038905 -0.994999 0.092001
vn -0.196653 -0.925724 0.323052
vn 0.026918 -0.998583 -0.045900
vn 0.168232 -0.920190 -0.353481
vn 0.482654 -0.081677 -0.871994
vn 0.458499 -0.381589 -0.802601
vn 0.484311 0.083497 -0.870902
vn 0.462409 0.383192 -0.799589
vn 0.025454 0.998853 -0.040561
vn 0.171419 0.922367 -0.346201
vn -0.042982 0.994364 0.096914
vn -0.201343 0.923508 0.326486
vn -0.412346 0.378776 0.828552
vn -0.228926 0.073935 0.970632
vn -0.228053 -0.071200 0.971042
vn -0.201694 0.370456 0.906687
vn -0.027339 0.988900 0.146048
vn -0.111777 0.918342 0.379676
vn 0.009765 0.999402 -0.033163
vn 0.041533 0.917439 -0.395702
vn 0.124738 0.081715 -0.988819
vn 0.152468 0.370812 -0.916107
vn 0.120445 -0.082190 -0.989312
vn 0.138971 -0.371695 -0.917894
vn 0.009313 -0.999318 -0.035737
vn 0.032630 -0.916134 -0.399542
vn -0.024536 -0.989403 0.143105
vn -0.107846 -0.919474 0.378069
vn -0.198119 -0.369027 0.908057
vn -0.973842 -0.086543 0.210099
vn -0.975022 0.077947 0.207983
vn -0.892632 -0.389740 0.226518
vn -0.066588 -0.997537 0.022045
vn -0.378054 -0.924004 0.057378
vn 0.077895 -0.996869 -0.013565
vn 0.347177 -0.925949 -0.148616
vn 0.959000 -0.074820 -0.273353
vn 0.897768 -0.383778 -0.216163
vn 0.958301 0.083392 -0.273321
vn 0.897876 0.389033 -0.206085
vn 0.071605 0.997368 -0.011380
vn 0.344232 0.927844 -0.143564
vn -0.070642 0.997242 0.022779
vn -0.380658 0.922931 0.057424
vn -0.896882 0.383342 0.220571
s 1
g pCube8
usemtl initialShadingGroup
f 58/77/1 59/78/2 1/2/3 9/3/4
s 2
f 15/4/5 52/69/6 53/70/7 19/24/8
s 3
f 21/7/9 55/73/10 56/74/11 7/10/12
s 4
f 49/65/13 50/66/14 13/12/15 3/13/16
f 3/13/16 2/15/17 60/79/18 49/65/13
s 1
f 2/31/19 1/2/3 59/78/2 60/80/20
f 9/3/4 8/17/21 57/75/22 58/77/1
s 3
f 8/29/23 7/10/12 56/74/11 57/76/24
s 2
f 15/4/5 14/19/25 51/67/26 52/69/6
s 4
f 14/27/27 13/12/15 50/66/14 51/68/28
s 3
f 21/7/9 20/21/29 54/71/30 55/73/10
s 2
f 20/25/31 19/24/8 53/70/7 54/72/32
s 4
f 18/11/33 46/61/34 47/62/35 4/14/36
f 45/60/37 46/61/34 18/11/33 17/20/38
s 2
f 44/58/39 45/59/40 17/28/41 16/5/42
f 43/57/43 44/58/39 16/5/42 24/6/44
f 42/56/45 43/57/43 24/6/44 23/22/46
s 3
f 41/54/47 42/55/48 23/26/49 22/8/50
f 40/53/51 41/54/47 22/8/50 12/9/52
f 39/52/53 40/53/51 12/9/52 11/18/54
s 1
f 38/50/55 39/51/56 11/30/57 10/23/58
f 6/1/59 37/49/60 38/50/55 10/23/58
f 48/64/61 37/49/60 6/1/59 5/16/62
s 4
f 47/62/35 48/63/63 5/32/64 4/14/36
s 1
f 106/141/65 107/142/66 35/46/67 34/45/68
f 34/45/68 33/43/69 105/139/70 106/141/65
s 3
f 33/44/71 32/42/72 104/138/73 105/140/74
f 32/42/72 31/41/75 103/137/76 104/138/73
f 31/41/75 30/39/77 102/135/78 103/137/76
s 2
f 30/40/79 29/38/80 101/134/81 102/136/82
f 29/38/80 28/37/83 100/133/84 101/134/81
f 28/37/83 27/35/85 99/131/86 100/133/84
s 4
f 27/36/87 26/34/88 98/130/89 99/132/90
f 97/129/91 98/130/89 26/34/88 25/33/92
f 25/33/92 36/47/93 108/143/94 97/129/91
s 1
f 36/48/95 35/46/67 107/142/66 108/144/96
s 4
f 25/33/92 26/34/88 85/113/97 86/114/98
f 96/128/99 85/113/97 26/34/88 27/36/87
s 2
f 95/126/100 96/127/101 27/35/85 28/37/83
f 94/125/102 95/126/100 28/37/83 29/38/80
f 93/124/103 94/125/102 29/38/80 30/40/79
s 3
f 92/122/104 93/123/105 30/39/77 31/41/75
f 91/121/106 92/122/104 31/41/75 32/42/72
f 90/120/107 91/121/106 32/42/72 33/44/71
s 1
f 89/118/108 90/119/109 33/43/69 34/45/68
f 34/45/68 35/46/67 88/117/110 89/118/108
f 87/116/111 88/117/110 35/46/67 36/48/95
s 4
f 86/114/98 87/115/112 36/47/93 25/33/92
f 62/82/113 61/81/114 50/66/14 49/65/13
f 49/65/13 60/79/18 63/83/115 62/82/113
s 1
f 60/80/20 59/78/2 64/85/116 63/84/117
f 65/86/118 64/85/116 59/78/2 58/77/1
f 58/77/1 57/75/22 66/87/119 65/86/118
s 3
f 57/76/24 56/74/11 67/89/120 66/88/121
f 56/74/11 55/73/10 68/90/122 67/89/120
f 55/73/10 54/71/30 69/91/123 68/90/122
s 2
f 54/72/32 53/70/7 70/93/124 69/92/125
f 53/70/7 52/69/6 71/94/126 70/93/124
f 52/69/6 51/67/26 72/95/127 71/94/126
s 4
f 51/68/28 50/66/14 61/81/114 72/96/128
f 47/62/35 46/61/34 74/98/129 73/97/130
f 75/100/131 74/98/129 46/61/34 45/60/37
s 2
f 76/101/132 75/99/133 45/59/40 44/58/39
f 77/102/134 76/101/132 44/58/39 43/57/43
f 78/104/135 77/102/134 43/57/43 42/56/45
s 3
f 79/105/136 78/103/137 42/55/48 41/54/47
f 80/106/138 79/105/136 41/54/47 40/53/51
f 81/108/139 80/106/138 40/53/51 39/52/53
s 1
f 82/109/140 81/107/141 39/51/56 38/50/55
f 38/50/55 37/49/60 83/110/142 82/109/140
f 84/112/143 83/110/142 37/49/60 48/64/61
s 4
f 73/97/130 84/111/144 48/63/63 47/62/35
f 86/114/98 85/113/97 61/81/114 62/82/113
f 62/82/113 63/83/115 87/115/112 86/114/98
s 1
f 63/84/117 64/85/116 88/117/110 87/116/111
f 89/118/108 88/117/110 64/85/116 65/86/118
f 65/86/118 66/87/119 90/119/109 89/118/108
s 3
f 66/88/121 67/89/120 91/121/106 90/120/107
f 67/89/120 68/90/122 92/122/104 91/121/106
f 68/90/122 69/91/123 93/123/105 92/122/104
s 2
f 69/92/125 70/93/124 94/125/102 93/124/103
f 70/93/124 71/94/126 95/126/100 94/125/102
f 71/94/126 72/95/127 96/127/101 95/126/100
s 4
f 72/96/128 61/81/114 85/113/97 96/128/99
f 73/97/130 74/98/129 98/130/89 97/129/91
f 99/132/90 98/130/89 74/98/129 75/100/131
s 2
f 100/133/84 99/131/86 75/99/133 76/101/132
f 101/134/81 100/133/84 76/101/132 77/102/134
f 102/136/82 101/134/81 77/102/134 78/104/135
s 3
f 103/137/76 102/135/78 78/103/137 79/105/136
f 104/138/73 103/137/76 79/105/136 80/106/138
f 105/140/74 104/138/73 80/106/138 81/108/139
s 1
f 106/141/65 105/139/70 81/107/141 82/109/140
f 82/109/140 83/110/142 107/142/66 106/141/65
f 108/144/96 107/142/66 83/110/142 84/112/143
s 4
f 97/129/91 108/143/94 84/111/144 73/97/130
