# This file uses centimeters as units for non-parametric coordinates.

mtllib level connector.mtl
g default
v -0.040011 0.066680 1.516250
v -0.058869 0.058869 1.516250
v -0.066680 0.040011 1.516250
v -0.066680 0.040011 -1.490085
v -0.058869 0.058869 -1.490085
v -0.040011 0.066680 -1.490085
v 0.066680 0.040011 1.516250
v 0.058869 0.058869 1.516250
v 0.040011 0.066680 1.516250
v 0.040011 0.066680 -1.490085
v 0.058869 0.058869 -1.490085
v 0.066680 0.040011 -1.490085
v -0.066680 -0.040011 1.516250
v -0.058869 -0.058869 1.516250
v -0.040011 -0.066680 1.516250
v -0.040011 -0.066680 -1.490085
v -0.058869 -0.058869 -1.490085
v -0.066680 -0.040011 -1.490085
v 0.040011 -0.066680 1.516250
v 0.058869 -0.058869 1.516250
v 0.066680 -0.040011 1.516250
v 0.066680 -0.040011 -1.490085
v 0.058869 -0.058869 -1.490085
v 0.040011 -0.066680 -1.490085
vt 0.007855 0.177927
vt 0.989566 0.177927
vt 0.989566 0.822298
vt 0.989567 0.822298
vt 0.007855 0.822298
vt 0.007855 0.177927
vt 0.989567 0.822298
vt 0.007855 0.822298
vt 0.007855 0.177927
vt 0.989567 0.177927
vt 0.007855 0.177927
vt 0.989566 0.177927
vt 0.989566 0.822298
vt 0.007855 0.822298
vt 0.989566 0.984448
vt 0.007855 0.012781
vt 0.989566 0.984448
vt 0.007855 0.012781
vt 0.989567 0.984448
vt 0.007855 0.012781
vt 0.989567 0.984448
vt 0.007855 0.012781
vt 0.007855 0.822298
vt 0.989567 0.177927
vt 0.989567 0.012781
vt 0.007855 0.984448
vt 0.989566 0.012781
vt 0.007855 0.984448
vt 0.989567 0.012781
vt 0.007855 0.984448
vt 0.989566 0.012781
vt 0.007855 0.984448
vn -0.078753 0.996894 0.000000
vn -0.078753 0.996894 0.000000
vn 0.078753 0.996894 0.000000
vn 0.078753 0.996894 0.000000
vn -0.078753 -0.996894 0.000000
vn -0.078753 -0.996894 0.000000
vn 0.078753 -0.996894 0.000000
vn 0.078753 -0.996894 0.000000
vn 0.996894 -0.078753 0.000000
vn 0.996894 -0.078753 0.000000
vn 0.996894 0.078753 0.000000
vn 0.996894 0.078753 0.000000
vn -0.996894 -0.078753 0.000000
vn -0.996894 -0.078753 0.000000
vn -0.996894 0.078753 0.000000
vn -0.996894 0.078753 0.000000
vn -0.923880 0.382683 0.000000
vn -0.923880 0.382683 0.000000
vn -0.382683 0.923880 0.000000
vn -0.382683 0.923880 0.000000
vn 0.382683 0.923880 0.000000
vn 0.382683 0.923880 0.000000
vn 0.923880 0.382683 0.000000
vn 0.923880 0.382683 0.000000
vn -0.382683 -0.923880 0.000000
vn -0.382683 -0.923880 0.000000
vn -0.923880 -0.382683 0.000000
vn -0.923880 -0.382683 0.000000
vn 0.923880 -0.382683 0.000000
vn 0.923880 -0.382683 0.000000
vn 0.382683 -0.923880 0.000000
vn 0.382683 -0.923880 0.000000
s 1
g pCube7
usemtl initialShadingGroup
f 6/1/1 1/2/2 9/3/3 10/23/4
s 2
f 15/4/5 16/5/6 24/6/7 19/24/8
s 3
f 21/7/9 22/8/10 12/9/11 7/10/12
s 4
f 18/11/13 13/12/14 3/13/15 4/14/16
f 3/13/15 2/15/17 5/32/18 4/14/16
s 1
f 2/31/19 1/2/2 6/1/1 5/16/20
f 9/3/3 8/17/21 11/30/22 10/23/4
s 3
f 8/29/23 7/10/12 12/9/11 11/18/24
s 2
f 15/4/5 14/19/25 17/28/26 16/5/6
s 4
f 14/27/27 13/12/14 18/11/13 17/20/28
s 3
f 21/7/9 20/21/29 23/26/30 22/8/10
s 2
f 20/25/31 19/24/8 24/6/7 23/22/32
