# This file uses centimeters as units for non-parametric coordinates.

mtllib level connector wobble 1.mtl
g default
v 0.448228 0.066680 1.823637
v 0.429370 0.058869 1.823637
v 0.421559 0.040011 1.823637
v -0.066680 0.040011 -1.490085
v -0.058869 0.058869 -1.490085
v -0.040011 0.066680 -1.490085
v 0.554919 0.040011 1.823637
v 0.547108 0.058869 1.823637
v 0.528250 0.066680 1.823637
v 0.040011 0.066680 -1.490085
v 0.058869 0.058869 -1.490085
v 0.066680 0.040011 -1.490085
v 0.421559 -0.040011 1.823637
v 0.429370 -0.058869 1.823637
v 0.448228 -0.066680 1.823637
v -0.040011 -0.066680 -1.490085
v -0.058869 -0.058869 -1.490085
v -0.066680 -0.040011 -1.490085
v 0.528250 -0.066680 1.823637
v 0.547108 -0.058869 1.823637
v 0.554919 -0.040011 1.823637
v 0.066680 -0.040011 -1.490085
v 0.058869 -0.058869 -1.490085
v 0.040011 -0.066680 -1.490085
v -0.066680 0.040011 -0.285272
v -0.066680 -0.040011 -0.285272
v -0.058869 -0.058869 -0.285272
v -0.040011 -0.066680 -0.285272
v 0.040011 -0.066680 -0.285272
v 0.058869 -0.058869 -0.285272
v 0.066680 -0.040011 -0.285272
v 0.066680 0.040011 -0.285272
v 0.058869 0.058869 -0.285272
v 0.040011 0.066680 -0.285272
v -0.040011 0.066680 -0.285272
v -0.058869 0.058869 -0.285272
v 0.421559 0.040011 0.659623
v 0.421559 -0.040011 0.659623
v 0.429370 -0.058869 0.659623
v 0.448228 -0.066680 0.659623
v 0.528250 -0.066680 0.659623
v 0.547108 -0.058869 0.659623
v 0.554919 -0.040011 0.659623
v 0.554919 0.040011 0.659623
v 0.547108 0.058869 0.659623
v 0.528250 0.066680 0.659623
v 0.448228 0.066680 0.659623
v 0.429370 0.058869 0.659623
vt 0.007855 0.177927
vt 0.989566 0.177927
vt 0.989566 0.822298
vt 0.989567 0.822298
vt 0.007855 0.822298
vt 0.007855 0.177927
vt 0.989567 0.822298
vt 0.007855 0.822298
vt 0.007855 0.177927
vt 0.989567 0.177927
vt 0.007855 0.177927
vt 0.989566 0.177927
vt 0.989566 0.822298
vt 0.007855 0.822298
vt 0.989566 0.984448
vt 0.007855 0.012781
vt 0.989566 0.984448
vt 0.007855 0.012781
vt 0.989567 0.984448
vt 0.007855 0.012781
vt 0.989567 0.984448
vt 0.007855 0.012781
vt 0.007855 0.822298
vt 0.989567 0.177927
vt 0.989567 0.012781
vt 0.007855 0.984448
vt 0.989566 0.012781
vt 0.007855 0.984448
vt 0.989567 0.012781
vt 0.007855 0.984448
vt 0.989566 0.012781
vt 0.007855 0.984448
vt 0.401284 0.822298
vt 0.401284 0.177927
vt 0.401284 0.984448
vt 0.401284 0.012781
vt 0.401284 0.822298
vt 0.401284 0.177927
vt 0.401284 0.984448
vt 0.401284 0.012781
vt 0.401284 0.822298
vt 0.401284 0.177927
vt 0.401284 0.984448
vt 0.401284 0.012781
vt 0.401284 0.822298
vt 0.401284 0.177927
vt 0.401284 0.984448
vt 0.401284 0.012781
vt 0.609460 0.822298
vt 0.609460 0.177927
vt 0.609460 0.984448
vt 0.609460 0.012781
vt 0.609460 0.822298
vt 0.609460 0.177927
vt 0.609460 0.984448
vt 0.609460 0.012781
vt 0.609460 0.822298
vt 0.609460 0.177927
vt 0.609460 0.984448
vt 0.609460 0.012781
vt 0.609460 0.822298
vt 0.609460 0.177927
vt 0.609460 0.984448
vt 0.609460 0.012781
vn 0.144482 0.988540 -0.043756
vn -0.041122 0.999147 0.003651
vn -0.078753 0.996894 -0.000000
vn 0.078752 0.996894 0.000000
vn -0.078753 -0.996894 -0.000000
vn -0.041122 -0.999148 0.003651
vn 0.144482 -0.988540 -0.043756
vn 0.078752 -0.996894 0.000000
vn 0.996894 -0.078752 0.000000
vn 0.973166 -0.069785 -0.219266
vn 0.973166 0.069785 -0.219265
vn 0.996894 0.078753 0.000000
vn -0.969560 0.083365 0.230227
vn -0.969560 -0.083365 0.230227
vn -0.996894 -0.078752 -0.000000
vn -0.996894 0.078752 -0.000000
vn -0.923880 0.382682 -0.000000
vn -0.909141 0.376577 0.177913
vn -0.382683 0.923880 -0.000000
vn -0.380139 0.917737 0.115123
vn 0.382685 0.923879 0.000000
vn 0.382464 0.923346 -0.033955
vn 0.923880 0.382682 0.000000
vn 0.898300 0.372088 -0.233684
vn -0.382683 -0.923880 -0.000000
vn -0.380139 -0.917737 0.115123
vn -0.923880 -0.382682 -0.000000
vn -0.909141 -0.376577 0.177913
vn 0.923880 -0.382683 0.000000
vn 0.898300 -0.372088 -0.233684
vn 0.382684 -0.923879 0.000000
vn 0.382463 -0.923347 -0.033955
vn -0.996894 -0.078753 0.000000
vn -0.974056 -0.069987 0.215212
vn -0.974056 0.069986 0.215212
vn -0.996894 0.078753 0.000000
vn -0.899133 -0.372432 0.229900
vn -0.923880 -0.382683 0.000000
vn -0.142789 -0.988835 0.042625
vn -0.382475 -0.923376 0.032998
vn -0.382683 -0.923880 0.000000
vn -0.078753 -0.996894 0.000000
vn 0.041684 -0.999124 -0.003596
vn 0.078753 -0.996894 0.000000
vn 0.380211 -0.917910 -0.113499
vn 0.382683 -0.923880 0.000000
vn 0.970518 -0.083322 -0.226170
vn 0.909747 -0.376830 -0.174237
vn 0.923880 -0.382683 0.000000
vn 0.996894 -0.078753 0.000000
vn 0.970518 0.083322 -0.226170
vn 0.996894 0.078753 0.000000
vn 0.909747 0.376830 -0.174237
vn 0.923880 0.382683 0.000000
vn 0.041684 0.999124 -0.003596
vn 0.380210 0.917910 -0.113499
vn 0.382683 0.923880 0.000000
vn 0.078753 0.996894 0.000000
vn -0.078753 0.996894 0.000000
vn -0.142788 0.988835 0.042624
vn -0.382475 0.923376 0.032998
vn -0.382683 0.923880 0.000000
vn -0.899133 0.372433 0.229900
vn -0.923880 0.382683 0.000000
s 1
g pCube9
usemtl initialShadingGroup
f 46/61/1 47/62/2 1/2/3 9/3/4
s 2
f 15/4/5 40/53/6 41/54/7 19/24/8
s 3
f 21/7/9 43/57/10 44/58/11 7/10/12
s 4
f 37/49/13 38/50/14 13/12/15 3/13/16
f 3/13/16 2/15/17 48/63/18 37/49/13
s 1
f 2/31/19 1/2/3 47/62/2 48/64/20
f 9/3/4 8/17/21 45/59/22 46/61/1
s 3
f 8/29/23 7/10/12 44/58/11 45/60/24
s 2
f 15/4/5 14/19/25 39/51/26 40/53/6
s 4
f 14/27/27 13/12/15 38/50/14 39/52/28
s 3
f 21/7/9 20/21/29 42/55/30 43/57/10
s 2
f 20/25/31 19/24/8 41/54/7 42/56/32
s 4
f 18/11/33 26/34/34 25/33/35 4/14/36
f 27/36/37 26/34/34 18/11/33 17/20/38
s 2
f 28/37/39 27/35/40 17/28/41 16/5/42
f 29/38/43 28/37/39 16/5/42 24/6/44
f 30/40/45 29/38/43 24/6/44 23/22/46
s 3
f 31/41/47 30/39/48 23/26/49 22/8/50
f 32/42/51 31/41/47 22/8/50 12/9/52
f 33/44/53 32/42/51 12/9/52 11/18/54
s 1
f 34/45/55 33/43/56 11/30/57 10/23/58
f 6/1/59 35/46/60 34/45/55 10/23/58
f 36/48/61 35/46/60 6/1/59 5/16/62
s 4
f 25/33/35 36/47/63 5/32/64 4/14/36
f 25/33/35 26/34/34 38/50/14 37/49/13
f 39/52/28 38/50/14 26/34/34 27/36/37
s 2
f 40/53/6 39/51/26 27/35/40 28/37/39
f 41/54/7 40/53/6 28/37/39 29/38/43
f 42/56/32 41/54/7 29/38/43 30/40/45
s 3
f 43/57/10 42/55/30 30/39/48 31/41/47
f 44/58/11 43/57/10 31/41/47 32/42/51
f 45/60/24 44/58/11 32/42/51 33/44/53
s 1
f 46/61/1 45/59/22 33/43/56 34/45/55
f 34/45/55 35/46/60 47/62/2 46/61/1
f 48/64/20 47/62/2 35/46/60 36/48/61
s 4
f 37/49/13 48/63/18 36/47/63 25/33/35
